<?xml version="1.0" encoding="utf-8"?>
<!-- Generator: Adobe Illustrator 19.0.0, SVG Export Plug-In . SVG Version: 6.00 Build 0)  -->
<svg version="1.0" id="Layer_1" xmlns="http://www.w3.org/2000/svg" xmlns:xlink="http://www.w3.org/1999/xlink" x="0px" y="0px"
	 viewBox="0 0 421 421" style="enable-background:new 0 0 421 421;" xml:space="preserve">
<style type="text/css">
	.st0{fill:#FFFFFF;stroke:#C4E2F7;stroke-width:21;stroke-miterlimit:10;}
	.st1{fill:#666666;}
	.st2{fill:#FFFFFF;}
	.st3{fill:#666666;stroke:#FFFFFF;stroke-width:3;stroke-miterlimit:1;}
</style>
<rect id="XMLID_1_" x="10.5" y="10.5" class="st0" width="400" height="400"/>
<path id="XMLID_49_" class="st1" d="M210.7,209c-63.9,0-116.2,49.8-120.2,112.7h240.5C326.9,258.8,274.6,209,210.7,209z"/>
<circle id="XMLID_48_" class="st2" cx="210.7" cy="173.8" r="75.3"/>
<circle id="XMLID_47_" class="st1" cx="210.7" cy="173.8" r="60.3"/>
<polygon id="XMLID_50_" class="st2" points="224.5,246.6 210.7,270.6 196.8,246.6 "/>
<polygon id="XMLID_51_" class="st2" points="188.2,322 210.7,242 233.2,322 "/>
<path id="XMLID_52_" class="st3" d="M195.7,193.7h-15c-2.8,0-5-2.3-5-5v-10c0-2.7,2.2-5,5-5h15c2.8,0,5,2.3,5,5v10
	C200.7,191.4,198.4,193.7,195.7,193.7z"/>
<path id="XMLID_53_" class="st3" d="M242,193.7h-15c-2.8,0-5-2.3-5-5v-10c0-2.7,2.3-5,5-5h15c2.8,0,5,2.3,5,5v10
	C247,191.4,244.8,193.7,242,193.7z"/>
<rect id="XMLID_54_" x="144.7" y="176.9" class="st2" width="31" height="2.1"/>
<rect id="XMLID_55_" x="247" y="175.8" class="st2" width="31" height="2.1"/>
<rect id="XMLID_56_" x="199" y="178" class="st2" width="23.3" height="2.1"/>
<g id="XMLID_15_">
</g>
<g id="XMLID_16_">
</g>
<g id="XMLID_17_">
</g>
<g id="XMLID_18_">
</g>
<g id="XMLID_19_">
</g>
<g id="XMLID_20_">
</g>
<g id="XMLID_21_">
</g>
<g id="XMLID_22_">
</g>
<g id="XMLID_23_">
</g>
<g id="XMLID_24_">
</g>
<g id="XMLID_25_">
</g>
</svg>
