<?xml version="1.0" encoding="utf-8"?>
<!-- Generator: Adobe Illustrator 19.0.0, SVG Export Plug-In . SVG Version: 6.00 Build 0)  -->
<svg version="1.0" id="Layer_1" xmlns="http://www.w3.org/2000/svg" xmlns:xlink="http://www.w3.org/1999/xlink" x="0px" y="0px"
	 viewBox="0 0 485.8 457.5" style="enable-background:new 0 0 485.8 457.5;" xml:space="preserve">
<style type="text/css">
	.st0{fill:#4D4D4D;stroke:#000000;stroke-miterlimit:10;}
	.st1{fill:#FFFFFF;}
	.st2{fill:#4D4D4D;}
	.st3{fill:#FFFFFF;stroke:#4D4D4D;stroke-width:3;stroke-miterlimit:1;}
</style>
<rect id="XMLID_1_" x="0.5" y="0.5" class="st0" width="484.8" height="456.5"/>
<path id="XMLID_49_" class="st1" d="M242.7,227c-63.9,0-116.2,49.8-120.2,112.7h240.5C358.9,276.8,306.6,227,242.7,227z"/>
<circle id="XMLID_48_" class="st2" cx="242.7" cy="191.8" r="75.3"/>
<circle id="XMLID_47_" class="st1" cx="242.7" cy="191.8" r="60.3"/>
<polygon id="XMLID_50_" class="st2" points="256.5,264.6 242.7,288.6 228.8,264.6 "/>
<polygon id="XMLID_51_" class="st2" points="220.2,340 242.7,260 265.2,340 "/>
<path id="XMLID_52_" class="st3" d="M227.7,211.7h-15c-2.8,0-5-2.3-5-5v-10c0-2.7,2.2-5,5-5h15c2.8,0,5,2.3,5,5v10
	C232.7,209.4,230.4,211.7,227.7,211.7z"/>
<path id="XMLID_53_" class="st3" d="M274,211.7h-15c-2.8,0-5-2.3-5-5v-10c0-2.7,2.2-5,5-5h15c2.8,0,5,2.3,5,5v10
	C279,209.4,276.8,211.7,274,211.7z"/>
<rect id="XMLID_54_" x="176.7" y="194.9" class="st2" width="31" height="2.1"/>
<rect id="XMLID_55_" x="279" y="193.8" class="st2" width="31" height="2.1"/>
<rect id="XMLID_56_" x="231" y="196" class="st2" width="23.3" height="2.1"/>
<g id="XMLID_15_">
</g>
<g id="XMLID_16_">
</g>
<g id="XMLID_17_">
</g>
<g id="XMLID_18_">
</g>
<g id="XMLID_19_">
</g>
<g id="XMLID_20_">
</g>
<g id="XMLID_21_">
</g>
<g id="XMLID_22_">
</g>
<g id="XMLID_23_">
</g>
<g id="XMLID_24_">
</g>
<g id="XMLID_25_">
</g>
</svg>
