<?xml version="1.0" encoding="utf-8"?>
<!-- Generator: Adobe Illustrator 19.0.0, SVG Export Plug-In . SVG Version: 6.00 Build 0)  -->
<svg version="1.0" id="Layer_1" xmlns="http://www.w3.org/2000/svg" xmlns:xlink="http://www.w3.org/1999/xlink" x="0px" y="0px"
	 viewBox="0 0 421 421" style="enable-background:new 0 0 421 421;" xml:space="preserve">
<style type="text/css">
	.st0{fill:#FFFFFF;stroke:#C4E2F7;stroke-width:21;stroke-miterlimit:10;}
	.st1{fill:#666666;}
	.st2{fill:#FFFFFF;}
</style>
<rect id="XMLID_1_" x="10.5" y="10.5" class="st0" width="400" height="400"/>
<path id="XMLID_49_" class="st1" d="M207.3,123.5c-37.9,0-68.9,29.5-71.3,66.8h142.5C276.1,153,245.2,123.5,207.3,123.5z"/>
<circle id="XMLID_48_" class="st2" cx="207.3" cy="102.7" r="44.6"/>
<circle id="XMLID_47_" class="st1" cx="207.3" cy="102.7" r="35.7"/>
<path id="XMLID_45_" class="st1" d="M119.2,296.2c-37.9,0-68.9,29.5-71.3,66.8h142.5C188.1,325.7,157.1,296.2,119.2,296.2z"/>
<circle id="XMLID_42_" class="st2" cx="119.2" cy="275.3" r="44.6"/>
<circle id="XMLID_41_" class="st1" cx="119.2" cy="275.3" r="35.7"/>
<path id="XMLID_46_" class="st1" d="M301.8,295.5c-37.9,0-68.9,29.5-71.3,66.8h142.5C370.7,325,339.7,295.5,301.8,295.5z"/>
<circle id="XMLID_44_" class="st2" cx="301.8" cy="274.7" r="44.6"/>
<circle id="XMLID_43_" class="st1" cx="301.8" cy="274.7" r="35.7"/>
<g id="XMLID_50_">
</g>
<g id="XMLID_51_">
</g>
<g id="XMLID_52_">
</g>
<g id="XMLID_53_">
</g>
<g id="XMLID_54_">
</g>
<g id="XMLID_55_">
</g>
<g id="XMLID_56_">
</g>
<g id="XMLID_57_">
</g>
<g id="XMLID_58_">
</g>
<g id="XMLID_59_">
</g>
<g id="XMLID_60_">
</g>
</svg>
