<?xml version="1.0" encoding="utf-8"?>
<!-- Generator: Adobe Illustrator 19.0.0, SVG Export Plug-In . SVG Version: 6.00 Build 0)  -->
<svg version="1.0" id="Layer_1" xmlns="http://www.w3.org/2000/svg" xmlns:xlink="http://www.w3.org/1999/xlink" x="0px" y="0px"
	 viewBox="0 0 485.8 457.5" style="enable-background:new 0 0 485.8 457.5;" xml:space="preserve">
<style type="text/css">
	.st0{fill:#4D4D4D;stroke:#000000;stroke-miterlimit:10;}
	.st1{fill:#FFFFFF;}
	.st2{fill:#4D4D4D;}
</style>
<rect id="XMLID_1_" x="0.5" y="0.5" class="st0" width="484.8" height="456.5"/>
<path id="XMLID_45_" class="st1" d="M239.7,141.8c-37.9,0-68.9,29.5-71.3,66.8h142.5C308.5,171.3,277.5,141.8,239.7,141.8z"/>
<circle id="XMLID_39_" class="st2" cx="239.7" cy="120.9" r="44.6"/>
<circle id="XMLID_38_" class="st1" cx="239.7" cy="120.9" r="35.7"/>
<path id="XMLID_42_" class="st1" d="M151.6,314.5c-37.9,0-68.9,29.5-71.3,66.8h142.5C220.4,344,189.5,314.5,151.6,314.5z"/>
<circle id="XMLID_41_" class="st2" cx="151.6" cy="293.6" r="44.6"/>
<circle id="XMLID_40_" class="st1" cx="151.6" cy="293.6" r="35.7"/>
<path id="XMLID_46_" class="st1" d="M334.2,313.8c-37.9,0-68.9,29.5-71.3,66.8h142.5C403.1,343.3,372.1,313.8,334.2,313.8z"/>
<circle id="XMLID_44_" class="st2" cx="334.2" cy="293" r="44.6"/>
<circle id="XMLID_43_" class="st1" cx="334.2" cy="293" r="35.7"/>
<g id="XMLID_15_">
</g>
<g id="XMLID_16_">
</g>
<g id="XMLID_17_">
</g>
<g id="XMLID_18_">
</g>
<g id="XMLID_19_">
</g>
<g id="XMLID_20_">
</g>
<g id="XMLID_21_">
</g>
<g id="XMLID_22_">
</g>
<g id="XMLID_23_">
</g>
<g id="XMLID_24_">
</g>
<g id="XMLID_25_">
</g>
</svg>
