<?xml version="1.0" encoding="utf-8"?>
<!-- Generator: Adobe Illustrator 19.0.0, SVG Export Plug-In . SVG Version: 6.00 Build 0)  -->
<svg version="1.1" xmlns="http://www.w3.org/2000/svg" xmlns:xlink="http://www.w3.org/1999/xlink" x="0px" y="0px"
	 viewBox="0 0 1080 1920" style="enable-background:new 0 0 1080 1920;" xml:space="preserve">
<style type="text/css">
	.st0{fill:#3D80B0;}
	.st1{fill:#FFFFFF;}
	.st2{fill:#C0E4FF;}
	.st3{fill:#FFFFFF;stroke:#C0E4FF;stroke-width:16;stroke-miterlimit:1;}
	.st4{fill:#FFFFFF;stroke:#C0E4FF;stroke-width:17;stroke-miterlimit:1;}
	.st5{fill:#FFFFFF;stroke:#C0E4FF;stroke-width:12;stroke-miterlimit:1;}
	.st6{fill:#534741;}
	.st7{font-family:'Microsoft-Yi-Baiti';}
	.st8{font-size:36px;}
	.st9{font-size:24px;}
	.st10{fill:#4D4D4D;}
	.st11{fill:#3D80B0;stroke:#3D80B0;stroke-width:7;stroke-miterlimit:1;}
	.st12{fill:#4D4D4D;stroke:#4D4D4D;stroke-width:4;stroke-miterlimit:1;}
	.st13{fill:#666666;}
	.st14{fill:#666666;stroke:#FFFFFF;stroke-width:3;stroke-miterlimit:1;}
</style>
<font horiz-adv-x="2048">
<!-- Microsoft Yi Baiti is a trademark of the Microsoft group of companies. -->
<!-- Copyright: Copyright 2017 Adobe System Incorporated. All rights reserved. -->
<font-face font-family="Microsoft-Yi-Baiti" units-per-em="2048" underline-position="6" underline-thickness="102"/>
<missing-glyph horiz-adv-x="731" d="M91,0l0,1461l549,0l0,-1461M183,91l365,0l0,1279l-365,0z"/>
<glyph unicode=" " horiz-adv-x="900"/>
<glyph unicode="!" horiz-adv-x="646" d="M396,873l-40,-584l-66,0l-40,584l0,222l146,0M396,0l-146,0l0,146l146,0z"/>
<glyph unicode="&quot;" horiz-adv-x="724" d="M305,1095l-35,-305l-83,0l-36,305M572,1095l-35,-305l-82,0l-37,305z"/>
<glyph unicode="#" horiz-adv-x="1314" d="M1113,775C1110,759 1107,747 1105,739C1103,731 1101,721 1098,709l-207,0l-83,-322l214,0C1019,370 1016,358 1013,350C1010,341 1008,331 1005,319l-217,0C777,269 764,216 751,161C738,105 725,51 714,0l-59,0l75,319l-266,0C452,269 440,216 427,161C414,105 401,51 389,0l-58,0l75,319l-205,0C204,335 207,347 209,356C211,365 213,375 216,387l208,0l84,322l-215,0C296,724 299,736 301,745C303,754 305,764 308,775l219,0C538,823 551,875 564,930C577,985 590,1037 601,1086l57,0l-75,-311l267,0C861,823 874,874 887,929C900,984 913,1036 924,1086l59,0l-71,-311M835,709l-272,0l-84,-322l268,0z"/>
<glyph unicode="$" horiz-adv-x="856" d="M804,277C804,235 796,196 779,161C762,125 738,94 709,68C679,42 644,21 603,6C562,-9 518,-18 471,-20l0,-141l-55,0l0,141C375,-15 337,-4 302,13C267,30 236,51 210,77C183,102 162,131 146,164C129,196 120,230 117,265l86,0C206,211 226,166 265,131C304,95 354,73 416,64l0,487C379,560 345,574 313,593C281,612 253,634 229,659C205,684 186,710 173,739C159,768 152,797 152,826C152,909 175,975 221,1026C266,1076 331,1106 416,1115l0,132l55,0l0,-131C552,1112 631,1086 708,1037l-64,-64C617,990 589,1004 560,1015C531,1025 502,1031 471,1034l0,-416C517,607 560,591 601,569C641,547 676,521 707,491C737,461 761,428 778,391C795,354 804,316 804,277M719,277C719,306 715,333 707,357C699,381 686,403 667,424C648,445 622,464 591,482C559,499 519,517 471,534l0,-473C504,64 535,71 565,84C595,97 621,113 644,133C667,152 685,174 699,199C712,224 719,250 719,277M416,1031C391,1026 368,1018 347,1007C325,996 306,982 290,965C274,948 261,928 252,905C243,882 238,855 238,826C238,745 297,681 416,636z"/>
<glyph unicode="%" horiz-adv-x="1213" d="M911,561C983,561 1040,536 1081,486C1122,435 1142,364 1142,272C1142,179 1122,108 1081,57C1040,6 983,-20 911,-20C840,-20 784,5 743,56C702,107 682,179 682,272C682,364 702,435 743,486C784,536 840,561 911,561M301,1115C336,1115 368,1108 397,1095C425,1082 449,1063 469,1038C488,1013 503,982 514,946C525,910 530,869 530,823C530,730 510,659 469,609C428,559 372,534 301,534C229,534 173,559 132,609C91,659 71,730 71,823C71,916 91,988 132,1039C173,1090 229,1115 301,1115M301,594C346,594 381,612 407,649C432,685 445,743 445,823C445,904 432,962 407,999C381,1036 346,1054 301,1054C256,1054 220,1036 194,999C168,962 155,904 155,823C155,743 168,685 194,649C220,612 256,594 301,594M911,40C956,40 992,59 1018,96C1043,133 1056,191 1056,272C1056,352 1043,410 1017,447C991,483 956,501 911,501C866,501 831,483 806,447C780,410 767,352 767,272C767,191 780,133 806,96C831,59 866,40 911,40M940,1095l-582,-1095l-87,0l582,1095z"/>
<glyph unicode="&amp;" horiz-adv-x="1130" d="M1044,71l-55,-56l-158,156C805,134 778,103 750,79C722,54 693,35 664,20C634,5 603,-5 572,-11C541,-17 509,-20 477,-20C430,-20 387,-12 346,4C305,20 270,42 240,71C210,99 186,132 169,171C152,210 143,251 143,296C143,427 218,537 368,627C318,681 280,729 255,771C230,812 217,848 217,878C217,915 223,947 236,976C248,1005 265,1029 286,1048C307,1067 333,1081 363,1091C392,1101 424,1106 458,1106C493,1106 525,1100 555,1089C585,1077 611,1061 634,1041C656,1020 673,996 686,968C699,940 705,910 705,878C705,855 700,831 689,808C678,785 663,762 644,740C625,717 602,696 575,676C548,655 518,637 485,620l327,-323C820,314 828,333 835,354C842,375 849,399 855,424C861,449 866,475 870,502C873,529 875,556 876,583l75,0C949,454 922,343 869,248M414,584C388,567 363,547 340,525C317,502 296,479 279,454C262,429 248,403 238,377C228,351 223,326 223,301C223,266 230,233 243,203C256,173 275,147 299,126C322,104 351,87 384,75C417,62 453,56 493,56C596,56 688,114 769,231M621,878C621,928 606,966 575,993C544,1020 504,1033 455,1033C428,1033 405,1029 386,1020C366,1011 350,1000 337,985C324,970 314,954 308,936C301,917 298,898 298,878C298,861 302,844 311,826C319,808 330,790 344,772C357,754 372,736 389,719C405,701 421,684 437,667C463,683 487,699 510,714C532,729 551,744 568,761C584,777 597,795 607,814C616,833 621,854 621,878z"/>
<glyph unicode="'" horiz-adv-x="311" d="M233,1095l-36,-305l-82,0l-37,305z"/>
<glyph unicode="(" horiz-adv-x="1033" d="M648,-146C545,-49 469,51 420,154C370,257 345,367 345,483C345,542 352,601 367,659C381,717 401,773 427,828C453,882 484,934 521,983C557,1032 597,1077 641,1118C651,1107 660,1098 668,1090C675,1081 684,1072 694,1061C606,966 540,871 496,775C451,678 429,581 429,483C429,431 436,379 450,327C463,274 482,223 507,174C531,124 560,77 593,32C626,-13 661,-54 699,-91z"/>
<glyph unicode=")" horiz-adv-x="1033" d="M703,483C703,369 678,260 627,155C576,50 501,-51 402,-146C392,-135 383,-126 375,-118C367,-110 358,-101 349,-91C388,-54 424,-13 457,32C490,77 518,124 543,174C567,223 586,274 600,327C613,379 620,431 620,483C620,581 598,678 553,775C508,871 442,966 355,1061C365,1072 374,1082 382,1091C389,1099 398,1108 408,1118C452,1077 492,1032 528,983C564,934 595,882 621,828C647,773 667,717 682,659C696,600 703,542 703,483z"/>
<glyph unicode="*" horiz-adv-x="1188" d="M973,487l-308,0C679,473 695,457 713,439C731,421 750,402 770,383C789,364 809,345 829,326C848,307 866,289 882,273C873,264 865,257 860,252C854,246 848,240 842,235l-221,220l0,-317l-52,0l0,318C555,441 539,425 520,406C501,387 481,367 461,347C440,326 420,306 400,286C380,265 362,247 345,230l-40,39l218,218l-307,0l0,61l311,0C512,563 495,581 476,600C457,619 438,638 418,658C398,678 378,698 359,718C340,737 322,755 305,771l39,39l225,-226l0,319l52,0l0,-315C635,602 652,618 671,637C690,656 709,675 729,695C749,715 769,735 789,755C808,775 826,793 843,810C853,800 861,792 866,787C871,782 878,776 885,769l-222,-221l310,0z"/>
<glyph unicode="+" horiz-adv-x="915" d="M758,413l-255,0l0,-259l-87,0l0,259l-259,0l0,87l259,0l0,257l87,0l0,-257l255,0z"/>
<glyph unicode="," horiz-adv-x="488" d="M317,0C317,-63 305,-113 280,-150C255,-187 219,-206 171,-206l0,68C218,-138 242,-92 242,0l-71,0l0,146l146,0z"/>
<glyph unicode="-" horiz-adv-x="915" d="M758,413l-601,0l0,87l601,0z"/>
<glyph unicode="." horiz-adv-x="488" d="M317,0l-146,0l0,146l146,0z"/>
<glyph unicode="/" horiz-adv-x="885" d="M826,1057l-649,-1104l-67,43l649,1103z"/>
<glyph unicode="0" horiz-adv-x="1050" d="M919,548C919,471 910,399 892,330C874,261 848,201 815,149C781,97 740,56 691,26C642,-5 586,-20 524,-20C462,-20 407,-5 358,26C309,57 268,98 235,150C201,202 175,262 158,331C140,400 131,472 131,548C131,624 140,696 158,765C175,834 201,894 234,946C267,997 309,1038 358,1069C407,1100 462,1115 524,1115C586,1115 642,1100 691,1070C740,1039 781,998 815,947C849,895 875,835 893,766C910,697 919,625 919,548M840,548C840,614 833,677 820,736C806,795 786,846 760,890C733,934 700,969 661,995C622,1021 576,1034 525,1034C474,1034 430,1021 391,996C352,970 319,935 292,891C265,846 245,795 232,736C218,677 211,614 211,548C211,483 218,421 231,362C244,303 264,252 291,207C317,162 350,127 389,101C428,75 474,62 525,62C577,62 623,75 662,102C701,128 734,163 761,208C787,253 807,304 820,363C833,422 840,483 840,548z"/>
<glyph unicode="1" horiz-adv-x="1050" d="M700,0l-80,0l0,890C586,868 547,850 502,835C457,820 407,812 350,811l0,80C432,894 498,913 547,947C596,981 628,1030 643,1095l57,0z"/>
<glyph unicode="2" horiz-adv-x="1050" d="M829,816C829,729 788,650 706,577l-250,-203C411,334 379,290 360,241C341,192 331,139 331,82l489,0l0,-82l-587,0C232,14 232,25 232,34C231,42 231,50 231,57C231,122 242,184 264,243C285,301 318,354 362,402l247,209C656,647 691,682 714,717C737,751 748,784 749,816C749,847 745,875 736,902C727,929 713,952 695,971C676,990 653,1006 626,1017C599,1028 567,1034 530,1034C476,1034 429,1024 389,1004C348,984 313,952 283,909l-62,43C238,978 258,1001 281,1021C304,1041 329,1058 356,1072C383,1086 411,1097 441,1104C470,1111 500,1115 530,1115C574,1115 614,1108 651,1094C688,1079 719,1059 746,1033C772,1007 792,976 807,939C822,902 829,861 829,816z"/>
<glyph unicode="3" horiz-adv-x="1050" d="M864,312C864,263 855,218 838,177C821,136 797,101 767,72C736,43 700,20 658,4C616,-12 571,-20 522,-20C474,-20 430,-13 391,0C351,13 317,31 288,55C259,79 235,108 218,142C200,176 189,214 185,257l80,0C267,229 275,203 289,179C302,154 320,133 343,116C365,99 391,85 422,75C453,65 486,60 522,60C559,60 594,66 626,78C658,90 686,107 710,129C733,150 752,176 765,207C778,237 785,271 785,308C785,347 778,381 765,411C751,440 732,465 707,485C682,505 652,520 617,530C582,540 543,545 500,545l-35,0l0,80l11,0C553,625 615,642 660,677C705,712 728,764 728,835C728,867 723,896 712,921C701,946 686,967 667,984C648,1001 625,1013 599,1022C572,1031 543,1035 512,1035C451,1035 399,1020 357,991C315,961 289,916 280,855l-79,0C208,896 221,932 239,965C257,997 279,1024 306,1047C333,1069 363,1086 398,1098C432,1109 469,1115 509,1115C556,1115 597,1108 634,1093C671,1078 702,1058 728,1033C753,1008 773,978 787,944C800,909 807,872 807,832C807,811 805,788 801,765C796,742 789,720 779,699C768,678 754,658 737,641C720,624 698,610 673,601C704,590 731,574 755,555C778,536 798,513 815,488C831,463 843,435 852,405C860,375 864,344 864,312z"/>
<glyph unicode="4" horiz-adv-x="1050" d="M898,336l-194,0l0,-336l-80,0l0,336l-472,0l0,92l438,667l114,0l0,-679l194,0M624,416l0,595l-391,-595z"/>
<glyph unicode="5" horiz-adv-x="1050" d="M871,363C871,309 864,259 849,212C834,165 811,125 781,91C750,56 712,29 667,10C622,-10 569,-20 508,-20C465,-20 424,-14 387,-2C350,10 317,28 288,51C259,74 235,102 216,137C197,171 184,210 178,255l89,0C273,221 283,192 298,167C313,142 331,122 353,107C374,91 398,79 425,72C451,64 479,60 508,60C557,60 599,69 635,86C670,103 700,126 723,155C746,183 764,215 775,251C786,286 791,323 791,360C791,399 785,434 773,467C761,500 744,528 721,552C698,576 669,595 636,608C603,621 565,628 522,628C480,628 439,621 398,606C357,591 321,568 291,536l-82,0C216,632 224,725 231,816C238,907 246,1000 254,1095l564,0l0,-80l-480,0l-37,-379C316,651 334,663 354,673C373,682 394,690 415,695C436,700 458,703 480,705C502,707 523,708 543,708C590,708 633,699 674,681C714,663 749,639 778,608C807,577 829,540 846,498C863,456 871,411 871,363z"/>
<glyph unicode="6" horiz-adv-x="1050" d="M775,337C775,373 770,408 759,441C748,474 732,503 711,528C690,553 665,573 635,588C604,603 570,610 532,610C511,610 489,607 466,600C443,593 420,583 398,571C376,559 355,545 334,529C313,512 295,495 278,476C281,339 305,235 351,165C397,95 459,60 536,60C574,60 608,68 638,84C667,99 692,120 713,146C733,171 748,201 759,234C770,267 775,302 775,337M865,347C865,298 859,251 846,207C833,162 812,123 785,90C758,57 723,30 682,10C641,-10 593,-20 539,-20C481,-20 430,-8 386,15C342,38 305,72 275,117C245,162 222,217 207,282C192,347 184,422 184,506C184,707 214,858 273,961C332,1064 425,1115 551,1115C627,1115 690,1094 741,1051C792,1008 825,947 841,867l-80,0C751,921 726,962 687,991C648,1020 600,1034 544,1034C506,1034 471,1024 440,1004C408,983 380,954 356,915C332,876 313,828 298,772C283,715 274,651 271,579C316,615 361,643 407,662C452,681 502,690 556,690C603,690 645,681 684,663C722,644 754,619 781,588C808,556 828,519 843,478C858,437 865,393 865,347z"/>
<glyph unicode="7" horiz-adv-x="1050" d="M870,1019l-404,-1019l-90,0l403,1013l-599,0l0,82l690,0z"/>
<glyph unicode="8" horiz-adv-x="1050" d="M733,848C733,877 728,903 718,926C708,948 694,967 675,982C656,997 634,1008 609,1016C583,1023 555,1027 524,1027C493,1027 465,1023 440,1016C414,1008 392,997 374,982C355,967 341,948 331,926C321,903 316,877 316,848C316,823 321,799 332,778C342,756 357,736 376,717C395,698 417,680 444,663C470,646 499,629 532,614C597,642 646,676 681,715C716,754 733,798 733,848M777,279C774,315 765,345 750,370C735,394 717,415 695,433C672,451 646,467 617,482C588,497 557,513 524,530C465,503 419,478 386,454C352,429 327,406 310,385C293,364 283,344 279,327C275,309 273,293 273,279C273,243 280,211 295,184C310,157 329,134 353,116C376,97 403,83 433,74C463,65 493,60 524,60C558,60 591,65 622,74C653,83 680,97 703,116C726,134 744,157 758,184C771,211 778,243 777,279M814,848C814,797 799,747 769,698C739,649 694,608 633,573C679,550 717,527 746,504C775,481 797,458 814,434C831,410 842,385 848,360C854,335 857,308 857,279C857,230 849,187 832,150C815,113 791,81 762,56C732,31 697,12 656,-1C615,-14 571,-20 524,-20C477,-20 433,-14 393,-1C352,12 317,31 288,56C259,81 236,113 219,150C202,187 193,230 193,279C193,336 211,389 248,438C285,487 346,531 432,570C361,611 310,654 281,701C251,748 236,797 236,848C236,890 243,927 258,960C273,992 293,1019 319,1041C344,1063 375,1080 410,1091C445,1102 483,1107 524,1107C565,1107 604,1102 639,1091C674,1080 705,1063 731,1042C757,1020 777,993 792,961C807,928 814,891 814,848z"/>
<glyph unicode="9" horiz-adv-x="1050" d="M781,598C781,670 774,733 761,788C747,842 728,887 704,924C680,961 652,988 619,1007C586,1026 550,1035 511,1035C473,1035 439,1027 409,1010C378,993 353,972 332,945C311,918 294,888 283,854C272,819 266,785 266,750C266,713 272,679 283,646C294,613 310,585 331,560C352,535 378,516 409,502C440,487 475,480 514,480C535,480 558,483 581,489C604,494 628,502 651,513C674,523 697,535 719,550C741,565 762,581 781,598M864,579C864,380 834,230 775,130C715,30 622,-20 495,-20C418,-20 355,1 304,43C253,84 221,143 208,220l82,0C294,191 302,166 314,146C325,125 340,109 359,96C377,83 398,74 423,69C448,63 475,60 504,60C542,60 577,69 609,88C641,107 669,134 694,171C719,208 739,254 755,309C770,364 780,427 784,499C767,486 749,474 730,463C711,451 690,440 667,431C644,422 618,414 591,409C564,403 533,400 500,400C453,400 411,409 372,427C333,445 300,470 273,501C246,532 224,568 209,609C194,650 186,694 186,741C186,790 193,838 208,883C222,928 243,967 270,1002C297,1037 331,1064 372,1085C412,1105 458,1115 509,1115C566,1115 617,1103 661,1080C705,1056 742,1021 772,976C802,930 825,874 841,807C856,740 864,664 864,579z"/>
<glyph unicode=":" horiz-adv-x="488" d="M317,0l-146,0l0,146l146,0M317,447l-146,0l0,146l146,0z"/>
<glyph unicode=";" horiz-adv-x="488" d="M317,447l-146,0l0,146l146,0M317,0C317,-63 305,-113 280,-150C255,-187 219,-206 171,-206l0,68C218,-138 242,-92 242,0l-71,0l0,146l146,0z"/>
<glyph unicode="&lt;" horiz-adv-x="1207" d="M1023,189C1019,171 1015,154 1011,139C1007,123 1003,106 1000,89C930,122 861,155 794,188C726,221 658,253 591,285C523,317 455,349 388,382C320,415 251,448 181,481l0,81C319,627 456,692 592,757C727,822 864,888 1001,953C1006,934 1011,917 1014,904C1017,890 1020,874 1024,856l-702,-333z"/>
<glyph unicode="=" horiz-adv-x="862" d="M703,528l-544,0l0,87l544,0M703,300l-544,0l0,87l544,0z"/>
<glyph unicode="&gt;" horiz-adv-x="1207" d="M1026,481C887,414 751,349 616,286C481,222 345,157 207,90C202,110 198,127 195,142C192,156 188,172 184,190l701,333C830,549 772,576 713,604C654,632 594,660 534,689C474,718 415,746 356,774C297,802 239,829 183,856C187,873 191,890 195,905C199,920 203,936 206,953C275,920 344,887 412,855C480,822 548,790 616,758C684,725 752,693 820,660C888,627 957,595 1026,562z"/>
<glyph unicode="?" horiz-adv-x="1167" d="M880,846C880,813 876,783 868,757C860,731 849,707 835,686C820,665 803,645 784,627C765,609 744,591 721,573C702,558 685,542 668,527C651,512 637,495 625,478C612,461 602,442 595,421C588,400 584,377 584,352l0,-93l-80,0l0,82C504,381 509,415 518,444C527,473 539,499 555,522C571,545 590,566 613,585C635,604 659,625 686,646C702,659 717,672 731,686C744,700 756,715 767,732C777,748 785,766 791,785C797,804 800,824 800,846C800,871 794,894 783,917C771,940 756,960 738,977C719,994 698,1008 675,1019C651,1030 627,1035 603,1035C570,1035 539,1029 511,1017C483,1005 459,989 438,968C417,947 401,922 389,894C376,865 369,834 367,801l-79,0C291,846 300,887 316,926C332,964 354,997 381,1025C408,1053 441,1075 479,1091C516,1107 558,1115 603,1115C642,1115 678,1108 712,1095C745,1082 775,1063 800,1039C825,1015 844,987 859,954C873,921 880,885 880,846M617,0l-146,0l0,146l146,0z"/>
<glyph unicode="@" horiz-adv-x="1512" d="M1350,490C1350,432 1345,377 1334,326C1323,275 1307,230 1287,191C1267,152 1243,121 1215,98C1187,75 1156,64 1123,64C1104,64 1085,67 1067,73C1048,78 1031,87 1015,99C998,111 984,127 971,146C958,165 947,189 938,216C906,186 869,164 828,151C787,138 746,131 705,131C666,131 630,139 599,155C568,170 541,193 519,222C497,251 480,286 469,327C457,368 451,414 451,465C451,513 459,557 474,597C489,637 510,672 537,701C563,730 594,752 630,768C666,784 705,792 747,792C773,792 802,786 833,775C864,764 898,747 936,725l0,77l81,0l0,-533C1017,229 1027,197 1046,173C1065,149 1092,137 1128,137C1151,137 1172,146 1191,165C1210,184 1227,209 1240,241C1253,272 1264,309 1272,351C1279,393 1283,438 1283,485C1283,574 1271,653 1248,724C1225,794 1191,854 1147,903C1103,952 1049,989 986,1015C923,1041 851,1054 772,1054C696,1054 625,1039 560,1008C495,977 438,936 390,883C341,830 303,769 276,699C248,628 234,554 234,475C234,390 247,313 273,242C298,171 335,111 382,60C429,9 485,-31 550,-59C615,-88 688,-102 768,-102C812,-102 854,-100 894,-95C933,-91 972,-84 1009,-74l0,-75C971,-157 932,-163 893,-166C853,-170 811,-172 768,-172C679,-172 598,-156 525,-123C451,-91 387,-46 334,12C281,69 239,138 210,218C180,297 165,384 165,478C165,569 181,654 212,733C243,812 286,880 341,939C396,997 460,1043 534,1076C607,1109 687,1126 772,1126C861,1126 941,1111 1012,1080C1083,1049 1144,1006 1194,951C1244,895 1283,828 1310,750C1337,671 1350,585 1350,490M935,649C903,664 873,678 844,690C815,702 787,708 760,708C687,708 631,688 592,649C553,609 533,549 533,468C533,384 551,322 586,281C621,240 671,219 736,219C774,219 810,226 843,241C876,256 906,275 935,299z"/>
<glyph unicode="A" horiz-adv-x="1037" d="M1009,0l-96,0l-134,352l-539,0C221,297 200,238 177,177C154,115 133,56 112,0l-85,0C63,95 99,187 134,278C169,369 203,459 238,549C273,638 308,728 343,819C378,910 413,1002 449,1096l113,0M756,415l-254,609l-241,-609z"/>
<glyph unicode="B" horiz-adv-x="1037" d="M938,307C938,208 905,132 838,79C771,26 672,0 542,0l-398,0l0,1095l396,0C650,1095 734,1074 793,1033C851,991 880,924 880,833C880,808 878,782 873,755C868,728 858,702 845,679C832,656 813,635 790,617C767,598 737,585 700,577C751,572 793,561 824,544C855,526 879,504 896,479C913,454 924,426 930,396C935,365 938,336 938,307M224,80l317,0C748,80 851,156 851,307C851,346 846,380 835,409C824,438 806,461 781,480C755,498 721,512 679,521C636,530 583,534 519,534l-295,0M224,614l294,0C615,614 687,630 733,661C779,692 802,745 802,819C802,886 781,935 738,968C695,1000 627,1016 533,1016l-309,-1z"/>
<glyph unicode="C" horiz-adv-x="1122" d="M938,802C931,835 917,865 897,894C877,922 852,947 822,968C792,989 758,1005 719,1017C680,1029 638,1035 593,1035C530,1035 472,1025 421,1004C369,983 325,953 289,913C252,872 224,822 205,762C185,701 175,631 175,551C175,471 185,401 205,340C224,279 252,227 289,186C325,145 369,113 420,92C471,71 527,60 590,60C685,60 763,81 824,124C885,166 923,228 938,309l83,0C1013,257 997,211 972,170C947,129 916,94 879,66C842,38 799,17 750,2C701,-13 649,-20 592,-20C515,-20 445,-6 384,21C322,48 269,86 226,135C183,184 149,244 126,315C103,385 91,464 91,551C91,638 103,716 126,785C149,854 183,914 227,963C270,1012 323,1049 385,1076C446,1102 515,1115 592,1115C645,1115 695,1107 743,1092C790,1077 833,1055 871,1028C909,1000 941,967 967,929C993,890 1011,848 1021,802z"/>
<glyph unicode="D" horiz-adv-x="1122" d="M1026,556C1026,185 842,0 473,0l-331,0l0,1094l331,0C658,1094 796,1050 888,961C980,872 1026,737 1026,556M941,556C941,628 934,692 920,749C905,806 880,854 844,894C808,933 760,963 700,984C639,1005 563,1015 471,1015l-249,0l0,-935l249,0C562,80 638,91 699,112C759,133 807,165 843,206C879,247 904,296 919,355C934,414 941,481 941,556z"/>
<glyph unicode="E" horiz-adv-x="1037" d="M935,0l-791,0l0,1095l764,0l0,-80l-684,0l0,-405l641,0l0,-80l-641,0l0,-450l711,0z"/>
<glyph unicode="F" horiz-adv-x="950" d="M854,1015l-629,0l0,-411l547,0l0,-80l-547,0l0,-524l-80,0l0,1095l709,0z"/>
<glyph unicode="G" horiz-adv-x="1210" d="M612,-20C534,-20 463,-6 399,21C334,48 279,87 233,137C187,186 152,246 127,317C102,387 89,465 89,551C89,638 102,716 127,785C152,854 188,914 234,963C279,1012 334,1049 397,1076C460,1102 530,1115 607,1115C667,1115 723,1108 775,1093C827,1078 873,1056 914,1029C955,1001 988,968 1015,929C1042,890 1060,847 1070,800l-86,0C979,832 966,862 946,891C925,919 899,944 866,965C833,986 795,1003 752,1016C709,1029 661,1035 609,1035C545,1035 486,1025 433,1004C380,983 334,953 296,912C257,871 227,820 206,760C185,699 174,630 174,551C174,473 185,404 206,343C227,282 257,230 296,188C334,146 380,114 434,93C487,71 546,60 611,60C702,60 780,77 847,112C914,147 970,195 1016,256l0,197l-302,0l0,80l382,0l0,-533l-46,0l-35,146C990,115 962,90 931,69C900,48 868,31 834,18C799,5 763,-5 726,-11C689,-17 651,-20 612,-20z"/>
<glyph unicode="H" horiz-adv-x="1122" d="M979,0l-81,0l0,545l-675,0l0,-545l-80,0l0,1095l80,0l0,-470l675,0l0,470l81,0z"/>
<glyph unicode="I" horiz-adv-x="432" d="M257,0l-80,0l0,1095l80,0z"/>
<glyph unicode="J" horiz-adv-x="777" d="M629,342C629,276 623,220 611,175C599,129 581,92 557,63C533,34 503,13 468,0C432,-13 390,-20 342,-20C300,-20 262,-13 228,1C194,14 165,34 141,59C117,84 99,115 86,151C73,186 67,226 67,271l80,1C150,199 168,146 201,112C233,77 280,60 342,60C374,60 403,64 429,71C454,78 476,91 494,111C512,131 526,159 535,194C544,229 549,276 549,333l0,762l80,0z"/>
<glyph unicode="K" horiz-adv-x="1037" d="M989,0l-107,0l-437,598l-223,-216l0,-382l-80,0l0,1095l80,0l0,-602l621,602l111,0l-451,-438z"/>
<glyph unicode="L" horiz-adv-x="865" d="M791,0l-645,0l0,1095l80,0l0,-1015l565,0z"/>
<glyph unicode="M" horiz-adv-x="1296" d="M1162,0l-80,0l0,964l-394,-964l-84,0l-393,964l0,-964l-80,0l0,1095l116,0l399,-995l402,995l114,0z"/>
<glyph unicode="N" horiz-adv-x="1122" d="M987,0l-105,0l-668,1000l0,-1000l-80,0l0,1095l110,0l663,-998l0,998l80,0z"/>
<glyph unicode="O" horiz-adv-x="1210" d="M606,1115C681,1115 750,1102 813,1075C876,1048 931,1010 977,961C1022,912 1058,852 1084,783C1109,714 1122,636 1122,551C1122,466 1109,389 1084,319C1059,249 1023,189 978,139C932,88 878,49 815,22C752,-6 682,-20 606,-20C530,-20 460,-6 397,22C334,49 279,88 234,138C188,188 152,248 127,318C102,388 89,466 89,551C89,637 102,715 128,784C153,853 189,913 235,962C281,1011 336,1048 399,1075C462,1102 531,1115 606,1115M605,60C668,60 726,71 779,93C832,114 877,146 916,188C955,230 985,282 1006,343C1027,404 1038,473 1038,551C1038,630 1027,699 1006,759C984,819 954,870 916,911C877,952 832,983 780,1004C727,1025 670,1035 608,1035C545,1035 487,1024 434,1003C381,982 335,951 296,910C257,869 227,818 206,758C184,698 173,629 173,551C173,473 184,404 205,343C226,282 256,230 295,188C333,146 379,114 432,93C485,71 542,60 605,60z"/>
<glyph unicode="P" horiz-adv-x="1037" d="M143,1095l398,0C594,1095 646,1091 695,1082C744,1073 788,1058 826,1035C863,1012 893,980 916,941C938,902 949,852 949,791C949,684 915,602 848,546C780,490 681,462 551,462l-328,0l0,-462l-80,0M223,542l331,0C610,542 658,547 697,558C736,569 769,584 794,605C819,626 837,651 848,682C859,712 865,747 865,787C865,836 857,875 840,905C823,935 800,958 771,975C742,991 708,1002 670,1007C632,1012 592,1015 550,1015l-327,0z"/>
<glyph unicode="Q" horiz-adv-x="1210" d="M606,1115C681,1115 750,1102 813,1075C876,1048 931,1010 977,961C1022,912 1058,852 1084,783C1109,714 1122,636 1122,551C1122,460 1108,377 1079,304C1050,231 1010,169 958,118l173,-136C1121,-31 1113,-41 1106,-50C1099,-59 1091,-68 1084,-77l-186,145C857,39 813,18 764,3C715,-12 662,-20 606,-20C530,-20 460,-6 397,22C334,49 279,88 234,138C188,188 152,248 127,318C102,388 89,466 89,551C89,637 102,715 128,784C153,853 189,913 235,962C281,1011 336,1048 399,1075C462,1102 531,1115 606,1115M605,60C648,60 688,65 726,76C764,86 799,101 832,120l-121,95C722,228 731,239 738,248C744,256 751,265 760,275l136,-108C941,209 976,262 1001,327C1026,391 1038,466 1038,551C1038,630 1027,699 1006,759C984,819 954,870 916,911C877,952 832,983 780,1004C727,1025 670,1035 608,1035C545,1035 487,1024 434,1003C381,982 335,951 296,910C257,869 227,818 206,758C184,698 173,629 173,551C173,473 184,404 205,343C226,282 256,230 295,188C333,146 379,114 432,93C485,71 542,60 605,60z"/>
<glyph unicode="R" horiz-adv-x="1122" d="M1021,0l-88,0l-109,291C813,319 802,345 789,370C776,395 760,416 743,435C726,453 706,467 684,478C661,489 635,494 605,494l-383,0l0,-494l-80,0l0,1095l493,0C681,1095 726,1091 769,1083C812,1074 850,1059 884,1038C917,1017 944,987 964,950C984,912 994,864 994,805C994,768 990,734 981,703C972,671 958,643 940,618C921,593 898,571 870,554C841,536 808,523 770,515C791,499 808,484 821,469C834,454 846,439 856,422C865,405 874,387 882,367C889,347 898,324 908,298M222,574l380,0C656,574 702,578 741,586C780,594 812,607 837,626C862,644 880,668 892,697C904,726 910,762 910,805C910,880 886,934 839,967C791,999 720,1015 625,1015l-403,0z"/>
<glyph unicode="S" horiz-adv-x="1037" d="M545,-20C471,-20 406,-12 351,4C296,19 249,42 212,71C174,100 145,135 125,176C105,217 93,263 90,314l79,0C177,265 192,224 214,191C236,158 263,132 296,113C328,94 365,80 406,72C447,64 491,60 538,60C587,60 631,65 670,76C709,86 742,101 770,121C797,140 818,164 833,192C848,219 855,250 855,285C855,322 849,353 836,378C823,403 802,424 772,443C742,462 703,478 654,493C605,508 544,523 471,538C411,551 360,567 317,584C274,601 238,622 210,645C182,668 161,694 148,724C135,753 128,788 128,827C128,870 137,909 155,944C173,979 199,1010 232,1035C265,1060 304,1080 351,1094C397,1108 448,1115 504,1115C560,1115 611,1109 658,1096C705,1083 746,1064 781,1039C816,1014 844,984 866,949C887,914 901,874 907,829l-77,0C823,858 811,886 794,911C777,936 756,958 730,977C703,995 672,1009 636,1020C599,1030 558,1035 511,1035C413,1035 339,1017 289,981C238,945 213,896 213,833C213,804 218,779 227,758C236,737 252,718 275,701C297,684 326,669 363,656C400,643 445,630 500,619C532,612 565,605 599,598C633,591 666,582 699,572C731,562 762,550 791,535C820,520 846,502 868,481C889,460 907,434 920,405C933,375 939,340 939,299C939,252 929,210 910,171C890,132 863,98 828,70C793,41 751,19 703,4C654,-12 602,-20 545,-20z"/>
<glyph unicode="T" horiz-adv-x="950" d="M896,1015l-383,0l0,-1015l-80,0l0,1015l-379,0l0,80l842,0z"/>
<glyph unicode="U" horiz-adv-x="1122" d="M561,-20C496,-20 440,-13 394,1C347,14 309,33 278,56C247,79 223,107 205,138C187,169 173,203 164,238C155,273 149,310 147,348C144,386 143,423 143,459l0,636l80,0l0,-633C223,379 231,311 246,259C261,206 283,165 312,136C341,107 376,87 418,76C459,65 507,60 561,60C616,60 664,65 707,76C749,87 784,107 813,137C841,166 862,207 877,259C892,311 899,379 899,462l0,633l80,0l0,-636C979,384 973,316 960,257C947,198 925,148 894,107C863,66 820,34 766,13C712,-9 644,-20 561,-20z"/>
<glyph unicode="V" horiz-adv-x="1037" d="M998,1095l-429,-1095l-103,0l-429,1095l89,0l392,-995l392,995z"/>
<glyph unicode="W" horiz-adv-x="1467" d="M1435,1095l-285,-1095l-120,0l-300,990l-290,-990l-120,0l-283,1095l85,0l258,-990l290,990l120,0l300,-990l260,990z"/>
<glyph unicode="X" horiz-adv-x="1037" d="M179,1095l349,-481l349,481l99,0l-399,-548l398,-547l-98,0l-349,479l-349,-479l-98,0l398,547l-399,548z"/>
<glyph unicode="Y" horiz-adv-x="1037" d="M988,1095l-428,-625l0,-470l-80,0l0,470l-432,625l94,0l378,-541l375,541z"/>
<glyph unicode="Z" horiz-adv-x="950" d="M890,0l-842,0l0,106l739,909l-674,0l0,80l756,0l0,-107l-740,-908l761,0z"/>
<glyph unicode="[" horiz-adv-x="648" d="M477,-173l-304,0l0,1268l304,0l0,-82l-217,0l0,-1104l217,0z"/>
<glyph unicode="\" horiz-adv-x="832" d="M728,-10l-67,-40l-565,961l67,40z"/>
<glyph unicode="]" horiz-adv-x="648" d="M477,-173l-304,0l0,82l217,0l0,1104l-217,0l0,82l304,0z"/>
<glyph unicode="^" horiz-adv-x="789" d="M635,859l-49,-58l-191,162l-192,-162l-49,58l241,196z"/>
<glyph unicode="_" horiz-adv-x="793" d="M797,-198l-799,0l0,63l799,0z"/>
<glyph unicode="`" horiz-adv-x="495" d="M370,850l-89,0l-146,186l146,0z"/>
<glyph unicode="a" horiz-adv-x="850" d="M636,100C609,76 582,56 556,41C530,25 505,13 480,4C455,-5 430,-12 405,-15C380,-18 355,-20 330,-20C296,-20 264,-15 235,-4C206,6 180,21 159,40C138,59 121,82 109,109C96,136 90,165 90,198C90,287 128,356 204,405C279,454 393,479 544,479l92,0C636,513 634,544 630,573C626,602 617,627 602,648C587,669 566,685 537,697C508,709 469,715 420,715C347,715 293,704 257,681C220,658 199,624 192,578l-79,0C121,651 150,706 199,742C248,777 322,795 419,795C473,795 519,788 557,775C594,762 625,743 649,718C672,693 689,662 700,627C711,591 716,551 716,506l0,-506l-80,0M636,399l-121,0C399,399 313,382 256,349C199,316 170,268 170,206C170,160 188,124 224,99C260,73 309,60 372,60C399,60 426,64 452,73C477,81 501,92 524,105C547,118 568,133 587,150C606,166 622,182 636,197z"/>
<glyph unicode="b" horiz-adv-x="850" d="M215,651C236,679 257,702 280,721C303,739 325,754 348,765C371,776 393,783 414,788C435,793 456,795 475,795C523,795 566,786 603,767C640,748 672,721 697,686C722,651 742,608 755,559C768,510 775,455 775,395C775,332 767,275 751,224C735,173 713,129 686,93C658,57 625,29 588,10C550,-10 509,-20 466,-20C428,-20 387,-12 342,3C297,18 255,44 215,81l0,-81l-80,0l0,1095l80,0M215,185C251,147 289,117 328,94C367,71 410,60 457,60C529,60 587,88 630,145C673,202 695,285 695,395C695,500 675,580 634,634C593,688 537,715 464,715C416,715 372,701 332,672C291,643 252,603 215,551z"/>
<glyph unicode="c" horiz-adv-x="764" d="M429,-20C378,-20 331,-11 289,7C246,25 210,51 180,86C149,121 126,163 109,214C92,265 84,323 84,388C84,452 92,509 109,560C125,611 148,653 179,688C209,723 245,749 288,768C330,786 377,795 429,795C466,795 501,790 534,780C566,770 595,755 620,736C645,717 666,693 683,664C700,635 711,603 718,566l-78,0C637,590 629,611 618,630C606,649 591,664 572,677C553,690 532,699 508,706C483,712 457,715 429,715C390,715 354,708 321,695C288,681 260,660 237,633C214,606 196,572 183,531C170,490 164,442 164,388C164,333 170,286 183,245C196,204 214,169 237,142C260,115 288,94 321,81C354,67 390,60 429,60C455,60 480,63 504,70C528,76 550,85 569,98C588,110 603,125 616,144C629,162 637,183 640,208l78,0C711,171 699,138 682,110C665,81 644,57 619,38C594,19 565,4 533,-5C500,-15 466,-20 429,-20z"/>
<glyph unicode="d" horiz-adv-x="850" d="M639,107C615,79 592,57 569,40C546,23 523,11 502,2C480,-7 459,-13 439,-16C418,-19 399,-20 380,-20C331,-20 288,-10 251,9C214,28 182,56 157,91C132,126 113,168 100,217C87,266 80,321 80,382C80,446 88,504 104,555C119,606 141,649 169,685C196,720 229,748 267,767C304,786 345,795 388,795C407,795 426,794 445,792C464,790 484,786 505,780C526,773 547,764 570,751C592,738 615,721 639,700l0,395l80,0l0,-1095l-80,0M639,603C603,640 566,668 527,687C488,706 444,715 397,715C361,715 329,708 300,695C271,681 246,660 225,633C204,605 188,570 177,529C166,487 160,438 160,382C160,277 180,197 221,142C262,87 318,60 391,60C439,60 483,73 523,100C563,126 602,165 639,217z"/>
<glyph unicode="e" horiz-adv-x="850" d="M440,-20C386,-20 337,-11 293,8C249,26 211,53 180,88C148,123 123,165 106,216C89,267 80,324 80,389C80,452 88,508 105,559C122,609 145,652 176,687C207,722 243,748 285,767C327,786 374,795 425,795C478,795 525,786 568,767C611,748 647,722 677,687C707,652 730,609 746,559C762,508 770,451 770,388l0,-18l-610,0C164,317 174,272 189,233C204,194 224,162 249,137C274,111 302,92 335,79C367,66 402,60 440,60C467,60 493,63 520,70C547,76 571,85 593,98C614,111 632,126 647,145C662,164 670,185 673,209l79,0C745,172 732,140 713,112C694,83 671,59 644,40C617,20 586,5 551,-5C516,-15 479,-20 440,-20M689,450C676,539 646,605 599,649C552,693 494,715 425,715C391,715 359,710 330,699C301,688 275,672 252,650C229,628 209,600 194,567C178,534 167,495 160,450z"/>
<glyph unicode="f" horiz-adv-x="425" d="M241,695l0,-695l-80,0l0,695l-120,0l0,80l120,0l0,90C161,1025 225,1105 352,1105C365,1105 379,1105 392,1104C405,1103 416,1102 425,1101l0,-77C420,1025 415,1025 411,1025C407,1025 403,1025 400,1025C371,1025 346,1022 326,1017C305,1012 289,1003 276,990C263,977 254,961 249,940C244,919 241,894 241,863l0,-88l147,0l0,-80z"/>
<glyph unicode="g" horiz-adv-x="850" d="M719,46C719,-16 712,-69 699,-112C686,-156 666,-192 640,-219C613,-246 580,-266 540,-279C500,-292 454,-298 401,-298C357,-298 317,-293 282,-283C247,-274 216,-260 191,-242C166,-224 146,-202 132,-175C117,-148 109,-118 107,-84l80,0C190,-130 209,-164 244,-185C279,-207 330,-218 398,-218C438,-218 473,-213 503,-203C533,-194 558,-178 578,-156C598,-134 613,-105 624,-69C634,-33 639,11 639,64l0,49C613,82 589,58 566,41C543,23 520,10 499,1C478,-8 457,-14 438,-16C418,-19 399,-20 380,-20C331,-20 288,-10 251,9C214,28 182,56 157,91C132,126 113,168 100,217C87,266 80,321 80,382C80,446 88,504 104,555C119,606 141,649 169,685C196,720 229,748 267,767C304,786 345,795 388,795C407,795 426,794 446,791C466,788 487,784 508,777C529,770 551,760 573,748C595,736 617,721 639,702l0,73l80,0M639,603C603,640 566,668 527,687C488,706 444,715 397,715C361,715 329,708 300,695C271,681 246,660 225,633C204,605 188,570 177,529C166,487 160,438 160,382C160,277 180,197 221,142C262,87 318,60 391,60C439,60 483,73 523,100C563,126 602,165 639,217z"/>
<glyph unicode="h" horiz-adv-x="850" d="M211,660C236,689 261,712 286,730C310,748 334,762 357,771C380,780 402,787 423,790C444,793 463,795 482,795C641,795 721,701 721,513l0,-513l-80,0l0,506C641,542 638,573 632,600C625,626 615,648 601,665C586,682 568,694 545,703C522,711 493,715 460,715C416,715 374,702 334,676C293,650 252,613 211,566l0,-566l-80,0l0,1095l80,0z"/>
<glyph unicode="i" horiz-adv-x="348" d="M217,0l-80,0l0,775l80,0M218,970l-80,0l0,125l80,0z"/>
<glyph unicode="j" horiz-adv-x="348" d="M218,-33C218,-88 214,-133 205,-167C196,-202 184,-229 169,-248C154,-267 135,-280 113,-287C91,-294 67,-298 40,-298C17,-298 -3,-297 -22,-295l0,85C-18,-211 -14,-211 -10,-211C-7,-211 -3,-211 0,-211C28,-211 51,-209 69,-205C87,-201 101,-193 111,-180C121,-167 128,-149 132,-124C136,-100 138,-68 138,-28l0,805l80,0M218,970l-80,0l0,125l80,0z"/>
<glyph unicode="k" horiz-adv-x="764" d="M720,0l-100,0l-282,437l-127,-124l0,-313l-80,0l0,1095l80,0l0,-681l372,363l104,0l-294,-286z"/>
<glyph unicode="l" horiz-adv-x="348" d="M217,0l-80,0l0,1095l80,0z"/>
<glyph unicode="m" horiz-adv-x="1274" d="M1152,0l-80,0l0,506C1072,580 1061,633 1038,666C1015,699 974,715 916,715C873,715 832,702 792,676C751,649 712,612 674,564l0,-564l-80,0l0,506C594,543 592,574 587,601C582,628 573,649 561,666C549,683 533,695 514,703C494,711 470,715 441,715C399,715 359,702 321,676C283,649 245,612 206,564l0,-564l-80,0l0,775l80,0l0,-115C233,690 258,714 282,732C305,749 328,763 349,772C370,781 390,788 409,791C428,794 446,795 463,795C513,795 556,783 591,760C626,737 652,701 668,653C688,681 709,704 732,723C754,741 777,755 800,766C823,777 846,784 869,789C892,793 915,795 937,795C1080,795 1152,701 1152,513z"/>
<glyph unicode="n" horiz-adv-x="850" d="M205,660C231,691 257,715 282,733C307,751 331,765 355,774C378,783 401,789 422,792C443,794 463,795 482,795C641,795 721,701 721,513l0,-513l-80,0l0,506C641,542 638,573 632,600C625,626 615,648 601,665C586,682 568,694 545,703C522,711 493,715 460,715C416,715 373,702 331,676C288,650 246,613 205,566l0,-566l-80,0l0,775l80,0z"/>
<glyph unicode="o" horiz-adv-x="850" d="M425,795C478,795 525,786 568,768C611,749 647,723 677,688C707,653 730,610 746,560C762,509 770,452 770,389C770,324 762,267 746,216C729,165 706,123 676,88C646,53 610,26 567,8C524,-11 477,-20 425,-20C373,-20 326,-11 284,7C241,25 205,52 175,87C145,122 122,164 105,215C88,266 80,324 80,389C80,453 88,510 105,561C121,611 144,653 174,688C204,723 240,749 283,768C326,786 373,795 425,795M425,60C464,60 500,67 533,81C565,94 593,115 616,143C639,170 658,205 671,246C684,287 690,334 690,389C690,443 684,491 671,532C658,573 639,607 616,634C593,661 565,681 533,695C500,708 464,715 425,715C385,715 349,708 317,695C284,681 256,661 233,634C210,607 192,573 179,532C166,491 160,443 160,389C160,334 166,287 179,246C192,205 210,170 233,143C256,115 284,94 317,81C349,67 385,60 425,60z"/>
<glyph unicode="p" horiz-adv-x="850" d="M205,660C230,691 255,715 279,733C302,751 325,765 347,774C369,783 390,789 411,792C431,795 451,796 470,796C518,796 561,786 598,767C635,748 667,721 692,686C717,651 737,608 750,559C763,510 770,455 770,395C770,332 762,275 747,224C731,173 709,129 682,93C654,57 621,29 584,10C546,-10 505,-20 461,-20C442,-20 423,-19 403,-17C383,-16 362,-12 341,-5C320,2 298,12 275,25C252,38 229,55 205,77l0,-362l-80,0l0,1060l80,0M205,174C277,98 360,60 453,60C489,60 522,67 551,82C580,96 604,117 625,145C646,173 662,208 673,250C684,291 690,340 690,395C690,500 670,580 630,634C589,688 532,715 459,715C363,715 278,663 205,560z"/>
<glyph unicode="q" horiz-adv-x="850" d="M725,-285l-80,0l0,392C622,78 598,56 575,39C551,22 528,10 505,1C482,-8 461,-13 440,-16C419,-19 399,-20 380,-20C331,-20 288,-10 251,9C214,28 182,56 157,91C132,126 113,168 100,217C87,266 80,321 80,382C80,446 88,504 104,555C119,606 141,649 169,685C196,720 229,748 267,767C304,786 345,795 388,795C407,795 426,794 446,793C466,791 487,787 508,780C529,773 552,764 575,752C598,739 621,722 645,701l0,74l80,0M645,603C572,678 490,715 397,715C361,715 329,708 300,695C271,681 246,660 225,633C204,605 188,570 177,529C166,487 160,438 160,382C160,277 180,197 221,142C262,87 318,60 391,60C486,60 570,112 645,217z"/>
<glyph unicode="r" horiz-adv-x="509" d="M485,713C478,714 470,715 461,715C453,715 443,715 432,715C409,715 387,710 366,701C345,692 324,680 305,665C286,650 268,633 251,614C234,595 220,575 208,555l0,-555l-80,0l0,775l80,0l0,-107C231,695 253,716 276,733C298,750 320,763 341,772C362,781 382,788 401,791C420,794 438,795 454,795C459,795 464,795 469,795C474,794 479,794 485,793z"/>
<glyph unicode="s" horiz-adv-x="764" d="M386,-20C196,-20 92,56 75,209l81,0C162,162 184,126 221,100C258,73 312,60 385,60C420,60 451,64 478,72C505,79 527,90 545,103C562,116 575,131 584,149C593,167 597,186 597,207C597,228 594,245 587,260C580,275 567,288 549,300C530,312 505,324 474,335C442,346 401,357 352,370C310,381 273,392 240,403C207,414 180,428 158,445C135,462 118,482 107,506C96,529 90,559 90,594C90,625 97,653 110,678C123,703 141,724 164,741C187,758 216,772 249,781C282,790 319,795 360,795C452,795 522,780 570,749C617,718 644,669 649,602l-81,0C563,641 544,669 513,688C481,706 434,715 371,715C342,715 315,712 290,707C265,702 244,694 227,684C209,673 195,660 185,645C175,629 170,611 170,591C170,580 172,568 176,556C180,544 190,532 207,519C223,506 247,494 280,481C313,468 357,454 414,440C459,429 498,417 531,405C564,392 591,378 613,361C634,344 650,324 661,301C672,278 677,252 677,221C677,187 670,155 657,126C643,96 624,70 599,49C574,28 543,11 507,-1C471,-14 431,-20 386,-20z"/>
<glyph unicode="t" horiz-adv-x="425" d="M381,-7C370,-8 358,-9 347,-10C336,-11 324,-11 313,-11C278,-11 251,-6 230,4C209,13 193,28 182,47C171,66 163,91 160,120C157,149 155,182 155,221l0,474l-99,0l0,80l99,0l0,203l80,0l0,-203l127,0l0,-80l-127,0l0,-481C235,182 237,157 242,138C247,119 254,104 263,94C272,83 284,77 298,74C311,71 327,69 344,69C351,69 358,69 363,69C368,69 374,69 381,70z"/>
<glyph unicode="u" horiz-adv-x="850" d="M645,104C626,81 604,61 580,46C555,30 531,17 506,8C481,-2 456,-9 432,-13C407,-18 385,-20 366,-20C207,-20 128,74 128,263l0,512l80,0l0,-505C208,197 222,144 249,111C276,77 322,60 389,60C437,60 482,73 525,100C567,127 607,165 645,214l0,561l80,0l0,-775l-80,0z"/>
<glyph unicode="v" horiz-adv-x="764" d="M712,775l-294,-775l-72,0l-294,775l81,0l249,-665l250,665z"/>
<glyph unicode="w" horiz-adv-x="1103" d="M1068,775l-218,-775l-100,0l-199,650l-191,-650l-100,0l-225,775l90,0l185,-655l191,655l100,0l199,-655l179,655z"/>
<glyph unicode="x" horiz-adv-x="764" d="M624,0l-225,318l-225,-318l-97,0l273,388l-273,387l98,0l224,-318l224,318l98,0l-273,-387l273,-388z"/>
<glyph unicode="y" horiz-adv-x="764" d="M712,775l-282,-789C413,-61 395,-102 378,-137C360,-172 341,-202 320,-226C299,-250 277,-268 252,-280C227,-292 199,-298 168,-298C157,-298 147,-298 137,-297C127,-296 117,-295 107,-294l0,86C112,-209 118,-209 124,-209C130,-209 136,-209 143,-209C189,-209 228,-193 261,-161C294,-130 322,-78 347,-7l-295,782l88,0l253,-676l232,676z"/>
<glyph unicode="z" horiz-adv-x="764" d="M679,680l-537,-600l562,0l0,-80l-646,0l0,95l528,600l-499,0l0,80l592,0z"/>
<glyph unicode="{" horiz-adv-x="543" d="M476,-171l-58,0C339,-171 289,-146 268,-96C261,-79 255,-49 252,-8C249,33 247,85 247,150C247,236 232,301 203,345C173,388 128,410 67,410l0,103C128,513 173,535 203,579C232,623 247,688 247,774C247,903 254,984 268,1018C289,1069 339,1095 418,1095l58,0l0,-78l-40,0C409,1017 388,1013 372,1006C355,999 343,987 334,971C325,954 319,933 316,908C313,882 311,851 311,815C311,763 310,719 307,683C304,647 300,619 294,599C278,542 241,496 184,461C245,425 283,373 299,306C303,288 306,259 308,220C309,181 310,130 311,69C311,40 312,15 315,-5C318,-26 323,-43 331,-56C339,-69 350,-79 364,-85C377,-91 395,-94 417,-94l59,0z"/>
<glyph unicode="|" horiz-adv-x="489" d="M283,-53l-77,0l0,1148l77,0z"/>
<glyph unicode="}" horiz-adv-x="542" d="M74,-94l59,0C155,-94 173,-91 187,-85C200,-79 211,-69 219,-56C227,-43 232,-26 235,-5C238,15 239,40 239,69C239,191 243,270 251,306C266,373 304,424 366,461C309,496 272,542 255,599C244,638 239,710 239,815C239,851 238,882 235,908C232,933 226,954 217,971C208,987 195,999 178,1006C161,1013 140,1017 113,1017l-39,0l0,78l58,0C210,1095 260,1069 282,1018C295,985 302,904 302,774C302,688 317,623 347,579C377,535 422,513 483,513l0,-103C422,410 377,388 347,345C317,301 302,236 302,150C302,85 301,33 298,-8C295,-49 289,-79 282,-96C260,-146 210,-171 132,-171l-58,0z"/>
<glyph unicode="~" horiz-adv-x="1135" d="M1015,688l0,-51C1015,584 1011,537 1002,496C993,455 979,420 960,391C941,362 916,341 886,326C855,311 819,303 777,303C746,303 720,307 698,314C676,321 656,331 639,344C622,357 605,373 590,392C574,411 557,433 539,457C527,474 515,491 502,508C489,525 475,540 460,553C445,566 428,577 411,585C394,593 375,597 354,597C302,597 265,580 244,547C223,513 212,463 212,396l0,-90l-94,0l0,68C118,477 137,556 174,610C211,664 273,691 358,691C389,691 415,687 438,679C460,671 480,660 498,646C515,632 532,616 547,597C562,578 577,559 593,538C606,522 619,506 632,489C645,472 659,456 674,443C688,430 703,419 720,410C736,401 754,397 773,397C804,397 829,403 848,416C867,428 883,445 894,466C905,487 912,510 916,537C919,564 921,592 921,621l0,67z"/>
<glyph unicode="&#x201A;" horiz-adv-x="406" d="M276,0C276,-63 264,-113 239,-150C214,-187 178,-206 130,-206l0,68C177,-138 201,-92 201,0l-71,0l0,146l146,0z"/>
<glyph unicode="&#x192;" horiz-adv-x="589" d="M543,1057C516,1069 490,1075 465,1075C458,1075 451,1074 446,1072C441,1069 436,1064 432,1055C428,1046 424,1033 420,1016C416,999 412,975 407,945l-18,-107l106,0l-12,-111l-106,0l-99,-808C269,-155 254,-208 232,-241C210,-274 179,-290 138,-290C121,-290 103,-289 86,-286C68,-283 50,-279 32,-274l0,117C51,-162 68,-166 82,-169C96,-172 108,-174 119,-174C131,-174 141,-171 148,-165C155,-159 161,-150 166,-139C171,-128 174,-113 177,-96C180,-79 182,-60 185,-39l94,766l-105,0l12,111l105,0l11,110C307,997 314,1038 323,1069C332,1100 343,1125 356,1143C368,1160 382,1172 398,1179C414,1186 431,1189 449,1189C484,1189 515,1184 543,1175z"/>
<glyph unicode="&#x201E;" horiz-adv-x="572" d="M249,0C249,-63 237,-113 212,-150C187,-187 151,-206 103,-206l0,68C150,-138 174,-92 174,0l-71,0l0,146l146,0M469,0C469,-63 457,-113 432,-150C407,-187 371,-206 323,-206l0,68C371,-138 395,-92 395,0l-72,0l0,146l146,0z"/>
<glyph unicode="&#x2026;" horiz-adv-x="1293" d="M287,77C287,55 279,37 264,22C249,7 230,0 209,0C188,0 170,7 155,22C140,37 132,55 132,77C132,98 140,117 155,132C170,147 188,154 209,154C230,154 249,147 264,132C279,117 287,98 287,77M724,77C724,55 717,37 702,22C687,7 668,0 647,0C625,0 607,7 592,22C577,37 570,55 570,77C570,98 577,117 592,132C607,147 625,154 647,154C668,154 687,147 702,132C717,117 724,98 724,77M1161,77C1161,55 1154,37 1139,22C1124,7 1106,0 1085,0C1063,0 1045,7 1030,22C1015,37 1007,55 1007,77C1007,98 1015,117 1030,132C1045,147 1063,154 1085,154C1106,154 1124,147 1139,132C1154,117 1161,98 1161,77z"/>
<glyph unicode="&#x2020;" horiz-adv-x="813" d="M756,638l-302,0l0,-945l-95,0l0,945l-302,0l0,84l302,0l0,324l95,0l0,-324l302,0z"/>
<glyph unicode="&#x2021;" horiz-adv-x="813" d="M756,27l-302,0l0,-334l-95,0l0,334l-302,0l0,85l302,0l0,526l-302,0l0,84l302,0l0,324l95,0l0,-324l301,0l0,-84l-301,0l0,-526l302,0z"/>
<glyph unicode="&#x2030;" horiz-adv-x="1673" d="M840,561C912,561 969,536 1010,486C1051,435 1071,364 1071,272C1071,179 1051,108 1010,57C969,6 912,-20 840,-20C769,-20 713,5 672,56C631,107 611,179 611,272C611,364 631,435 672,486C713,536 769,561 840,561M290,1115C325,1115 357,1108 386,1095C414,1082 438,1063 458,1038C477,1013 492,982 503,946C514,910 519,869 519,823C519,730 499,659 458,609C417,559 361,534 290,534C218,534 162,559 121,609C80,659 60,730 60,823C60,916 80,988 121,1039C162,1090 218,1115 290,1115M290,594C335,594 370,612 396,649C421,685 434,743 434,823C434,904 421,962 396,999C370,1036 335,1054 290,1054C245,1054 209,1036 183,999C157,962 144,904 144,823C144,743 157,685 183,649C209,612 245,594 290,594M840,40C885,40 921,59 947,96C972,133 985,191 985,272C985,352 972,410 946,447C920,483 885,501 840,501C795,501 760,483 735,447C709,410 696,352 696,272C696,191 709,133 735,96C760,59 795,40 840,40M899,1095l-582,-1095l-87,0l582,1095M1382,561C1454,561 1511,536 1552,486C1593,435 1613,364 1613,272C1613,179 1593,108 1552,57C1511,6 1454,-20 1382,-20C1311,-20 1255,5 1214,56C1173,107 1153,179 1153,272C1153,364 1173,435 1214,486C1255,536 1311,561 1382,561M1382,40C1427,40 1463,59 1489,96C1514,133 1527,191 1527,272C1527,352 1514,410 1488,447C1462,483 1427,501 1382,501C1337,501 1302,483 1277,447C1251,410 1238,352 1238,272C1238,191 1251,133 1277,96C1302,59 1337,40 1382,40z"/>
<glyph unicode="&#x2039;" horiz-adv-x="487" d="M377,51l-86,0l-227,326l227,326l86,0l-186,-326z"/>
<glyph unicode="&#x152;" horiz-adv-x="1645" d="M1583,1095l0,-80l-684,0l0,-405l641,0l0,-80l-641,0l0,-450l711,0l0,-80l-791,0l0,23C754,-6 683,-20 606,-20C530,-20 460,-6 397,22C334,49 279,88 234,138C188,188 152,248 127,318C102,388 89,466 89,551C89,637 102,715 128,784C153,853 189,913 235,962C281,1011 336,1048 399,1075C462,1102 531,1115 606,1115C683,1115 754,1101 819,1072l0,23M819,985C788,1002 755,1014 720,1023C684,1031 647,1035 608,1035C545,1035 487,1024 434,1003C381,982 335,951 296,910C257,869 227,818 206,758C184,698 173,629 173,551C173,473 184,404 205,343C226,282 256,230 295,188C333,146 379,114 432,93C485,71 542,60 605,60C684,60 756,77 819,112z"/>
<glyph unicode="&#x2018;" horiz-adv-x="457" d="M317,909l0,-146l-146,0l0,146C171,972 183,1022 208,1059C233,1096 269,1115 317,1115l0,-68C270,1047 246,1001 246,909z"/>
<glyph unicode="&#x2019;" horiz-adv-x="457" d="M317,949C317,886 305,836 280,799C255,762 219,743 171,743l0,68C218,811 242,857 242,949l-71,0l0,146l146,0z"/>
<glyph unicode="&#x201C;" horiz-adv-x="711" d="M317,909l0,-146l-146,0l0,146C171,972 183,1022 208,1059C233,1096 269,1115 317,1115l0,-68C270,1047 246,1001 246,909M573,909l0,-146l-146,0l0,146C427,972 439,1022 464,1059C489,1096 525,1115 573,1115l0,-68C526,1047 502,1001 502,909z"/>
<glyph unicode="&#x201D;" horiz-adv-x="711" d="M317,949C317,886 305,836 280,799C255,762 219,743 171,743l0,68C218,811 242,857 242,949l-71,0l0,146l146,0M573,949C573,886 561,836 536,799C511,762 475,743 427,743l0,68C474,811 498,857 498,949l-71,0l0,146l146,0z"/>
<glyph unicode="&#x2022;" horiz-adv-x="406" d="M81,556C81,572 84,587 91,602C97,616 106,628 117,639C128,650 140,658 154,665C168,671 183,674 199,674C215,674 230,671 245,665C259,658 271,650 282,639C292,628 300,616 307,602C313,587 316,572 316,556C316,540 313,525 307,511C301,496 293,484 282,473C271,462 259,453 245,447C230,440 215,437 199,437C183,437 168,440 154,447C139,453 127,461 116,472C105,483 97,495 91,510C84,525 81,540 81,556z"/>
<glyph unicode="&#x2013;" horiz-adv-x="793" d="M797,548l-799,0l0,80l799,0z"/>
<glyph unicode="&#x2014;" horiz-adv-x="1296" d="M1299,546l-1301,0l0,80l1301,0z"/>
<glyph unicode="&#x2122;" horiz-adv-x="999" d="M925,585l-88,0l0,416l-96,-416l-88,0l-96,416l0,-416l-89,0l0,510l140,0l88,-393l89,393l140,0M409,1010l-139,0l0,-425l-96,0l0,425l-139,0l0,85l374,0z"/>
<glyph unicode="&#x203A;" horiz-adv-x="487" d="M422,377l-227,-326l-85,0l186,326l-186,326l85,0z"/>
<glyph unicode="&#x153;" horiz-adv-x="1462" d="M1050,-20C976,-20 912,-3 857,31C802,64 760,113 731,177C703,113 663,64 611,31C559,-3 497,-20 425,-20C373,-20 326,-11 284,7C241,25 205,52 175,87C145,122 122,164 105,215C88,266 80,324 80,389C80,453 88,510 105,561C121,611 144,653 174,688C204,723 240,749 283,768C326,786 373,795 425,795C498,795 560,778 612,744C664,710 704,662 731,599C759,662 799,710 852,744C904,778 965,795 1035,795C1088,795 1135,786 1178,767C1221,748 1257,722 1287,687C1317,652 1340,609 1356,559C1372,508 1380,451 1380,388l0,-18l-610,0C774,317 784,272 799,233C814,194 834,162 859,137C884,111 912,92 945,79C977,66 1012,60 1050,60C1077,60 1103,63 1130,70C1157,76 1181,85 1203,98C1224,111 1242,126 1257,145C1272,164 1280,185 1283,209l79,0C1355,172 1342,140 1323,112C1304,83 1281,59 1254,40C1227,20 1196,5 1161,-5C1126,-15 1089,-20 1050,-20M425,60C464,60 500,67 533,81C565,94 593,115 616,143C639,170 658,205 671,246C684,287 690,334 690,389C690,443 684,491 671,532C658,573 639,607 616,634C593,661 565,681 533,695C500,708 464,715 425,715C385,715 349,708 317,695C284,681 256,661 233,634C210,607 192,573 179,532C166,491 160,443 160,389C160,334 166,287 179,246C192,205 210,170 233,143C256,115 284,94 317,81C349,67 385,60 425,60M1299,450C1286,539 1256,605 1209,649C1162,693 1104,715 1035,715C1001,715 969,710 940,699C911,688 885,672 862,650C839,628 819,600 804,567C788,534 777,495 770,450z"/>
<glyph unicode="&#x178;" horiz-adv-x="1037" d="M988,1095l-428,-625l0,-470l-80,0l0,470l-432,625l94,0l378,-541l375,541M458,1230l-108,0l0,111l108,0M687,1230l-106,0l0,111l106,0z"/>
<glyph unicode="&#xA0;" horiz-adv-x="900"/>
<glyph unicode="&#xA1;" horiz-adv-x="646" d="M356,486l40,-584l0,-222l-146,0l0,222l40,584M396,775l0,-146l-146,0l0,146z"/>
<glyph unicode="&#xA2;" horiz-adv-x="919" d="M729,1041l-53,-193C722,829 761,801 792,764C823,726 844,679 855,622l-86,0C764,657 752,687 732,712C712,737 686,757 654,770l-194,-701C485,63 511,60 538,60C567,60 594,64 621,72C647,79 670,90 691,105C712,119 729,137 743,158C756,179 765,203 769,230l86,0C847,189 834,153 815,122C796,91 773,65 746,44C718,23 687,7 652,-4C617,-15 579,-20 538,-20C505,-20 472,-16 439,-9l-51,-184l-70,23l51,186C304,48 253,99 216,168C179,237 160,323 160,427C160,498 169,561 187,616C205,671 231,718 264,756C297,794 336,823 383,843C429,863 481,873 538,873C561,873 583,871 604,867l54,196M538,793C495,793 455,785 419,770C382,754 351,731 325,700C298,669 278,630 263,585C248,539 241,486 241,427C241,344 255,276 282,221C309,166 345,124 392,97l191,693C568,792 553,793 538,793z"/>
<glyph unicode="&#xA3;" horiz-adv-x="829" d="M816,9C793,0 770,-7 747,-12C723,-17 699,-20 675,-20C660,-20 637,-16 607,-9C577,-2 545,5 512,14C479,23 447,31 417,38C386,45 363,48 347,48C272,48 190,29 102,-8l0,103C151,124 190,163 217,212C244,260 258,322 258,397C258,412 257,429 255,446C252,463 248,482 243,502l-141,0l0,81l118,0C207,632 196,675 189,713C182,751 178,782 178,805C178,851 186,892 202,929C218,966 240,997 269,1023C297,1049 331,1069 370,1083C409,1096 451,1103 498,1103C541,1103 580,1097 616,1086C651,1075 683,1058 710,1037C737,1015 759,988 776,956C793,924 803,887 808,846l-89,1C712,905 688,949 648,978C607,1007 556,1022 495,1022C464,1022 434,1016 406,1005C378,994 354,979 333,960C312,941 295,919 283,894C270,869 264,843 264,816C264,787 268,752 275,712C282,671 294,628 309,583l233,0l0,-81l-219,0C326,494 329,485 332,475C335,465 337,455 339,445C340,435 342,426 343,417C344,408 344,402 344,397C344,366 342,339 339,315C336,291 330,268 322,247C313,225 302,203 288,182C274,161 257,138 236,113C254,120 274,124 297,127C319,130 339,131 357,131C372,131 393,128 421,121C449,114 479,106 510,98C541,90 572,83 601,76C630,69 653,65 670,65C695,65 720,68 744,74C768,79 792,87 816,98z"/>
<glyph unicode="&#xA4;" horiz-adv-x="813" d="M758,252l-83,-84l-99,99C525,232 468,215 406,215C343,215 287,233 238,268l-100,-100l-84,84l99,99C120,404 103,459 103,517C103,575 120,630 153,683C154,683 121,717 54,784l84,83C205,802 238,769 238,768C287,803 343,820 406,820C469,820 525,803 576,768l99,99l83,-83l-98,-101C693,632 709,576 709,517C709,457 692,402 658,351M406,301C435,301 463,307 490,318C516,329 539,345 559,365C578,384 594,407 606,434C617,460 623,488 623,517C623,547 617,575 606,602C594,628 578,651 559,671C539,690 516,706 490,717C463,728 435,734 406,734C377,734 349,728 323,717C296,706 273,690 254,671C234,651 218,628 207,602C195,575 189,547 189,517C189,488 195,460 207,434C218,407 234,384 254,365C273,345 296,329 323,318C349,307 377,301 406,301z"/>
<glyph unicode="&#xA5;" horiz-adv-x="1037" d="M826,201l-266,0l0,-201l-80,0l0,201l-255,0l0,87l255,0l0,122l-255,0l0,87l236,0l-413,598l94,0l378,-541l375,541l93,0l-410,-598l248,0l0,-87l-266,0l0,-122l266,0z"/>
<glyph unicode="&#xA7;" horiz-adv-x="813" d="M579,884C567,979 509,1027 404,1027C352,1027 312,1016 285,993C257,970 243,939 243,902C243,885 246,869 253,854C260,839 273,824 292,807C311,790 337,770 372,747C406,724 451,696 506,663C543,641 575,621 604,602C633,583 657,563 677,542C697,521 712,497 723,472C733,447 738,417 738,382C738,296 682,226 569,173C648,124 688,56 688,-29C688,-62 681,-92 668,-119C655,-147 636,-171 613,-191C590,-212 562,-228 529,-239C496,-250 461,-256 423,-256C343,-256 277,-236 226,-196C175,-156 143,-96 131,-16l96,0C234,-64 254,-101 287,-127C319,-154 364,-167 423,-167C451,-167 476,-163 497,-156C518,-149 536,-139 551,-126C566,-114 577,-100 585,-83C592,-66 596,-49 596,-30C596,-13 592,4 584,19C575,34 561,50 540,68C519,86 490,107 453,131C416,154 370,183 313,217C274,240 241,262 212,282C183,302 160,323 141,345C122,366 107,390 98,417C89,443 84,474 84,510C84,554 98,593 126,626C153,659 195,689 250,714C185,772 152,833 152,896C152,924 158,951 169,978C180,1004 197,1027 218,1048C239,1068 264,1084 295,1097C325,1109 359,1115 397,1115C436,1115 472,1110 504,1099C536,1088 564,1072 587,1052C610,1031 630,1007 645,979C660,950 670,919 675,884M535,223C572,242 601,262 622,282C642,302 652,327 652,356C652,373 649,390 643,406C636,422 625,438 610,455C595,472 575,489 550,508C525,526 494,546 457,568C424,587 396,605 371,620C346,635 323,652 301,669C260,648 228,627 205,606C182,584 170,557 170,526C170,507 173,490 178,475C183,460 192,444 207,428C221,412 241,395 266,376C291,357 324,336 365,311C402,288 433,270 456,258C479,246 497,235 511,224z"/>
<glyph unicode="&#xA8;" horiz-adv-x="489" d="M179,850l-108,0l0,111l108,0M408,850l-106,0l0,111l106,0z"/>
<glyph unicode="&#x2C6;" horiz-adv-x="510" d="M444,850l-115,0l-75,111l-74,-111l-114,0l146,185l86,0z"/>
<glyph unicode="&#x2DC;" horiz-adv-x="535" d="M479,1003C479,955 468,918 446,892C424,865 394,852 355,852C345,852 331,855 314,861C296,866 278,873 260,880C241,887 225,893 210,899C195,904 185,907 180,907C161,907 148,902 141,893C134,884 129,869 127,850l-71,0C56,897 67,932 90,954C112,976 142,987 180,987C189,987 203,984 220,978C237,972 255,966 274,959C292,952 309,945 324,939C339,933 350,930 355,930C369,930 381,937 392,951C403,964 408,982 408,1003z"/>
<glyph unicode="&#xA9;" horiz-adv-x="995" d="M499,985C566,985 630,972 690,946C750,919 803,883 848,838C893,793 929,740 956,680C982,619 995,555 995,487C995,419 982,355 956,295C930,234 895,181 850,136C805,90 752,54 692,28C631,1 567,-12 499,-12C431,-12 367,1 307,27C246,53 193,89 148,134C102,179 66,232 40,293C13,353 0,418 0,487C0,556 13,620 40,681C66,741 102,794 148,839C193,884 246,919 307,946C367,972 431,985 499,985M498,70C554,70 607,81 658,103C708,125 752,155 790,193C828,230 858,274 880,325C902,376 913,430 913,487C913,543 902,596 880,647C858,697 828,741 791,779C754,816 710,846 659,869C608,891 555,902 498,902C441,902 387,891 337,869C286,847 242,817 205,780C167,742 137,698 115,648C93,597 82,544 82,487C82,430 93,376 115,325C137,274 167,230 205,193C242,155 286,125 337,103C387,81 441,70 498,70M736,382C706,261 627,200 500,200C461,200 425,207 393,221C360,234 333,253 310,278C287,303 269,333 257,368C244,403 238,442 238,485C238,528 244,567 257,602C269,637 287,666 310,690C333,714 361,733 394,746C427,759 463,765 504,765C534,765 562,761 587,754C612,746 635,735 655,721C675,706 692,689 705,668C718,647 726,624 731,598l-93,0C625,661 579,693 502,693C447,693 404,674 374,637C344,599 329,548 329,483C329,453 333,425 341,400C349,375 361,353 376,335C391,317 408,303 429,293C450,283 473,278 499,278C580,278 628,313 644,382z"/>
<glyph unicode="&#xAA;" horiz-adv-x="541" d="M401,550l0,69C342,566 277,539 207,539C183,539 161,542 141,549C121,556 104,565 89,578C74,590 63,605 55,622C46,639 42,659 42,680C42,795 142,852 341,852l60,0C401,884 398,909 391,927C384,945 375,959 364,968C353,977 339,983 323,986C306,988 289,989 270,989C188,989 145,965 140,917l-79,0C74,1013 145,1061 274,1061C341,1061 392,1047 427,1019C462,991 480,943 480,875l0,-325M401,788l-77,0C258,788 208,779 173,762C138,745 121,718 121,683C121,658 131,640 151,628C170,616 198,610 234,610C247,610 262,612 279,617C295,621 311,627 326,634C341,641 356,650 369,660C382,670 393,681 401,692M472,374l-402,0l0,70l402,0z"/>
<glyph unicode="&#xAB;" horiz-adv-x="813" d="M711,51l-105,0l-226,326l226,326l105,0l-185,-326M433,51l-105,0l-227,326l227,326l105,0l-186,-326z"/>
<glyph unicode="&#xAC;" horiz-adv-x="920" d="M797,479l0,-293l-97,0l0,195l-560,0l0,98z"/>
<glyph unicode="&#xAE;" horiz-adv-x="995" d="M499,985C566,985 630,972 690,946C750,919 803,883 848,838C893,793 929,740 956,680C982,619 995,555 995,487C995,419 982,355 956,295C930,234 895,181 850,136C805,90 752,54 692,28C631,1 567,-12 499,-12C431,-12 367,1 307,27C246,53 193,89 148,134C102,179 66,232 40,293C13,353 0,418 0,487C0,556 13,620 40,681C66,741 102,794 148,839C193,884 246,919 307,946C367,972 431,985 499,985M498,70C554,70 607,81 658,103C708,125 752,155 790,193C828,230 858,274 880,325C902,376 913,430 913,487C913,543 902,596 880,647C858,697 828,741 791,779C754,816 710,846 659,869C608,891 555,902 498,902C441,902 387,891 337,869C286,847 242,817 205,780C167,742 137,698 115,648C93,597 82,544 82,487C82,430 93,376 115,325C137,274 167,230 205,193C242,155 286,125 337,103C387,81 441,70 498,70M721,211l-98,0l-42,117C568,363 551,390 528,407C505,424 475,433 439,433l-68,0l0,-222l-85,0l0,535l201,0C628,746 699,697 699,598C699,503 653,453 560,446C608,432 643,398 666,344M371,507l108,0C564,507 607,535 607,591C607,646 563,673 476,673l-105,0z"/>
<glyph unicode="&#xAF;" horiz-adv-x="731" d="M739,1156l-747,0l0,72l747,0z"/>
<glyph unicode="&#xB0;" horiz-adv-x="585" d="M292,1060C319,1060 345,1055 369,1044C393,1033 414,1019 432,1001C449,982 463,961 474,937C484,913 489,888 489,862C489,835 484,809 474,785C463,761 449,740 431,722C413,704 392,690 368,679C344,668 319,663 292,663C265,663 240,668 216,679C192,689 171,703 153,721C135,739 121,760 111,785C100,809 95,835 95,862C95,889 100,914 111,938C121,962 135,983 153,1001C171,1019 192,1033 216,1044C240,1055 265,1060 292,1060M292,731C310,731 327,735 343,742C359,749 373,758 385,770C397,782 406,796 413,812C420,828 423,845 423,862C423,880 420,897 413,913C406,928 396,942 384,954C372,965 358,975 343,982C327,989 310,992 292,992C274,992 257,989 242,982C226,975 212,966 201,955C189,943 180,929 173,914C166,898 163,881 163,862C163,845 166,828 173,812C180,796 189,782 201,770C212,758 226,749 242,742C257,735 274,731 292,731z"/>
<glyph unicode="&#xB1;" horiz-adv-x="854" d="M721,499l-255,0l0,-259l-87,0l0,259l-259,0l0,87l259,0l0,257l87,0l0,-257l255,0M721,0l-601,0l0,87l601,0z"/>
<glyph unicode="&#xB4;" horiz-adv-x="495" d="M360,1036l-146,-186l-89,0l89,186z"/>
<glyph unicode="&#xB5;" horiz-adv-x="752" d="M727,-7l-65,0C624,-7 595,1 576,17C557,33 543,57 536,89C474,18 405,-17 329,-17C289,-17 251,-6 216,15l0,-284l-104,0l0,1049l104,0l0,-566C216,123 262,77 355,77C373,77 389,79 404,84C418,88 432,95 446,105C459,114 473,127 488,142C502,157 518,176 536,199l0,581l104,0l0,-623C640,128 647,107 662,96C676,85 698,79 727,79z"/>
<glyph unicode="&#xB6;" horiz-adv-x="726" d="M688,871l-93,0l0,-1140l-91,0l0,1140l-148,0l0,-1140l-91,0l0,690C222,423 183,431 150,446C117,461 89,480 67,504C44,528 27,556 16,588C5,619 -1,653 -1,689C-1,734 6,773 21,808C36,843 57,872 84,896C111,919 143,937 182,950C220,962 263,968 311,968l377,0z"/>
<glyph unicode="&#xB7;" horiz-adv-x="585" d="M489,572C489,545 484,519 473,495C462,471 448,450 430,432C411,414 390,400 367,389C343,378 318,373 292,373C265,373 239,378 216,389C192,400 171,414 153,432C135,450 121,471 111,495C100,519 95,545 95,572C95,599 100,624 111,648C121,672 135,693 153,711C171,729 192,743 216,754C239,765 265,770 292,770C319,770 344,765 368,754C392,743 413,729 431,711C449,693 463,672 474,648C484,624 489,599 489,572z"/>
<glyph unicode="&#xB8;" horiz-adv-x="487" d="M244,-49C285,-54 313,-66 328,-84C343,-102 350,-125 350,-153C350,-172 347,-190 342,-206C337,-223 327,-237 314,-249C300,-262 281,-271 258,-278C234,-285 204,-289 168,-289C146,-289 122,-288 95,-286l0,74C108,-213 122,-214 135,-215C148,-216 160,-217 173,-217C204,-217 228,-212 245,-203C262,-194 270,-178 270,-153C270,-135 261,-121 242,-111C223,-102 197,-97 164,-97l0,97l80,0z"/>
<glyph unicode="&#xBA;" horiz-adv-x="534" d="M272,1060C305,1060 336,1054 364,1042C392,1029 416,1012 436,989C456,966 472,939 483,907C494,874 500,838 500,798C500,757 494,720 483,687C472,654 456,627 436,605C416,582 392,565 364,553C336,541 305,535 272,535C237,535 206,541 178,553C150,564 126,581 106,604C86,627 71,654 60,687C49,719 43,756 43,798C43,839 49,875 60,908C71,940 87,967 107,990C127,1013 151,1030 179,1042C207,1054 238,1060 272,1060M272,611C366,611 413,673 413,798C413,921 366,983 272,983C178,983 131,921 131,798C131,673 178,611 272,611M476,375l-408,0l0,65l408,0z"/>
<glyph unicode="&#xBB;" horiz-adv-x="813" d="M711,377l-225,-326l-106,0l186,326l-186,326l106,0M433,377l-227,-326l-105,0l186,326l-186,326l105,0z"/>
<glyph unicode="&#xBF;" horiz-adv-x="1167" d="M880,-27C877,-72 868,-113 852,-151C836,-190 814,-223 787,-251C760,-279 727,-301 690,-317C652,-333 610,-341 565,-341C526,-341 490,-334 457,-321C423,-308 394,-289 369,-265C344,-241 324,-213 310,-180C295,-147 288,-111 288,-72C288,-39 292,-9 300,17C308,43 319,67 334,88C348,109 365,129 384,147C403,165 424,183 447,201C466,216 483,231 500,246C516,261 530,278 543,296C556,313 566,332 573,353C580,374 584,397 584,422l0,93l80,0l0,-82C664,393 660,359 651,330C642,301 629,276 613,253C597,230 578,208 556,189C533,170 509,149 482,128C466,115 451,102 438,88C424,74 412,59 402,43C391,26 383,9 377,-10C371,-29 368,-50 368,-72C368,-97 374,-120 386,-143C397,-166 412,-186 431,-203C449,-221 470,-235 494,-245C517,-256 541,-261 565,-261C598,-261 629,-255 657,-243C685,-231 709,-214 730,-193C751,-172 767,-148 780,-119C792,-91 799,-60 801,-27M697,774l0,-146l-146,0l0,146z"/>
<glyph unicode="&#xC0;" horiz-adv-x="1037" d="M1009,0l-96,0l-134,352l-539,0C221,297 200,238 177,177C154,115 133,56 112,0l-85,0C63,95 99,187 134,278C169,369 203,459 238,549C273,638 308,728 343,819C378,910 413,1002 449,1096l113,0M756,415l-254,609l-241,-609M636,1230l-89,0l-146,186l146,0z"/>
<glyph unicode="&#xC1;" horiz-adv-x="1037" d="M1009,0l-96,0l-134,352l-539,0C221,297 200,238 177,177C154,115 133,56 112,0l-85,0C63,95 99,187 134,278C169,369 203,459 238,549C273,638 308,728 343,819C378,910 413,1002 449,1096l113,0M756,415l-254,609l-241,-609M636,1416l-146,-186l-89,0l89,186z"/>
<glyph unicode="&#xC2;" horiz-adv-x="1037" d="M1009,0l-96,0l-134,352l-539,0C221,297 200,238 177,177C154,115 133,56 112,0l-85,0C63,95 99,187 134,278C169,369 203,459 238,549C273,638 308,728 343,819C378,910 413,1002 449,1096l113,0M756,415l-254,609l-241,-609M707,1230l-115,0l-75,111l-74,-111l-114,0l146,185l86,0z"/>
<glyph unicode="&#xC3;" horiz-adv-x="1037" d="M1009,0l-96,0l-134,352l-539,0C221,297 200,238 177,177C154,115 133,56 112,0l-85,0C63,95 99,187 134,278C169,369 203,459 238,549C273,638 308,728 343,819C378,910 413,1002 449,1096l113,0M756,415l-254,609l-241,-609M730,1383C730,1335 719,1298 697,1272C675,1245 645,1232 606,1232C596,1232 582,1235 565,1241C547,1246 529,1253 511,1260C492,1267 476,1273 461,1279C446,1284 436,1287 431,1287C412,1287 399,1282 392,1273C385,1264 380,1249 378,1230l-71,0C307,1277 318,1312 341,1334C363,1356 393,1367 431,1367C440,1367 454,1364 471,1358C488,1352 506,1346 525,1339C543,1332 560,1325 575,1319C590,1313 601,1310 606,1310C620,1310 632,1317 643,1331C654,1344 659,1362 659,1383z"/>
<glyph unicode="&#xC4;" horiz-adv-x="1037" d="M1009,0l-96,0l-134,352l-539,0C221,297 200,238 177,177C154,115 133,56 112,0l-85,0C63,95 99,187 134,278C169,369 203,459 238,549C273,638 308,728 343,819C378,910 413,1002 449,1096l113,0M756,415l-254,609l-241,-609M458,1230l-108,0l0,111l108,0M687,1230l-106,0l0,111l106,0z"/>
<glyph unicode="&#xC5;" horiz-adv-x="1037" d="M634,1228C634,1210 631,1193 624,1178C617,1163 608,1149 597,1138C586,1126 573,1117 558,1110C543,1103 526,1100 509,1100C492,1100 475,1103 460,1110C444,1117 430,1126 419,1137C407,1148 398,1162 391,1178C384,1193 380,1210 380,1228C380,1245 384,1262 391,1277C398,1292 407,1306 419,1318C430,1329 444,1338 460,1345C475,1352 492,1355 509,1355C526,1355 543,1352 558,1345C573,1338 586,1328 597,1317C608,1305 617,1291 624,1276C631,1261 634,1245 634,1228M585,1228C585,1249 578,1268 563,1283C548,1298 530,1306 509,1306C487,1306 468,1298 453,1283C438,1268 430,1249 430,1228C430,1207 438,1188 453,1173C468,1157 487,1149 509,1149C520,1149 530,1151 539,1156C548,1160 556,1166 563,1173C570,1180 575,1188 579,1198C583,1207 585,1217 585,1228M1009,0l-96,0l-134,352l-539,0C221,297 200,238 177,177C154,115 133,56 112,0l-85,0C63,95 99,187 134,278C169,369 203,459 238,549C273,638 308,728 343,819C378,910 413,1002 449,1096l113,0M756,415l-254,609l-241,-609z"/>
<glyph unicode="&#xC6;" horiz-adv-x="1554" d="M1462,0l-684,0l0,335l-470,0C278,281 247,225 215,168C183,110 152,54 122,0l-96,0C81,96 135,189 188,279C240,369 292,459 344,548C395,637 447,726 500,817C552,907 606,1000 661,1095l774,0l0,-80l-577,0l0,-405l532,0l0,-80l-532,0l0,-450l604,0M778,413l0,602l-73,0l-355,-602z"/>
<glyph unicode="&#xC7;" horiz-adv-x="1122" d="M938,802C931,835 917,865 897,894C877,922 852,947 822,968C792,989 758,1005 719,1017C680,1029 638,1035 593,1035C530,1035 472,1025 421,1004C369,983 325,953 289,913C252,872 224,822 205,762C185,701 175,631 175,551C175,471 185,401 205,340C224,279 252,227 289,186C325,145 369,113 420,92C471,71 527,60 590,60C685,60 763,81 824,124C885,166 923,228 938,309l83,0C1013,257 997,211 972,170C947,129 916,94 879,66C842,38 799,17 750,2C701,-13 649,-20 592,-20C515,-20 445,-6 384,21C322,48 269,86 226,135C183,184 149,244 126,315C103,385 91,464 91,551C91,638 103,716 126,785C149,854 183,914 227,963C270,1012 323,1049 385,1076C446,1102 515,1115 592,1115C645,1115 695,1107 743,1092C790,1077 833,1055 871,1028C909,1000 941,967 967,929C993,890 1011,848 1021,802M624,-70C665,-75 693,-87 708,-105C723,-123 730,-146 730,-174C730,-193 727,-211 722,-227C717,-244 707,-258 694,-270C680,-283 661,-292 638,-299C614,-306 584,-310 548,-310C526,-310 502,-309 475,-307l0,74C488,-234 502,-235 515,-236C528,-237 540,-238 553,-238C584,-238 608,-233 625,-224C642,-215 650,-199 650,-174C650,-156 641,-142 622,-132C603,-123 577,-118 544,-118l0,97l80,0z"/>
<glyph unicode="&#xC8;" horiz-adv-x="1037" d="M935,0l-791,0l0,1095l764,0l0,-80l-684,0l0,-405l641,0l0,-80l-641,0l0,-450l711,0M636,1230l-89,0l-146,186l146,0z"/>
<glyph unicode="&#xC9;" horiz-adv-x="1037" d="M935,0l-791,0l0,1095l764,0l0,-80l-684,0l0,-405l641,0l0,-80l-641,0l0,-450l711,0M636,1416l-146,-186l-89,0l89,186z"/>
<glyph unicode="&#xCA;" horiz-adv-x="1037" d="M935,0l-791,0l0,1095l764,0l0,-80l-684,0l0,-405l641,0l0,-80l-641,0l0,-450l711,0M707,1230l-115,0l-75,111l-74,-111l-114,0l146,185l86,0z"/>
<glyph unicode="&#xCB;" horiz-adv-x="1037" d="M935,0l-791,0l0,1095l764,0l0,-80l-684,0l0,-405l641,0l0,-80l-641,0l0,-450l711,0M458,1230l-108,0l0,111l108,0M687,1230l-106,0l0,111l106,0z"/>
<glyph unicode="&#xCC;" horiz-adv-x="432" d="M257,0l-80,0l0,1095l80,0M335,1230l-89,0l-146,186l146,0z"/>
<glyph unicode="&#xCD;" horiz-adv-x="432" d="M257,0l-80,0l0,1095l80,0M335,1416l-146,-186l-89,0l89,186z"/>
<glyph unicode="&#xCE;" horiz-adv-x="432" d="M257,0l-80,0l0,1095l80,0M406,1230l-115,0l-75,111l-74,-111l-114,0l146,185l86,0z"/>
<glyph unicode="&#xCF;" horiz-adv-x="432" d="M257,0l-80,0l0,1095l80,0M157,1230l-108,0l0,111l108,0M386,1230l-106,0l0,111l106,0z"/>
<glyph unicode="&#xD1;" horiz-adv-x="1122" d="M987,0l-105,0l-668,1000l0,-1000l-80,0l0,1095l110,0l663,-998l0,998l80,0M772,1383C772,1335 761,1298 739,1272C717,1245 687,1232 648,1232C638,1232 624,1235 607,1241C589,1246 571,1253 553,1260C534,1267 518,1273 503,1279C488,1284 478,1287 473,1287C454,1287 441,1282 434,1273C427,1264 422,1249 420,1230l-71,0C349,1277 360,1312 383,1334C405,1356 435,1367 473,1367C482,1367 496,1364 513,1358C530,1352 548,1346 567,1339C585,1332 602,1325 617,1319C632,1313 643,1310 648,1310C662,1310 674,1317 685,1331C696,1344 701,1362 701,1383z"/>
<glyph unicode="&#xD2;" horiz-adv-x="1210" d="M606,1115C681,1115 750,1102 813,1075C876,1048 931,1010 977,961C1022,912 1058,852 1084,783C1109,714 1122,636 1122,551C1122,466 1109,389 1084,319C1059,249 1023,189 978,139C932,88 878,49 815,22C752,-6 682,-20 606,-20C530,-20 460,-6 397,22C334,49 279,88 234,138C188,188 152,248 127,318C102,388 89,466 89,551C89,637 102,715 128,784C153,853 189,913 235,962C281,1011 336,1048 399,1075C462,1102 531,1115 606,1115M605,60C668,60 726,71 779,93C832,114 877,146 916,188C955,230 985,282 1006,343C1027,404 1038,473 1038,551C1038,630 1027,699 1006,759C984,819 954,870 916,911C877,952 832,983 780,1004C727,1025 670,1035 608,1035C545,1035 487,1024 434,1003C381,982 335,951 296,910C257,869 227,818 206,758C184,698 173,629 173,551C173,473 184,404 205,343C226,282 256,230 295,188C333,146 379,114 432,93C485,71 542,60 605,60M722,1230l-89,0l-146,186l146,0z"/>
<glyph unicode="&#xD3;" horiz-adv-x="1210" d="M606,1115C681,1115 750,1102 813,1075C876,1048 931,1010 977,961C1022,912 1058,852 1084,783C1109,714 1122,636 1122,551C1122,466 1109,389 1084,319C1059,249 1023,189 978,139C932,88 878,49 815,22C752,-6 682,-20 606,-20C530,-20 460,-6 397,22C334,49 279,88 234,138C188,188 152,248 127,318C102,388 89,466 89,551C89,637 102,715 128,784C153,853 189,913 235,962C281,1011 336,1048 399,1075C462,1102 531,1115 606,1115M605,60C668,60 726,71 779,93C832,114 877,146 916,188C955,230 985,282 1006,343C1027,404 1038,473 1038,551C1038,630 1027,699 1006,759C984,819 954,870 916,911C877,952 832,983 780,1004C727,1025 670,1035 608,1035C545,1035 487,1024 434,1003C381,982 335,951 296,910C257,869 227,818 206,758C184,698 173,629 173,551C173,473 184,404 205,343C226,282 256,230 295,188C333,146 379,114 432,93C485,71 542,60 605,60M722,1416l-146,-186l-89,0l89,186z"/>
<glyph unicode="&#xD4;" horiz-adv-x="1210" d="M606,1115C681,1115 750,1102 813,1075C876,1048 931,1010 977,961C1022,912 1058,852 1084,783C1109,714 1122,636 1122,551C1122,466 1109,389 1084,319C1059,249 1023,189 978,139C932,88 878,49 815,22C752,-6 682,-20 606,-20C530,-20 460,-6 397,22C334,49 279,88 234,138C188,188 152,248 127,318C102,388 89,466 89,551C89,637 102,715 128,784C153,853 189,913 235,962C281,1011 336,1048 399,1075C462,1102 531,1115 606,1115M605,60C668,60 726,71 779,93C832,114 877,146 916,188C955,230 985,282 1006,343C1027,404 1038,473 1038,551C1038,630 1027,699 1006,759C984,819 954,870 916,911C877,952 832,983 780,1004C727,1025 670,1035 608,1035C545,1035 487,1024 434,1003C381,982 335,951 296,910C257,869 227,818 206,758C184,698 173,629 173,551C173,473 184,404 205,343C226,282 256,230 295,188C333,146 379,114 432,93C485,71 542,60 605,60M794,1230l-115,0l-75,111l-74,-111l-114,0l146,185l86,0z"/>
<glyph unicode="&#xD5;" horiz-adv-x="1210" d="M606,1115C681,1115 750,1102 813,1075C876,1048 931,1010 977,961C1022,912 1058,852 1084,783C1109,714 1122,636 1122,551C1122,466 1109,389 1084,319C1059,249 1023,189 978,139C932,88 878,49 815,22C752,-6 682,-20 606,-20C530,-20 460,-6 397,22C334,49 279,88 234,138C188,188 152,248 127,318C102,388 89,466 89,551C89,637 102,715 128,784C153,853 189,913 235,962C281,1011 336,1048 399,1075C462,1102 531,1115 606,1115M605,60C668,60 726,71 779,93C832,114 877,146 916,188C955,230 985,282 1006,343C1027,404 1038,473 1038,551C1038,630 1027,699 1006,759C984,819 954,870 916,911C877,952 832,983 780,1004C727,1025 670,1035 608,1035C545,1035 487,1024 434,1003C381,982 335,951 296,910C257,869 227,818 206,758C184,698 173,629 173,551C173,473 184,404 205,343C226,282 256,230 295,188C333,146 379,114 432,93C485,71 542,60 605,60M816,1383C816,1335 805,1298 783,1272C761,1245 731,1232 692,1232C682,1232 668,1235 651,1241C633,1246 615,1253 597,1260C578,1267 562,1273 547,1279C532,1284 522,1287 517,1287C498,1287 485,1282 478,1273C471,1264 466,1249 464,1230l-71,0C393,1277 404,1312 427,1334C449,1356 479,1367 517,1367C526,1367 540,1364 557,1358C574,1352 592,1346 611,1339C629,1332 646,1325 661,1319C676,1313 687,1310 692,1310C706,1310 718,1317 729,1331C740,1344 745,1362 745,1383z"/>
<glyph unicode="&#xD6;" horiz-adv-x="1210" d="M606,1115C681,1115 750,1102 813,1075C876,1048 931,1010 977,961C1022,912 1058,852 1084,783C1109,714 1122,636 1122,551C1122,466 1109,389 1084,319C1059,249 1023,189 978,139C932,88 878,49 815,22C752,-6 682,-20 606,-20C530,-20 460,-6 397,22C334,49 279,88 234,138C188,188 152,248 127,318C102,388 89,466 89,551C89,637 102,715 128,784C153,853 189,913 235,962C281,1011 336,1048 399,1075C462,1102 531,1115 606,1115M605,60C668,60 726,71 779,93C832,114 877,146 916,188C955,230 985,282 1006,343C1027,404 1038,473 1038,551C1038,630 1027,699 1006,759C984,819 954,870 916,911C877,952 832,983 780,1004C727,1025 670,1035 608,1035C545,1035 487,1024 434,1003C381,982 335,951 296,910C257,869 227,818 206,758C184,698 173,629 173,551C173,473 184,404 205,343C226,282 256,230 295,188C333,146 379,114 432,93C485,71 542,60 605,60M544,1230l-108,0l0,111l108,0M773,1230l-106,0l0,111l106,0z"/>
<glyph unicode="&#xD8;" horiz-adv-x="1210" d="M606,1115C660,1115 711,1108 759,1094C806,1080 850,1060 890,1033l74,103l67,-42l-79,-110C1005,934 1047,873 1077,800C1107,727 1122,644 1122,551C1122,466 1109,389 1084,319C1059,249 1023,189 978,139C932,88 878,49 815,22C752,-6 682,-20 606,-20C547,-20 493,-12 443,5C392,21 346,44 304,75l-87,-122l-67,43l94,131C195,178 157,239 130,310C103,381 89,462 89,551C89,637 102,715 128,784C153,853 189,913 235,962C281,1011 336,1048 399,1075C462,1102 531,1115 606,1115M605,60C668,60 726,71 779,93C832,114 877,146 916,188C955,230 985,282 1006,343C1027,404 1038,473 1038,551C1038,633 1026,705 1003,766C980,827 947,879 906,920l-557,-781C384,113 424,93 467,80C510,67 556,60 605,60M608,1035C545,1035 487,1024 434,1003C381,982 335,951 296,910C257,869 227,818 206,758C184,698 173,629 173,551C173,474 183,405 204,346C224,286 253,235 290,193l555,776C811,990 774,1007 735,1018C695,1029 653,1035 608,1035z"/>
<glyph unicode="&#xD9;" horiz-adv-x="1122" d="M561,-20C496,-20 440,-13 394,1C347,14 309,33 278,56C247,79 223,107 205,138C187,169 173,203 164,238C155,273 149,310 147,348C144,386 143,423 143,459l0,636l80,0l0,-633C223,379 231,311 246,259C261,206 283,165 312,136C341,107 376,87 418,76C459,65 507,60 561,60C616,60 664,65 707,76C749,87 784,107 813,137C841,166 862,207 877,259C892,311 899,379 899,462l0,633l80,0l0,-636C979,384 973,316 960,257C947,198 925,148 894,107C863,66 820,34 766,13C712,-9 644,-20 561,-20M678,1230l-89,0l-146,186l146,0z"/>
<glyph unicode="&#xDA;" horiz-adv-x="1122" d="M561,-20C496,-20 440,-13 394,1C347,14 309,33 278,56C247,79 223,107 205,138C187,169 173,203 164,238C155,273 149,310 147,348C144,386 143,423 143,459l0,636l80,0l0,-633C223,379 231,311 246,259C261,206 283,165 312,136C341,107 376,87 418,76C459,65 507,60 561,60C616,60 664,65 707,76C749,87 784,107 813,137C841,166 862,207 877,259C892,311 899,379 899,462l0,633l80,0l0,-636C979,384 973,316 960,257C947,198 925,148 894,107C863,66 820,34 766,13C712,-9 644,-20 561,-20M678,1416l-146,-186l-89,0l89,186z"/>
<glyph unicode="&#xDB;" horiz-adv-x="1122" d="M561,-20C496,-20 440,-13 394,1C347,14 309,33 278,56C247,79 223,107 205,138C187,169 173,203 164,238C155,273 149,310 147,348C144,386 143,423 143,459l0,636l80,0l0,-633C223,379 231,311 246,259C261,206 283,165 312,136C341,107 376,87 418,76C459,65 507,60 561,60C616,60 664,65 707,76C749,87 784,107 813,137C841,166 862,207 877,259C892,311 899,379 899,462l0,633l80,0l0,-636C979,384 973,316 960,257C947,198 925,148 894,107C863,66 820,34 766,13C712,-9 644,-20 561,-20M750,1230l-115,0l-75,111l-74,-111l-114,0l146,185l86,0z"/>
<glyph unicode="&#xDC;" horiz-adv-x="1122" d="M561,-20C496,-20 440,-13 394,1C347,14 309,33 278,56C247,79 223,107 205,138C187,169 173,203 164,238C155,273 149,310 147,348C144,386 143,423 143,459l0,636l80,0l0,-633C223,379 231,311 246,259C261,206 283,165 312,136C341,107 376,87 418,76C459,65 507,60 561,60C616,60 664,65 707,76C749,87 784,107 813,137C841,166 862,207 877,259C892,311 899,379 899,462l0,633l80,0l0,-636C979,384 973,316 960,257C947,198 925,148 894,107C863,66 820,34 766,13C712,-9 644,-20 561,-20M500,1230l-108,0l0,111l108,0M729,1230l-106,0l0,111l106,0z"/>
<glyph unicode="&#xDF;" horiz-adv-x="933" d="M872,222C872,189 866,158 853,129C840,100 823,74 800,52C777,30 749,13 717,0C685,-13 650,-20 611,-20C577,-20 545,-16 516,-8C486,0 460,12 438,27C416,42 398,61 385,83C372,105 364,130 361,158l90,0C459,128 477,104 505,87C533,69 567,60 608,60C631,60 654,64 675,72C696,79 714,90 730,103C745,116 758,132 767,151C776,169 781,189 781,210C781,230 779,247 774,260C769,273 762,286 751,298C740,310 725,322 706,335C687,348 664,363 635,381C590,410 553,440 525,471C496,502 482,535 482,570C482,603 500,651 536,714C560,756 578,792 589,821C600,850 605,872 606,888C606,907 601,926 592,943C582,960 569,975 553,988C536,1001 517,1011 495,1019C472,1026 449,1030 424,1030C393,1030 363,1026 336,1017C308,1008 284,992 263,970C242,947 225,918 213,881C201,844 195,797 195,741l0,-741l-80,0l0,747C115,868 141,958 192,1019C243,1080 321,1110 426,1110C466,1110 502,1104 535,1093C568,1082 596,1067 619,1048C642,1029 659,1006 672,981C685,956 691,929 691,901C691,877 685,848 673,813C661,778 642,738 617,695C590,650 577,615 577,591C577,578 579,566 582,557C585,547 592,537 603,526C613,515 628,502 648,488C667,474 694,456 727,434C756,415 779,398 798,381C817,364 832,348 843,331C854,314 861,297 866,280C870,262 872,243 872,222z"/>
<glyph unicode="&#xE0;" horiz-adv-x="850" d="M636,100C609,76 582,56 556,41C530,25 505,13 480,4C455,-5 430,-12 405,-15C380,-18 355,-20 330,-20C296,-20 264,-15 235,-4C206,6 180,21 159,40C138,59 121,82 109,109C96,136 90,165 90,198C90,287 128,356 204,405C279,454 393,479 544,479l92,0C636,513 634,544 630,573C626,602 617,627 602,648C587,669 566,685 537,697C508,709 469,715 420,715C347,715 293,704 257,681C220,658 199,624 192,578l-79,0C121,651 150,706 199,742C248,777 322,795 419,795C473,795 519,788 557,775C594,762 625,743 649,718C672,693 689,662 700,627C711,591 716,551 716,506l0,-506l-80,0M636,399l-121,0C399,399 313,382 256,349C199,316 170,268 170,206C170,160 188,124 224,99C260,73 309,60 372,60C399,60 426,64 452,73C477,81 501,92 524,105C547,118 568,133 587,150C606,166 622,182 636,197M542,850l-89,0l-146,186l146,0z"/>
<glyph unicode="&#xE1;" horiz-adv-x="850" d="M636,100C609,76 582,56 556,41C530,25 505,13 480,4C455,-5 430,-12 405,-15C380,-18 355,-20 330,-20C296,-20 264,-15 235,-4C206,6 180,21 159,40C138,59 121,82 109,109C96,136 90,165 90,198C90,287 128,356 204,405C279,454 393,479 544,479l92,0C636,513 634,544 630,573C626,602 617,627 602,648C587,669 566,685 537,697C508,709 469,715 420,715C347,715 293,704 257,681C220,658 199,624 192,578l-79,0C121,651 150,706 199,742C248,777 322,795 419,795C473,795 519,788 557,775C594,762 625,743 649,718C672,693 689,662 700,627C711,591 716,551 716,506l0,-506l-80,0M636,399l-121,0C399,399 313,382 256,349C199,316 170,268 170,206C170,160 188,124 224,99C260,73 309,60 372,60C399,60 426,64 452,73C477,81 501,92 524,105C547,118 568,133 587,150C606,166 622,182 636,197M542,1036l-146,-186l-89,0l89,186z"/>
<glyph unicode="&#xE2;" horiz-adv-x="850" d="M636,100C609,76 582,56 556,41C530,25 505,13 480,4C455,-5 430,-12 405,-15C380,-18 355,-20 330,-20C296,-20 264,-15 235,-4C206,6 180,21 159,40C138,59 121,82 109,109C96,136 90,165 90,198C90,287 128,356 204,405C279,454 393,479 544,479l92,0C636,513 634,544 630,573C626,602 617,627 602,648C587,669 566,685 537,697C508,709 469,715 420,715C347,715 293,704 257,681C220,658 199,624 192,578l-79,0C121,651 150,706 199,742C248,777 322,795 419,795C473,795 519,788 557,775C594,762 625,743 649,718C672,693 689,662 700,627C711,591 716,551 716,506l0,-506l-80,0M636,399l-121,0C399,399 313,382 256,349C199,316 170,268 170,206C170,160 188,124 224,99C260,73 309,60 372,60C399,60 426,64 452,73C477,81 501,92 524,105C547,118 568,133 587,150C606,166 622,182 636,197M614,850l-115,0l-75,111l-74,-111l-114,0l146,185l86,0z"/>
<glyph unicode="&#xE3;" horiz-adv-x="850" d="M636,100C609,76 582,56 556,41C530,25 505,13 480,4C455,-5 430,-12 405,-15C380,-18 355,-20 330,-20C296,-20 264,-15 235,-4C206,6 180,21 159,40C138,59 121,82 109,109C96,136 90,165 90,198C90,287 128,356 204,405C279,454 393,479 544,479l92,0C636,513 634,544 630,573C626,602 617,627 602,648C587,669 566,685 537,697C508,709 469,715 420,715C347,715 293,704 257,681C220,658 199,624 192,578l-79,0C121,651 150,706 199,742C248,777 322,795 419,795C473,795 519,788 557,775C594,762 625,743 649,718C672,693 689,662 700,627C711,591 716,551 716,506l0,-506l-80,0M636,399l-121,0C399,399 313,382 256,349C199,316 170,268 170,206C170,160 188,124 224,99C260,73 309,60 372,60C399,60 426,64 452,73C477,81 501,92 524,105C547,118 568,133 587,150C606,166 622,182 636,197M636,1003C636,955 625,918 603,892C581,865 551,852 512,852C502,852 488,855 471,861C453,866 435,873 417,880C398,887 382,893 367,899C352,904 342,907 337,907C318,907 305,902 298,893C291,884 286,869 284,850l-71,0C213,897 224,932 247,954C269,976 299,987 337,987C346,987 360,984 377,978C394,972 412,966 431,959C449,952 466,945 481,939C496,933 507,930 512,930C526,930 538,937 549,951C560,964 565,982 565,1003z"/>
<glyph unicode="&#xE4;" horiz-adv-x="850" d="M636,100C609,76 582,56 556,41C530,25 505,13 480,4C455,-5 430,-12 405,-15C380,-18 355,-20 330,-20C296,-20 264,-15 235,-4C206,6 180,21 159,40C138,59 121,82 109,109C96,136 90,165 90,198C90,287 128,356 204,405C279,454 393,479 544,479l92,0C636,513 634,544 630,573C626,602 617,627 602,648C587,669 566,685 537,697C508,709 469,715 420,715C347,715 293,704 257,681C220,658 199,624 192,578l-79,0C121,651 150,706 199,742C248,777 322,795 419,795C473,795 519,788 557,775C594,762 625,743 649,718C672,693 689,662 700,627C711,591 716,551 716,506l0,-506l-80,0M636,399l-121,0C399,399 313,382 256,349C199,316 170,268 170,206C170,160 188,124 224,99C260,73 309,60 372,60C399,60 426,64 452,73C477,81 501,92 524,105C547,118 568,133 587,150C606,166 622,182 636,197M364,850l-108,0l0,111l108,0M593,850l-106,0l0,111l106,0z"/>
<glyph unicode="&#xE5;" horiz-adv-x="850" d="M554,928C554,910 551,893 544,878C537,863 528,849 517,838C506,826 493,817 478,810C463,803 446,800 429,800C412,800 395,803 380,810C364,817 350,826 339,837C327,848 318,862 311,878C304,893 300,910 300,928C300,945 304,962 311,977C318,992 327,1006 339,1018C350,1029 364,1038 380,1045C395,1052 412,1055 429,1055C446,1055 463,1052 478,1045C493,1038 506,1028 517,1017C528,1005 537,991 544,976C551,961 554,945 554,928M505,928C505,949 498,968 483,983C468,998 450,1006 429,1006C407,1006 388,998 373,983C358,968 350,949 350,928C350,907 358,888 373,873C388,857 407,849 429,849C440,849 450,851 459,856C468,860 476,866 483,873C490,880 495,888 499,898C503,907 505,917 505,928M636,100C609,76 582,56 556,41C530,25 505,13 480,4C455,-5 430,-12 405,-15C380,-18 355,-20 330,-20C296,-20 264,-15 235,-4C206,6 180,21 159,40C138,59 121,82 109,109C96,136 90,165 90,198C90,287 128,356 204,405C279,454 393,479 544,479l92,0C636,513 634,544 630,573C626,602 617,627 602,648C587,669 566,685 537,697C508,709 469,715 420,715C347,715 293,704 257,681C220,658 199,624 192,578l-79,0C121,651 150,706 199,742C248,777 322,795 419,795C473,795 519,788 557,775C594,762 625,743 649,718C672,693 689,662 700,627C711,591 716,551 716,506l0,-506l-80,0M636,399l-121,0C399,399 313,382 256,349C199,316 170,268 170,206C170,160 188,124 224,99C260,73 309,60 372,60C399,60 426,64 452,73C477,81 501,92 524,105C547,118 568,133 587,150C606,166 622,182 636,197z"/>
<glyph unicode="&#xE6;" horiz-adv-x="1410" d="M990,-20C923,-20 864,-6 813,22C762,49 720,89 689,142C660,113 633,89 608,68C582,47 555,31 528,18C501,5 471,-5 439,-11C407,-17 371,-20 330,-20C296,-20 264,-15 235,-4C206,6 180,21 159,40C138,59 121,82 109,109C96,136 90,165 90,198C90,287 128,356 204,405C279,454 393,479 544,479l92,0C636,513 634,544 630,573C626,602 617,627 602,648C587,669 566,685 537,697C508,709 469,715 420,715C347,715 293,704 257,681C220,658 199,624 192,578l-79,0C121,651 150,706 199,742C248,777 322,795 419,795C496,795 556,782 600,755C644,728 675,691 694,643C724,692 763,729 811,756C859,782 914,795 975,795C1028,795 1075,786 1118,767C1161,748 1197,722 1227,687C1257,652 1280,609 1296,559C1312,508 1320,451 1320,388l0,-18l-604,0l0,-11C716,312 723,271 738,234C753,197 773,165 798,140C823,114 852,94 885,81C918,67 953,60 990,60C1017,60 1043,63 1070,70C1097,76 1121,85 1143,98C1164,111 1182,126 1197,145C1212,164 1220,185 1223,209l79,0C1295,172 1282,140 1263,112C1244,83 1221,59 1194,40C1167,20 1136,5 1101,-5C1066,-15 1029,-20 990,-20M170,206C170,160 188,124 224,99C260,73 309,60 372,60C397,60 423,64 449,73C475,81 500,92 525,106C550,120 573,136 596,155C619,174 639,193 657,213C639,264 630,322 630,389l0,10l-115,0C399,399 313,382 256,349C199,316 170,268 170,206M1239,450C1226,539 1196,605 1149,649C1102,693 1044,715 975,715C942,715 910,709 880,698C849,686 822,669 799,646C775,623 756,596 741,563C726,530 718,493 716,450z"/>
<glyph unicode="&#xE7;" horiz-adv-x="764" d="M429,-20C378,-20 331,-11 289,7C246,25 210,51 180,86C149,121 126,163 109,214C92,265 84,323 84,388C84,452 92,509 109,560C125,611 148,653 179,688C209,723 245,749 288,768C330,786 377,795 429,795C466,795 501,790 534,780C566,770 595,755 620,736C645,717 666,693 683,664C700,635 711,603 718,566l-78,0C637,590 629,611 618,630C606,649 591,664 572,677C553,690 532,699 508,706C483,712 457,715 429,715C390,715 354,708 321,695C288,681 260,660 237,633C214,606 196,572 183,531C170,490 164,442 164,388C164,333 170,286 183,245C196,204 214,169 237,142C260,115 288,94 321,81C354,67 390,60 429,60C455,60 480,63 504,70C528,76 550,85 569,98C588,110 603,125 616,144C629,162 637,183 640,208l78,0C711,171 699,138 682,110C665,81 644,57 619,38C594,19 565,4 533,-5C500,-15 466,-20 429,-20M442,-70C483,-75 511,-87 526,-105C541,-123 548,-146 548,-174C548,-193 545,-211 540,-227C535,-244 525,-258 512,-270C498,-283 479,-292 456,-299C432,-306 402,-310 366,-310C344,-310 320,-309 293,-307l0,74C306,-234 320,-235 333,-236C346,-237 358,-238 371,-238C402,-238 426,-233 443,-224C460,-215 468,-199 468,-174C468,-156 459,-142 440,-132C421,-123 395,-118 362,-118l0,97l80,0z"/>
<glyph unicode="&#xE8;" horiz-adv-x="850" d="M440,-20C386,-20 337,-11 293,8C249,26 211,53 180,88C148,123 123,165 106,216C89,267 80,324 80,389C80,452 88,508 105,559C122,609 145,652 176,687C207,722 243,748 285,767C327,786 374,795 425,795C478,795 525,786 568,767C611,748 647,722 677,687C707,652 730,609 746,559C762,508 770,451 770,388l0,-18l-610,0C164,317 174,272 189,233C204,194 224,162 249,137C274,111 302,92 335,79C367,66 402,60 440,60C467,60 493,63 520,70C547,76 571,85 593,98C614,111 632,126 647,145C662,164 670,185 673,209l79,0C745,172 732,140 713,112C694,83 671,59 644,40C617,20 586,5 551,-5C516,-15 479,-20 440,-20M689,450C676,539 646,605 599,649C552,693 494,715 425,715C391,715 359,710 330,699C301,688 275,672 252,650C229,628 209,600 194,567C178,534 167,495 160,450M542,850l-89,0l-146,186l146,0z"/>
<glyph unicode="&#xE9;" horiz-adv-x="850" d="M440,-20C386,-20 337,-11 293,8C249,26 211,53 180,88C148,123 123,165 106,216C89,267 80,324 80,389C80,452 88,508 105,559C122,609 145,652 176,687C207,722 243,748 285,767C327,786 374,795 425,795C478,795 525,786 568,767C611,748 647,722 677,687C707,652 730,609 746,559C762,508 770,451 770,388l0,-18l-610,0C164,317 174,272 189,233C204,194 224,162 249,137C274,111 302,92 335,79C367,66 402,60 440,60C467,60 493,63 520,70C547,76 571,85 593,98C614,111 632,126 647,145C662,164 670,185 673,209l79,0C745,172 732,140 713,112C694,83 671,59 644,40C617,20 586,5 551,-5C516,-15 479,-20 440,-20M689,450C676,539 646,605 599,649C552,693 494,715 425,715C391,715 359,710 330,699C301,688 275,672 252,650C229,628 209,600 194,567C178,534 167,495 160,450M542,1036l-146,-186l-89,0l89,186z"/>
<glyph unicode="&#xEA;" horiz-adv-x="850" d="M440,-20C386,-20 337,-11 293,8C249,26 211,53 180,88C148,123 123,165 106,216C89,267 80,324 80,389C80,452 88,508 105,559C122,609 145,652 176,687C207,722 243,748 285,767C327,786 374,795 425,795C478,795 525,786 568,767C611,748 647,722 677,687C707,652 730,609 746,559C762,508 770,451 770,388l0,-18l-610,0C164,317 174,272 189,233C204,194 224,162 249,137C274,111 302,92 335,79C367,66 402,60 440,60C467,60 493,63 520,70C547,76 571,85 593,98C614,111 632,126 647,145C662,164 670,185 673,209l79,0C745,172 732,140 713,112C694,83 671,59 644,40C617,20 586,5 551,-5C516,-15 479,-20 440,-20M689,450C676,539 646,605 599,649C552,693 494,715 425,715C391,715 359,710 330,699C301,688 275,672 252,650C229,628 209,600 194,567C178,534 167,495 160,450M614,850l-115,0l-75,111l-74,-111l-114,0l146,185l86,0z"/>
<glyph unicode="&#xEB;" horiz-adv-x="850" d="M440,-20C386,-20 337,-11 293,8C249,26 211,53 180,88C148,123 123,165 106,216C89,267 80,324 80,389C80,452 88,508 105,559C122,609 145,652 176,687C207,722 243,748 285,767C327,786 374,795 425,795C478,795 525,786 568,767C611,748 647,722 677,687C707,652 730,609 746,559C762,508 770,451 770,388l0,-18l-610,0C164,317 174,272 189,233C204,194 224,162 249,137C274,111 302,92 335,79C367,66 402,60 440,60C467,60 493,63 520,70C547,76 571,85 593,98C614,111 632,126 647,145C662,164 670,185 673,209l79,0C745,172 732,140 713,112C694,83 671,59 644,40C617,20 586,5 551,-5C516,-15 479,-20 440,-20M689,450C676,539 646,605 599,649C552,693 494,715 425,715C391,715 359,710 330,699C301,688 275,672 252,650C229,628 209,600 194,567C178,534 167,495 160,450M364,850l-108,0l0,111l108,0M593,850l-106,0l0,111l106,0z"/>
<glyph unicode="&#xEC;" horiz-adv-x="348" d="M217,0l-80,0l0,775l80,0M252,850l-89,0l-146,186l146,0z"/>
<glyph unicode="&#xED;" horiz-adv-x="348" d="M217,0l-80,0l0,775l80,0M325,1036l-146,-186l-89,0l89,186z"/>
<glyph unicode="&#xEE;" horiz-adv-x="348" d="M217,0l-80,0l0,775l80,0M365,850l-115,0l-75,111l-74,-111l-114,0l146,185l86,0z"/>
<glyph unicode="&#xEF;" horiz-adv-x="348" d="M217,0l-80,0l0,775l80,0M114,850l-108,0l0,111l108,0M343,850l-106,0l0,111l106,0z"/>
<glyph unicode="&#xF1;" horiz-adv-x="850" d="M205,660C231,691 257,715 282,733C307,751 331,765 355,774C378,783 401,789 422,792C443,794 463,795 482,795C641,795 721,701 721,513l0,-513l-80,0l0,506C641,542 638,573 632,600C625,626 615,648 601,665C586,682 568,694 545,703C522,711 493,715 460,715C416,715 373,702 331,676C288,650 246,613 205,566l0,-566l-80,0l0,775l80,0M636,1003C636,955 625,918 603,892C581,865 551,852 512,852C502,852 488,855 471,861C453,866 435,873 417,880C398,887 382,893 367,899C352,904 342,907 337,907C318,907 305,902 298,893C291,884 286,869 284,850l-71,0C213,897 224,932 247,954C269,976 299,987 337,987C346,987 360,984 377,978C394,972 412,966 431,959C449,952 466,945 481,939C496,933 507,930 512,930C526,930 538,937 549,951C560,964 565,982 565,1003z"/>
<glyph unicode="&#xF2;" horiz-adv-x="850" d="M425,795C478,795 525,786 568,768C611,749 647,723 677,688C707,653 730,610 746,560C762,509 770,452 770,389C770,324 762,267 746,216C729,165 706,123 676,88C646,53 610,26 567,8C524,-11 477,-20 425,-20C373,-20 326,-11 284,7C241,25 205,52 175,87C145,122 122,164 105,215C88,266 80,324 80,389C80,453 88,510 105,561C121,611 144,653 174,688C204,723 240,749 283,768C326,786 373,795 425,795M425,60C464,60 500,67 533,81C565,94 593,115 616,143C639,170 658,205 671,246C684,287 690,334 690,389C690,443 684,491 671,532C658,573 639,607 616,634C593,661 565,681 533,695C500,708 464,715 425,715C385,715 349,708 317,695C284,681 256,661 233,634C210,607 192,573 179,532C166,491 160,443 160,389C160,334 166,287 179,246C192,205 210,170 233,143C256,115 284,94 317,81C349,67 385,60 425,60M542,850l-89,0l-146,186l146,0z"/>
<glyph unicode="&#xF3;" horiz-adv-x="850" d="M425,795C478,795 525,786 568,768C611,749 647,723 677,688C707,653 730,610 746,560C762,509 770,452 770,389C770,324 762,267 746,216C729,165 706,123 676,88C646,53 610,26 567,8C524,-11 477,-20 425,-20C373,-20 326,-11 284,7C241,25 205,52 175,87C145,122 122,164 105,215C88,266 80,324 80,389C80,453 88,510 105,561C121,611 144,653 174,688C204,723 240,749 283,768C326,786 373,795 425,795M425,60C464,60 500,67 533,81C565,94 593,115 616,143C639,170 658,205 671,246C684,287 690,334 690,389C690,443 684,491 671,532C658,573 639,607 616,634C593,661 565,681 533,695C500,708 464,715 425,715C385,715 349,708 317,695C284,681 256,661 233,634C210,607 192,573 179,532C166,491 160,443 160,389C160,334 166,287 179,246C192,205 210,170 233,143C256,115 284,94 317,81C349,67 385,60 425,60M542,1036l-146,-186l-89,0l89,186z"/>
<glyph unicode="&#xF4;" horiz-adv-x="850" d="M425,795C478,795 525,786 568,768C611,749 647,723 677,688C707,653 730,610 746,560C762,509 770,452 770,389C770,324 762,267 746,216C729,165 706,123 676,88C646,53 610,26 567,8C524,-11 477,-20 425,-20C373,-20 326,-11 284,7C241,25 205,52 175,87C145,122 122,164 105,215C88,266 80,324 80,389C80,453 88,510 105,561C121,611 144,653 174,688C204,723 240,749 283,768C326,786 373,795 425,795M425,60C464,60 500,67 533,81C565,94 593,115 616,143C639,170 658,205 671,246C684,287 690,334 690,389C690,443 684,491 671,532C658,573 639,607 616,634C593,661 565,681 533,695C500,708 464,715 425,715C385,715 349,708 317,695C284,681 256,661 233,634C210,607 192,573 179,532C166,491 160,443 160,389C160,334 166,287 179,246C192,205 210,170 233,143C256,115 284,94 317,81C349,67 385,60 425,60M614,850l-115,0l-75,111l-74,-111l-114,0l146,185l86,0z"/>
<glyph unicode="&#xF5;" horiz-adv-x="850" d="M425,795C478,795 525,786 568,768C611,749 647,723 677,688C707,653 730,610 746,560C762,509 770,452 770,389C770,324 762,267 746,216C729,165 706,123 676,88C646,53 610,26 567,8C524,-11 477,-20 425,-20C373,-20 326,-11 284,7C241,25 205,52 175,87C145,122 122,164 105,215C88,266 80,324 80,389C80,453 88,510 105,561C121,611 144,653 174,688C204,723 240,749 283,768C326,786 373,795 425,795M425,60C464,60 500,67 533,81C565,94 593,115 616,143C639,170 658,205 671,246C684,287 690,334 690,389C690,443 684,491 671,532C658,573 639,607 616,634C593,661 565,681 533,695C500,708 464,715 425,715C385,715 349,708 317,695C284,681 256,661 233,634C210,607 192,573 179,532C166,491 160,443 160,389C160,334 166,287 179,246C192,205 210,170 233,143C256,115 284,94 317,81C349,67 385,60 425,60M636,1003C636,955 625,918 603,892C581,865 551,852 512,852C502,852 488,855 471,861C453,866 435,873 417,880C398,887 382,893 367,899C352,904 342,907 337,907C318,907 305,902 298,893C291,884 286,869 284,850l-71,0C213,897 224,932 247,954C269,976 299,987 337,987C346,987 360,984 377,978C394,972 412,966 431,959C449,952 466,945 481,939C496,933 507,930 512,930C526,930 538,937 549,951C560,964 565,982 565,1003z"/>
<glyph unicode="&#xF6;" horiz-adv-x="850" d="M425,795C478,795 525,786 568,768C611,749 647,723 677,688C707,653 730,610 746,560C762,509 770,452 770,389C770,324 762,267 746,216C729,165 706,123 676,88C646,53 610,26 567,8C524,-11 477,-20 425,-20C373,-20 326,-11 284,7C241,25 205,52 175,87C145,122 122,164 105,215C88,266 80,324 80,389C80,453 88,510 105,561C121,611 144,653 174,688C204,723 240,749 283,768C326,786 373,795 425,795M425,60C464,60 500,67 533,81C565,94 593,115 616,143C639,170 658,205 671,246C684,287 690,334 690,389C690,443 684,491 671,532C658,573 639,607 616,634C593,661 565,681 533,695C500,708 464,715 425,715C385,715 349,708 317,695C284,681 256,661 233,634C210,607 192,573 179,532C166,491 160,443 160,389C160,334 166,287 179,246C192,205 210,170 233,143C256,115 284,94 317,81C349,67 385,60 425,60M364,850l-108,0l0,111l108,0M593,850l-106,0l0,111l106,0z"/>
<glyph unicode="&#xF7;" horiz-adv-x="915" d="M758,413l-601,0l0,87l601,0M527,603l-134,0l0,135l134,0M527,177l-134,0l0,135l134,0z"/>
<glyph unicode="&#xF8;" horiz-adv-x="850" d="M425,795C465,795 502,790 536,779C569,768 600,753 627,733l59,82l67,-42l-68,-95C713,643 734,601 749,553C763,504 770,450 770,389C770,324 762,267 746,216C729,165 706,123 676,88C646,53 610,26 567,8C524,-11 477,-20 425,-20C348,-20 283,-1 228,38l-61,-85l-67,43l69,97C140,128 118,170 103,219C88,268 80,325 80,389C80,453 88,510 105,561C121,611 144,653 174,688C204,723 240,749 283,768C326,786 373,795 425,795M425,715C385,715 349,708 317,695C284,681 256,661 233,634C210,607 192,573 179,532C166,491 160,443 160,389C160,340 165,297 175,260C185,222 199,189 218,161l362,506C559,682 535,694 509,703C483,711 455,715 425,715M425,60C464,60 500,67 533,81C565,94 593,115 616,143C639,170 658,205 671,246C684,287 690,334 690,389C690,436 685,477 676,514C666,550 652,581 635,608l-360,-504C296,89 319,78 344,71C369,64 396,60 425,60z"/>
<glyph unicode="&#xF9;" horiz-adv-x="850" d="M645,104C626,81 604,61 580,46C555,30 531,17 506,8C481,-2 456,-9 432,-13C407,-18 385,-20 366,-20C207,-20 128,74 128,263l0,512l80,0l0,-505C208,197 222,144 249,111C276,77 322,60 389,60C437,60 482,73 525,100C567,127 607,165 645,214l0,561l80,0l0,-775l-80,0M542,850l-89,0l-146,186l146,0z"/>
<glyph unicode="&#xFA;" horiz-adv-x="850" d="M645,104C626,81 604,61 580,46C555,30 531,17 506,8C481,-2 456,-9 432,-13C407,-18 385,-20 366,-20C207,-20 128,74 128,263l0,512l80,0l0,-505C208,197 222,144 249,111C276,77 322,60 389,60C437,60 482,73 525,100C567,127 607,165 645,214l0,561l80,0l0,-775l-80,0M542,1036l-146,-186l-89,0l89,186z"/>
<glyph unicode="&#xFB;" horiz-adv-x="850" d="M645,104C626,81 604,61 580,46C555,30 531,17 506,8C481,-2 456,-9 432,-13C407,-18 385,-20 366,-20C207,-20 128,74 128,263l0,512l80,0l0,-505C208,197 222,144 249,111C276,77 322,60 389,60C437,60 482,73 525,100C567,127 607,165 645,214l0,561l80,0l0,-775l-80,0M614,850l-115,0l-75,111l-74,-111l-114,0l146,185l86,0z"/>
<glyph unicode="&#xFC;" horiz-adv-x="850" d="M645,104C626,81 604,61 580,46C555,30 531,17 506,8C481,-2 456,-9 432,-13C407,-18 385,-20 366,-20C207,-20 128,74 128,263l0,512l80,0l0,-505C208,197 222,144 249,111C276,77 322,60 389,60C437,60 482,73 525,100C567,127 607,165 645,214l0,561l80,0l0,-775l-80,0M364,850l-108,0l0,111l108,0M593,850l-106,0l0,111l106,0z"/>
<glyph unicode="&#xFF;" horiz-adv-x="764" d="M712,775l-282,-789C413,-61 395,-102 378,-137C360,-172 341,-202 320,-226C299,-250 277,-268 252,-280C227,-292 199,-298 168,-298C157,-298 147,-298 137,-297C127,-296 117,-295 107,-294l0,86C112,-209 118,-209 124,-209C130,-209 136,-209 143,-209C189,-209 228,-193 261,-161C294,-130 322,-78 347,-7l-295,782l88,0l253,-676l232,676M321,850l-108,0l0,111l108,0M550,850l-106,0l0,111l106,0z"/>
<glyph unicode="&#x20AC;" horiz-adv-x="919" d="M757,319C744,206 712,121 661,65C610,8 535,-20 438,-20C340,-20 264,15 211,84C158,153 123,258 107,399l-86,0l0,80l83,0C103,487 103,497 103,508C102,519 102,534 102,552C102,569 102,585 103,598C104,611 104,621 105,628l-84,0l0,79l86,0C114,779 128,840 147,891C166,942 189,983 218,1015C246,1047 279,1070 316,1085C353,1100 394,1107 438,1107C530,1107 602,1080 655,1026C708,971 742,892 757,789l-80,0C672,827 663,861 649,891C635,920 618,945 597,965C576,985 552,1000 525,1011C498,1022 469,1027 438,1027C406,1027 376,1022 349,1011C321,1000 297,982 276,957C255,932 237,899 223,858C208,817 198,767 192,707l234,0C425,702 424,695 423,688C422,680 421,672 420,665C419,657 418,650 417,643C416,636 415,631 414,628l-225,0C188,621 188,611 188,598C187,585 187,569 187,552C187,534 187,519 188,508C188,497 188,487 189,479l208,0C396,474 395,468 394,461C393,453 392,445 391,437C390,429 389,422 388,415C387,408 386,402 385,399l-193,0C204,282 232,197 276,142C319,87 373,60 438,60C503,60 556,81 599,123C641,165 667,230 677,319z"/>
<glyph unicode="&#x160;" horiz-adv-x="1037" d="M545,-20C471,-20 406,-12 351,4C296,19 249,42 212,71C174,100 145,135 125,176C105,217 93,263 90,314l79,0C177,265 192,224 214,191C236,158 263,132 296,113C328,94 365,80 406,72C447,64 491,60 538,60C587,60 631,65 670,76C709,86 742,101 770,121C797,140 818,164 833,192C848,219 855,250 855,285C855,322 849,353 836,378C823,403 802,424 772,443C742,462 703,478 654,493C605,508 544,523 471,538C411,551 360,567 317,584C274,601 238,622 210,645C182,668 161,694 148,724C135,753 128,788 128,827C128,870 137,909 155,944C173,979 199,1010 232,1035C265,1060 304,1080 351,1094C397,1108 448,1115 504,1115C560,1115 611,1109 658,1096C705,1083 746,1064 781,1039C816,1014 844,984 866,949C887,914 901,874 907,829l-77,0C823,858 811,886 794,911C777,936 756,958 730,977C703,995 672,1009 636,1020C599,1030 558,1035 511,1035C413,1035 339,1017 289,981C238,945 213,896 213,833C213,804 218,779 227,758C236,737 252,718 275,701C297,684 326,669 363,656C400,643 445,630 500,619C532,612 565,605 599,598C633,591 666,582 699,572C731,562 762,550 791,535C820,520 846,502 868,481C889,460 907,434 920,405C933,375 939,340 939,299C939,252 929,210 910,171C890,132 863,98 828,70C793,41 751,19 703,4C654,-12 602,-20 545,-20M696,1375l-146,-185l-86,0l-146,185l114,0l75,-112l74,112z"/>
<glyph unicode="&#x17D;" horiz-adv-x="950" d="M696,1375l-146,-185l-86,0l-146,185l114,0l75,-112l74,112M890,0l-842,0l0,106l739,909l-674,0l0,80l756,0l0,-107l-740,-908l761,0z"/>
<glyph unicode="&#x161;" horiz-adv-x="764" d="M386,-20C196,-20 92,56 75,209l81,0C162,162 184,126 221,100C258,73 312,60 385,60C420,60 451,64 478,72C505,79 527,90 545,103C562,116 575,131 584,149C593,167 597,186 597,207C597,228 594,245 587,260C580,275 567,288 549,300C530,312 505,324 474,335C442,346 401,357 352,370C310,381 273,392 240,403C207,414 180,428 158,445C135,462 118,482 107,506C96,529 90,559 90,594C90,625 97,653 110,678C123,703 141,724 164,741C187,758 216,772 249,781C282,790 319,795 360,795C452,795 522,780 570,749C617,718 644,669 649,602l-81,0C563,641 544,669 513,688C481,706 434,715 371,715C342,715 315,712 290,707C265,702 244,694 227,684C209,673 195,660 185,645C175,629 170,611 170,591C170,580 172,568 176,556C180,544 190,532 207,519C223,506 247,494 280,481C313,468 357,454 414,440C459,429 498,417 531,405C564,392 591,378 613,361C634,344 650,324 661,301C672,278 677,252 677,221C677,187 670,155 657,126C643,96 624,70 599,49C574,28 543,11 507,-1C471,-14 431,-20 386,-20M551,1030l-146,-185l-86,0l-146,185l114,0l75,-112l74,112z"/>
<glyph unicode="&#x17E;" horiz-adv-x="764" d="M551,1030l-146,-185l-86,0l-146,185l114,0l75,-112l74,112M679,680l-537,-600l562,0l0,-80l-646,0l0,95l528,600l-499,0l0,80l592,0z"/>
<glyph unicode="&#xA6;" horiz-adv-x="255" d="M165,-307l-75,0l0,547l75,0M165,500l-75,0l0,546l75,0z"/>
<glyph unicode="&#xB2;" horiz-adv-x="487" d="M458,530l-428,0C37,565 57,600 88,634C119,668 160,701 210,733C241,752 266,768 285,783C304,797 320,810 331,823C342,836 350,848 355,860C359,872 361,885 361,899C361,959 325,989 252,989C220,989 194,983 175,970C155,957 141,940 134,917l-88,0C68,1009 137,1055 253,1055C284,1055 313,1051 338,1044C363,1037 384,1026 401,1013C418,1000 432,984 441,966C450,947 455,927 455,905C455,885 453,867 448,851C443,835 434,820 423,806C412,791 397,777 378,762C359,747 336,732 308,715C253,682 205,643 162,598l296,0z"/>
<glyph unicode="&#xB3;" horiz-adv-x="487" d="M431,930C431,900 424,875 409,854C394,833 371,819 340,810C385,797 416,779 432,757C448,734 456,707 456,674C456,652 451,632 442,613C432,594 418,577 400,563C382,548 360,537 335,529C309,521 280,517 248,517C124,517 53,562 35,652l93,0C133,629 146,612 165,600C184,587 210,581 243,581C324,581 364,617 364,689C364,745 323,773 241,773l-31,0l0,60C252,834 284,842 307,856C329,870 340,891 340,919C340,966 307,990 242,990C186,990 152,970 140,930l-91,0C72,1013 136,1055 243,1055C303,1055 349,1043 382,1019C415,995 431,965 431,930z"/>
<glyph unicode="&#xB9;" horiz-adv-x="487" d="M334,530l-86,0l0,364C227,880 204,869 178,862C152,855 122,851 87,850l0,70C147,921 193,933 225,956C257,978 274,1011 276,1055l58,0z"/>
<glyph unicode="&#xBC;" horiz-adv-x="1128" d="M1067,122l-89,0l0,-122l-75,0l0,122l-253,0l0,60l267,313l61,0l0,-308l89,0M926,968l-687,-968l-85,0l688,968M308,484l-77,0l0,324C201,786 152,775 83,775l0,82C198,857 256,898 256,980l52,0M903,187l0,188l-159,-188z"/>
<glyph unicode="&#xBD;" horiz-adv-x="1128" d="M1067,0l-378,0C694,37 708,72 733,106C758,139 796,172 848,203C879,221 903,236 921,249C939,262 953,273 962,283C971,293 978,303 981,312C984,321 985,332 985,344C985,369 977,388 961,403C945,418 922,425 892,425C863,425 838,418 817,405C796,392 782,374 777,352l-85,0C710,449 777,497 893,497C954,497 998,483 1025,456C1052,429 1065,394 1065,351C1065,332 1063,315 1060,300C1057,285 1051,270 1042,256C1033,242 1020,228 1003,214C986,200 965,185 938,168C913,153 889,136 866,118C843,100 825,84 812,70l255,0M926,968l-687,-968l-85,0l688,968M308,484l-77,0l0,324C201,786 152,775 83,775l0,82C198,857 256,898 256,980l52,0z"/>
<glyph unicode="&#xBE;" horiz-adv-x="1128" d="M1067,122l-89,0l0,-122l-75,0l0,122l-253,0l0,60l267,313l61,0l0,-308l89,0M926,968l-687,-968l-85,0l688,968M903,187l0,188l-159,-188M326,744C364,737 392,723 409,703C426,683 434,657 434,624C434,603 430,583 421,565C412,546 400,530 383,517C366,503 346,492 322,484C298,476 271,472 240,472C178,472 132,484 103,507C74,530 56,566 49,613l79,0C130,592 141,574 161,560C180,546 205,539 235,539C269,539 297,548 319,566C340,583 351,607 351,637C351,660 342,678 323,689C304,700 278,705 243,705l-37,0l0,73C246,778 277,784 298,795C319,806 329,824 329,847C329,866 320,881 302,892C283,903 261,908 234,908C209,908 187,903 170,892C152,881 141,866 138,848l-78,0C69,892 87,925 114,947C140,969 180,980 235,980C292,980 336,968 366,945C395,922 410,892 410,857C410,827 404,803 391,784C378,765 356,751 326,744z"/>
<glyph unicode="&#xD0;" horiz-adv-x="1122" d="M1026,556C1026,185 842,0 473,0l-331,0l0,529l-129,0l0,80l129,0l0,485l331,0C658,1094 796,1050 888,961C980,872 1026,737 1026,556M941,556C941,628 934,692 920,749C905,806 880,854 844,894C808,933 760,963 700,984C639,1005 563,1015 471,1015l-249,0l0,-406l358,0l0,-80l-358,0l0,-449l249,0C562,80 638,91 699,112C759,133 807,165 843,206C879,247 904,296 919,355C934,414 941,481 941,556z"/>
<glyph unicode="&#xD7;" horiz-adv-x="790" d="M567,212l-180,181l-183,-183l-62,61l183,183l-183,183l62,62l183,-183l182,182l61,-62l-182,-182l181,-180z"/>
<glyph unicode="&#xDD;" horiz-adv-x="1037" d="M988,1095l-428,-625l0,-470l-80,0l0,470l-432,625l94,0l378,-541l375,541M636,1416l-146,-186l-89,0l89,186z"/>
<glyph unicode="&#xDE;" horiz-adv-x="1037" d="M143,1095l80,0l0,-259l318,0C594,836 646,832 695,823C744,814 788,799 826,776C863,753 893,721 916,682C938,643 949,593 949,532C949,425 915,343 848,287C780,231 681,203 551,203l-328,0l0,-203l-80,0M223,283l331,0C610,283 658,288 697,299C736,310 769,325 794,346C819,367 837,392 848,423C859,453 865,488 865,528C865,577 857,616 840,646C823,676 800,699 771,716C742,732 708,743 670,748C632,753 592,756 550,756l-327,0z"/>
<glyph unicode="&#xF0;" horiz-adv-x="850" d="M528,961C620,857 685,760 723,670C760,581 779,485 779,382C779,319 771,263 754,214C737,164 714,122 683,87C652,52 614,26 571,8C528,-11 479,-20 425,-20C372,-20 323,-11 280,7C237,25 200,51 169,86C138,121 114,163 97,213C80,262 71,319 71,382C71,445 80,501 98,550C115,599 140,640 172,673C203,706 241,732 286,749C330,766 379,774 432,774C451,774 475,771 502,766C529,761 559,749 593,732C576,769 555,804 530,837C505,870 480,901 453,931C426,918 397,904 366,889C335,874 304,860 275,847C270,856 265,865 260,874C255,882 251,890 247,898l162,75C389,992 368,1011 346,1030C323,1049 297,1068 268,1089l119,0C407,1074 424,1060 439,1047C454,1034 468,1021 481,1007C504,1018 530,1031 559,1044C587,1057 614,1069 639,1081C644,1072 649,1062 654,1053C659,1044 663,1035 667,1028M425,60C462,60 497,67 530,82C563,96 591,117 616,144C640,171 659,205 674,245C688,285 695,331 695,382C695,433 688,477 674,516C659,555 640,587 616,613C591,638 563,658 530,671C497,684 462,690 425,690C388,690 353,684 320,671C287,658 258,638 233,613C208,587 189,555 175,516C161,477 154,433 154,382C154,331 161,285 175,245C189,205 208,171 233,144C258,117 287,96 320,82C353,67 388,60 425,60z"/>
<glyph unicode="&#xFD;" horiz-adv-x="764" d="M712,775l-282,-789C413,-61 395,-102 378,-137C360,-172 341,-202 320,-226C299,-250 277,-268 252,-280C227,-292 199,-298 168,-298C157,-298 147,-298 137,-297C127,-296 117,-295 107,-294l0,86C112,-209 118,-209 124,-209C130,-209 136,-209 143,-209C189,-209 228,-193 261,-161C294,-130 322,-78 347,-7l-295,782l88,0l253,-676l232,676M499,1036l-146,-186l-89,0l89,186z"/>
<glyph unicode="&#xFE;" horiz-adv-x="850" d="M205,660C230,691 255,715 279,733C302,751 325,765 347,774C369,783 390,789 411,792C431,795 451,796 470,796C518,796 561,786 598,767C635,748 667,721 692,686C717,651 737,608 750,559C763,510 770,455 770,395C770,332 762,275 747,224C731,173 709,129 682,93C654,57 621,29 584,10C546,-10 505,-20 461,-20C442,-20 423,-19 403,-17C383,-16 362,-12 341,-5C320,2 298,12 275,25C252,38 229,55 205,77l0,-362l-80,0l0,1380l80,0M205,174C277,98 360,60 453,60C489,60 522,67 551,82C580,96 604,117 625,145C646,173 662,208 673,250C684,291 690,340 690,395C690,500 670,580 630,634C589,688 532,715 459,715C363,715 278,663 205,560z"/>
<glyph unicode="&#x200C;" horiz-adv-x="80" d="M80,-215l-80,0l0,1691l80,0z"/>
<glyph unicode="&#x200D;" horiz-adv-x="80" d="M80,-215l-80,0l0,1485l80,0M370,1482l-274,-142l274,-144l0,-48l-330,168l-330,-170l0,48l274,142l-274,144l0,48l330,-168l330,170z"/>
<glyph unicode="&#x25CC;" horiz-adv-x="1764" d="M644,1128C613,1111 585,1090 561,1067C537,1043 515,1015 496,984l-112,84C431,1137 491,1195 564,1244M1376,1068l-112,-84C1226,1046 1178,1094 1120,1128l76,116C1271,1195 1331,1137 1376,1068M456,668l-140,-24C308,682 304,722 304,764C304,809 308,850 316,888l140,-16C448,838 444,802 444,764C444,730 448,698 456,668M1456,764C1456,722 1452,682 1444,644l-140,24C1312,698 1316,730 1316,764C1316,802 1312,838 1304,872l140,16C1452,848 1456,807 1456,764M1008,204C962,196 919,192 880,192C841,192 798,196 752,204l28,136C812,332 845,328 880,328C915,328 950,332 984,340M644,404l-80,-112C491,339 431,397 384,468l112,80C515,517 537,489 561,466C585,442 613,421 644,404M1008,1324l-24,-132C950,1200 915,1204 880,1204C845,1204 812,1200 780,1192l-28,132C775,1329 798,1333 819,1336C840,1339 860,1340 880,1340C900,1340 921,1339 942,1336C963,1333 985,1329 1008,1324M1376,468C1331,397 1271,339 1196,292l-76,112C1178,438 1226,486 1264,548z"/>
<glyph unicode="&#x2460;" horiz-adv-x="1503" d="M1423,648C1423,587 1415,528 1399,471C1383,414 1361,360 1332,311C1303,261 1268,215 1227,174C1186,133 1140,97 1091,68C1042,39 989,16 932,0C875,-17 815,-25 754,-25C693,-25 634,-17 577,-1C520,15 466,38 416,67C366,96 320,131 279,172C238,213 202,258 173,308C144,358 121,412 105,469C88,526 80,586 80,648C80,709 88,769 105,826C121,883 144,937 173,987C202,1037 238,1083 279,1124C320,1165 366,1200 416,1229C466,1258 520,1281 577,1297C634,1313 693,1321 754,1321C815,1321 873,1313 930,1297C986,1280 1039,1257 1089,1228C1138,1199 1184,1163 1225,1122C1266,1081 1301,1035 1330,985C1359,935 1382,882 1399,825C1415,768 1423,709 1423,648M1343,648C1343,701 1336,752 1322,802C1307,852 1287,899 1262,943C1236,987 1205,1027 1169,1064C1132,1101 1092,1132 1049,1158C1005,1184 958,1204 908,1219C858,1234 806,1241 752,1241C671,1241 595,1225 524,1194C452,1162 389,1119 335,1065C281,1010 238,947 207,876C176,804 160,728 160,648C160,567 176,490 207,419C238,347 281,284 335,230C389,176 452,133 524,102C595,71 671,55 752,55C832,55 908,71 979,102C1050,133 1113,176 1167,230C1221,284 1264,347 1296,419C1327,490 1343,567 1343,648M788,281l-82,0l0,640l-66,-79l-51,56l117,147l82,0z"/>
<glyph unicode="&#x2461;" horiz-adv-x="1503" d="M1423,648C1423,587 1415,528 1399,471C1383,414 1361,360 1332,311C1303,261 1268,215 1227,174C1186,133 1140,97 1091,68C1042,39 989,16 932,0C875,-17 815,-25 754,-25C693,-25 634,-17 577,-1C520,15 466,38 416,67C366,96 320,131 279,172C238,213 202,258 173,308C144,358 121,412 105,469C88,526 80,586 80,648C80,709 88,769 105,826C121,883 144,937 173,987C202,1037 238,1083 279,1124C320,1165 366,1200 416,1229C466,1258 520,1281 577,1297C634,1313 693,1321 754,1321C815,1321 873,1313 930,1297C986,1280 1039,1257 1089,1228C1138,1199 1184,1163 1225,1122C1266,1081 1301,1035 1330,985C1359,935 1382,882 1399,825C1415,768 1423,709 1423,648M1343,648C1343,701 1336,752 1322,802C1307,852 1287,899 1262,943C1236,987 1205,1027 1169,1064C1132,1101 1092,1132 1049,1158C1005,1184 958,1204 908,1219C858,1234 806,1241 752,1241C671,1241 595,1225 524,1194C452,1162 389,1119 335,1065C281,1010 238,947 207,876C176,804 160,728 160,648C160,567 176,490 207,419C238,347 281,284 335,230C389,176 452,133 524,102C595,71 671,55 752,55C832,55 908,71 979,102C1050,133 1113,176 1167,230C1221,284 1264,347 1296,419C1327,490 1343,567 1343,648M971,844C971,780 941,722 881,670C854,649 826,628 799,607C771,586 743,566 715,545C656,492 626,430 626,359l339,0l0,-78l-434,0C531,290 531,299 531,308C530,316 530,324 530,332C530,423 561,503 623,571C631,580 649,596 678,619C707,642 746,672 796,710C858,757 889,801 889,844C889,932 843,976 751,976C678,976 622,945 583,883l-64,45C544,967 577,997 619,1020C661,1042 705,1053 751,1053C783,1053 813,1048 840,1038C867,1027 890,1013 910,994C929,975 944,953 955,928C966,902 971,874 971,844z"/>
<glyph unicode="&#x2462;" horiz-adv-x="1503" d="M1423,648C1423,587 1415,528 1399,471C1383,414 1361,360 1332,311C1303,261 1268,215 1227,174C1186,133 1140,97 1091,68C1042,39 989,16 932,0C875,-17 815,-25 754,-25C693,-25 634,-17 577,-1C520,15 466,38 416,67C366,96 320,131 279,172C238,213 202,258 173,308C144,358 121,412 105,469C88,526 80,586 80,648C80,709 88,769 105,826C121,883 144,937 173,987C202,1037 238,1083 279,1124C320,1165 366,1200 416,1229C466,1258 520,1281 577,1297C634,1313 693,1321 754,1321C815,1321 873,1313 930,1297C986,1280 1039,1257 1089,1228C1138,1199 1184,1163 1225,1122C1266,1081 1301,1035 1330,985C1359,935 1382,882 1399,825C1415,768 1423,709 1423,648M1343,648C1343,701 1336,752 1322,802C1307,852 1287,899 1262,943C1236,987 1205,1027 1169,1064C1132,1101 1092,1132 1049,1158C1005,1184 958,1204 908,1219C858,1234 806,1241 752,1241C671,1241 595,1225 524,1194C452,1162 389,1119 335,1065C281,1010 238,947 207,876C176,804 160,728 160,648C160,567 176,490 207,419C238,347 281,284 335,230C389,176 452,133 524,102C595,71 671,55 752,55C832,55 908,71 979,102C1050,133 1113,176 1167,230C1221,284 1264,347 1296,419C1327,490 1343,567 1343,648M992,486C992,455 986,426 974,399C961,372 944,348 921,329C898,309 872,293 841,282C810,271 775,265 738,265C663,265 597,285 538,326l0,82C605,365 671,343 738,343C763,343 786,347 807,354C828,361 846,370 861,383C876,396 888,411 897,430C906,448 910,468 910,491C910,514 905,534 896,553C887,572 874,588 858,601C842,614 823,625 802,633C781,640 758,644 733,644l-60,0l0,77l58,0C748,721 764,725 780,732C796,739 810,748 823,760C836,771 846,785 854,800C862,815 866,831 866,848C866,868 863,886 856,903C849,919 840,933 829,945C817,957 803,966 788,973C772,979 755,982 738,982C728,982 715,981 700,978C684,975 668,972 652,968C636,964 621,960 608,955C594,950 584,946 578,942l0,78C586,1025 597,1029 611,1034C624,1039 639,1043 654,1047C669,1051 685,1054 700,1057C715,1059 729,1060 740,1060C769,1060 796,1055 821,1044C846,1033 868,1019 887,1000C906,981 921,959 932,934C943,909 948,882 948,853C948,788 920,733 863,688C903,669 935,641 958,606C981,570 992,530 992,486z"/>
<glyph unicode="&#x2463;" horiz-adv-x="1503" d="M1423,648C1423,587 1415,528 1399,471C1383,414 1361,360 1332,311C1303,261 1268,215 1227,174C1186,133 1140,97 1091,68C1042,39 989,16 932,0C875,-17 815,-25 754,-25C693,-25 634,-17 577,-1C520,15 466,38 416,67C366,96 320,131 279,172C238,213 202,258 173,308C144,358 121,412 105,469C88,526 80,586 80,648C80,709 88,769 105,826C121,883 144,937 173,987C202,1037 238,1083 279,1124C320,1165 366,1200 416,1229C466,1258 520,1281 577,1297C634,1313 693,1321 754,1321C815,1321 873,1313 930,1297C986,1280 1039,1257 1089,1228C1138,1199 1184,1163 1225,1122C1266,1081 1301,1035 1330,985C1359,935 1382,882 1399,825C1415,768 1423,709 1423,648M1343,648C1343,701 1336,752 1322,802C1307,852 1287,899 1262,943C1236,987 1205,1027 1169,1064C1132,1101 1092,1132 1049,1158C1005,1184 958,1204 908,1219C858,1234 806,1241 752,1241C671,1241 595,1225 524,1194C452,1162 389,1119 335,1065C281,1010 238,947 207,876C176,804 160,728 160,648C160,567 176,490 207,419C238,347 281,284 335,230C389,176 452,133 524,102C595,71 671,55 752,55C832,55 908,71 979,102C1050,133 1113,176 1167,230C1221,284 1264,347 1296,419C1327,490 1343,567 1343,648M994,503l-134,0l0,-222l-83,0l0,222l-327,0l0,78l310,464l100,0l0,-464l134,0M777,581l0,351l-229,-351z"/>
<glyph unicode="&#x2464;" horiz-adv-x="1503" d="M1423,648C1423,587 1415,528 1399,471C1383,414 1361,360 1332,311C1303,261 1268,215 1227,174C1186,133 1140,97 1091,68C1042,39 989,16 932,0C875,-17 815,-25 754,-25C693,-25 634,-17 577,-1C520,15 466,38 416,67C366,96 320,131 279,172C238,213 202,258 173,308C144,358 121,412 105,469C88,526 80,586 80,648C80,709 88,769 105,826C121,883 144,937 173,987C202,1037 238,1083 279,1124C320,1165 366,1200 416,1229C466,1258 520,1281 577,1297C634,1313 693,1321 754,1321C815,1321 873,1313 930,1297C986,1280 1039,1257 1089,1228C1138,1199 1184,1163 1225,1122C1266,1081 1301,1035 1330,985C1359,935 1382,882 1399,825C1415,768 1423,709 1423,648M1343,648C1343,701 1336,752 1322,802C1307,852 1287,899 1262,943C1236,987 1205,1027 1169,1064C1132,1101 1092,1132 1049,1158C1005,1184 958,1204 908,1219C858,1234 806,1241 752,1241C671,1241 595,1225 524,1194C452,1162 389,1119 335,1065C281,1010 238,947 207,876C176,804 160,728 160,648C160,567 176,490 207,419C238,347 281,284 335,230C389,176 452,133 524,102C595,71 671,55 752,55C832,55 908,71 979,102C1050,133 1113,176 1167,230C1221,284 1264,347 1296,419C1327,490 1343,567 1343,648M1005,507C1005,474 998,442 984,413C969,384 950,358 926,336C901,314 873,297 841,284C808,271 774,265 739,265C705,265 673,268 644,274C614,279 586,287 559,298l0,82C611,355 666,343 725,343C754,343 780,347 805,355C829,363 850,374 867,389C884,404 898,421 908,441C918,461 923,483 923,507C923,528 918,549 907,569C896,589 882,607 865,622C847,637 827,650 804,659C781,668 756,673 731,673l-153,0l0,380l389,0l0,-78l-307,0l0,-224l75,0C774,751 811,745 844,733C877,720 905,703 929,681C953,659 972,633 985,604C998,574 1005,542 1005,507z"/>
<glyph unicode="&#x2465;" horiz-adv-x="1503" d="M1423,648C1423,587 1415,528 1399,471C1383,414 1361,360 1332,311C1303,261 1268,215 1227,174C1186,133 1140,97 1091,68C1042,39 989,16 932,0C875,-17 815,-25 754,-25C693,-25 634,-17 577,-1C520,15 466,38 416,67C366,96 320,131 279,172C238,213 202,258 173,308C144,358 121,412 105,469C88,526 80,586 80,648C80,709 88,769 105,826C121,883 144,937 173,987C202,1037 238,1083 279,1124C320,1165 366,1200 416,1229C466,1258 520,1281 577,1297C634,1313 693,1321 754,1321C815,1321 873,1313 930,1297C986,1280 1039,1257 1089,1228C1138,1199 1184,1163 1225,1122C1266,1081 1301,1035 1330,985C1359,935 1382,882 1399,825C1415,768 1423,709 1423,648M1343,648C1343,701 1336,752 1322,802C1307,852 1287,899 1262,943C1236,987 1205,1027 1169,1064C1132,1101 1092,1132 1049,1158C1005,1184 958,1204 908,1219C858,1234 806,1241 752,1241C671,1241 595,1225 524,1194C452,1162 389,1119 335,1065C281,1010 238,947 207,876C176,804 160,728 160,648C160,567 176,490 207,419C238,347 281,284 335,230C389,176 452,133 524,102C595,71 671,55 752,55C832,55 908,71 979,102C1050,133 1113,176 1167,230C1221,284 1264,347 1296,419C1327,490 1343,567 1343,648M977,497C977,464 972,434 961,406C950,378 934,354 915,333C895,312 871,295 844,283C817,271 786,265 753,265C716,265 682,275 651,296C619,316 591,344 568,379C545,414 526,455 513,502C500,549 493,600 493,655C493,714 501,769 516,819C531,868 553,911 582,947C611,982 645,1010 686,1030C726,1050 771,1060 820,1060C847,1060 879,1053 918,1038l0,-78C885,975 852,982 819,982C785,982 753,974 724,959C695,943 669,922 647,896C625,869 608,839 595,804C582,769 576,733 575,695l-1,-27C628,725 690,754 761,754C793,754 822,748 849,735C875,722 898,705 917,682C936,659 950,632 961,601C972,570 977,535 977,497M895,498C895,553 883,596 859,628C834,660 801,676 759,676C682,676 624,639 585,565C586,539 591,513 601,487C611,460 624,436 640,415C655,394 673,376 693,363C713,350 734,343 755,343C799,343 833,357 858,384C883,411 895,449 895,498z"/>
<glyph unicode="&#x2466;" horiz-adv-x="1503" d="M1423,648C1423,587 1415,528 1399,471C1383,414 1361,360 1332,311C1303,261 1268,215 1227,174C1186,133 1140,97 1091,68C1042,39 989,16 932,0C875,-17 815,-25 754,-25C693,-25 634,-17 577,-1C520,15 466,38 416,67C366,96 320,131 279,172C238,213 202,258 173,308C144,358 121,412 105,469C88,526 80,586 80,648C80,709 88,769 105,826C121,883 144,937 173,987C202,1037 238,1083 279,1124C320,1165 366,1200 416,1229C466,1258 520,1281 577,1297C634,1313 693,1321 754,1321C815,1321 873,1313 930,1297C986,1280 1039,1257 1089,1228C1138,1199 1184,1163 1225,1122C1266,1081 1301,1035 1330,985C1359,935 1382,882 1399,825C1415,768 1423,709 1423,648M1343,648C1343,701 1336,752 1322,802C1307,852 1287,899 1262,943C1236,987 1205,1027 1169,1064C1132,1101 1092,1132 1049,1158C1005,1184 958,1204 908,1219C858,1234 806,1241 752,1241C671,1241 595,1225 524,1194C452,1162 389,1119 335,1065C281,1010 238,947 207,876C176,804 160,728 160,648C160,567 176,490 207,419C238,347 281,284 335,230C389,176 452,133 524,102C595,71 671,55 752,55C832,55 908,71 979,102C1050,133 1113,176 1167,230C1221,284 1264,347 1296,419C1327,490 1343,567 1343,648M1026,968C955,883 896,808 849,745C802,682 766,624 741,571C700,488 680,406 680,327C680,318 680,309 681,302C682,295 683,288 684,281l-82,0C599,296 598,312 598,327C598,442 636,562 713,687C726,708 749,741 784,788C819,834 865,894 923,968l-362,0l0,77l465,0z"/>
<glyph unicode="&#x2467;" horiz-adv-x="1503" d="M1423,648C1423,587 1415,528 1399,471C1383,414 1361,360 1332,311C1303,261 1268,215 1227,174C1186,133 1140,97 1091,68C1042,39 989,16 932,0C875,-17 815,-25 754,-25C693,-25 634,-17 577,-1C520,15 466,38 416,67C366,96 320,131 279,172C238,213 202,258 173,308C144,358 121,412 105,469C88,526 80,586 80,648C80,709 88,769 105,826C121,883 144,937 173,987C202,1037 238,1083 279,1124C320,1165 366,1200 416,1229C466,1258 520,1281 577,1297C634,1313 693,1321 754,1321C815,1321 873,1313 930,1297C986,1280 1039,1257 1089,1228C1138,1199 1184,1163 1225,1122C1266,1081 1301,1035 1330,985C1359,935 1382,882 1399,825C1415,768 1423,709 1423,648M1343,648C1343,701 1336,752 1322,802C1307,852 1287,899 1262,943C1236,987 1205,1027 1169,1064C1132,1101 1092,1132 1049,1158C1005,1184 958,1204 908,1219C858,1234 806,1241 752,1241C671,1241 595,1225 524,1194C452,1162 389,1119 335,1065C281,1010 238,947 207,876C176,804 160,728 160,648C160,567 176,490 207,419C238,347 281,284 335,230C389,176 452,133 524,102C595,71 671,55 752,55C832,55 908,71 979,102C1050,133 1113,176 1167,230C1221,284 1264,347 1296,419C1327,490 1343,567 1343,648M1000,479C1000,449 994,421 982,395C970,369 953,346 932,327C911,308 885,293 856,282C827,271 795,265 760,265C725,265 692,270 663,281C633,292 608,307 587,326C566,345 549,367 538,393C526,419 520,448 520,479C520,501 522,521 526,538C529,555 537,572 548,589C559,605 574,621 593,638C612,655 638,673 669,694C587,746 546,805 546,872C546,933 565,979 603,1012C641,1044 693,1060 760,1060C825,1060 877,1044 915,1012C953,979 972,933 972,872C972,805 931,746 850,694C881,673 906,654 926,637C945,620 961,604 972,588C983,572 990,555 994,538C998,521 1000,501 1000,479M918,479C918,536 865,594 760,652C655,595 602,537 602,479C602,463 606,447 615,431C624,414 635,400 650,387C665,374 682,363 701,355C720,347 739,343 760,343C781,343 801,347 820,355C839,363 855,373 870,386C885,399 896,413 905,430C914,446 918,462 918,479M890,872C890,887 887,901 880,914C873,927 863,939 851,949C839,959 825,967 810,973C794,979 777,982 760,982C743,982 726,979 710,973C694,967 680,959 668,949C656,939 647,927 640,914C633,901 629,887 629,872C629,862 633,851 641,838C648,825 658,811 671,798C684,785 698,772 713,760C728,748 744,738 760,730C775,738 791,748 806,760C821,772 835,785 848,798C861,811 871,825 879,838C886,851 890,862 890,872z"/>
<glyph unicode="&#x2468;" horiz-adv-x="1503" d="M1423,648C1423,587 1415,528 1399,471C1383,414 1361,360 1332,311C1303,261 1268,215 1227,174C1186,133 1140,97 1091,68C1042,39 989,16 932,0C875,-17 815,-25 754,-25C693,-25 634,-17 577,-1C520,15 466,38 416,67C366,96 320,131 279,172C238,213 202,258 173,308C144,358 121,412 105,469C88,526 80,586 80,648C80,709 88,769 105,826C121,883 144,937 173,987C202,1037 238,1083 279,1124C320,1165 366,1200 416,1229C466,1258 520,1281 577,1297C634,1313 693,1321 754,1321C815,1321 873,1313 930,1297C986,1280 1039,1257 1089,1228C1138,1199 1184,1163 1225,1122C1266,1081 1301,1035 1330,985C1359,935 1382,882 1399,825C1415,768 1423,709 1423,648M1343,648C1343,701 1336,752 1322,802C1307,852 1287,899 1262,943C1236,987 1205,1027 1169,1064C1132,1101 1092,1132 1049,1158C1005,1184 958,1204 908,1219C858,1234 806,1241 752,1241C671,1241 595,1225 524,1194C452,1162 389,1119 335,1065C281,1010 238,947 207,876C176,804 160,728 160,648C160,567 176,490 207,419C238,347 281,284 335,230C389,176 452,133 524,102C595,71 671,55 752,55C832,55 908,71 979,102C1050,133 1113,176 1167,230C1221,284 1264,347 1296,419C1327,490 1343,567 1343,648M999,669C999,610 992,555 977,506C962,457 940,414 913,379C885,343 851,315 812,295C772,275 727,265 678,265C646,265 611,272 573,286l0,78C608,350 643,343 679,343C713,343 744,351 773,366C802,381 827,401 848,427C869,453 885,483 897,518C909,553 916,590 917,629l1,27C864,600 802,572 731,572C700,572 672,578 646,591C619,603 596,620 577,642C558,664 543,690 532,720C521,750 515,783 515,818C515,851 521,883 532,912C543,941 558,967 578,989C597,1011 621,1028 648,1041C675,1054 706,1060 739,1060C776,1060 810,1050 842,1030C874,1009 902,981 925,946C948,910 966,868 979,821C992,774 999,723 999,669M902,776C902,800 898,824 889,849C880,873 867,895 852,915C837,935 819,951 799,964C779,976 758,982 737,982C694,982 659,967 634,937C609,906 596,866 596,817C596,765 608,724 633,694C657,664 690,649 732,649C753,649 773,653 794,660C814,667 832,677 848,689C864,700 877,714 887,729C897,744 902,760 902,776z"/>
<glyph unicode="&#x2469;" horiz-adv-x="1503" d="M1423,648C1423,587 1415,528 1399,471C1383,414 1361,360 1332,311C1303,261 1268,215 1227,174C1186,133 1140,97 1091,68C1042,39 989,16 932,0C875,-17 815,-25 754,-25C693,-25 634,-17 577,-1C520,15 466,38 416,67C366,96 320,131 279,172C238,213 202,258 173,308C144,358 121,412 105,469C88,526 80,586 80,648C80,709 88,769 105,826C121,883 144,937 173,987C202,1037 238,1083 279,1124C320,1165 366,1200 416,1229C466,1258 520,1281 577,1297C634,1313 693,1321 754,1321C815,1321 873,1313 930,1297C986,1280 1039,1257 1089,1228C1138,1199 1184,1163 1225,1122C1266,1081 1301,1035 1330,985C1359,935 1382,882 1399,825C1415,768 1423,709 1423,648M1343,648C1343,701 1336,752 1322,802C1307,852 1287,899 1262,943C1236,987 1205,1027 1169,1064C1132,1101 1092,1132 1049,1158C1005,1184 958,1204 908,1219C858,1234 806,1241 752,1241C671,1241 595,1225 524,1194C452,1162 389,1119 335,1065C281,1010 238,947 207,876C176,804 160,728 160,648C160,567 176,490 207,419C238,347 281,284 335,230C389,176 452,133 524,102C595,71 671,55 752,55C832,55 908,71 979,102C1050,133 1113,176 1167,230C1221,284 1264,347 1296,419C1327,490 1343,567 1343,648M1200,662C1200,607 1194,556 1182,508C1169,460 1152,418 1130,382C1108,346 1082,318 1052,297C1021,276 988,265 953,265C917,265 884,276 853,297C822,318 796,346 774,383C751,419 734,461 721,509C708,557 702,608 702,662C702,716 708,767 721,816C733,864 750,906 773,943C795,979 821,1008 852,1029C883,1050 916,1060 953,1060C988,1060 1021,1050 1052,1029C1082,1008 1108,979 1130,943C1152,907 1169,865 1182,817C1194,768 1200,717 1200,662M1124,662C1124,706 1120,747 1112,786C1104,824 1093,857 1078,886C1063,914 1045,936 1024,953C1003,969 979,977 953,977C927,977 903,969 882,953C861,937 843,915 828,887C813,858 802,825 794,787C786,748 782,707 782,662C782,618 786,577 794,539C801,501 812,468 827,440C842,411 860,389 881,373C902,356 926,348 953,348C979,348 1003,356 1024,373C1045,389 1063,411 1078,440C1093,468 1104,501 1112,540C1120,578 1124,619 1124,662M564,281l-82,0l0,640l-66,-79l-51,56l117,147l82,0z"/>
<glyph unicode="&#x246A;" horiz-adv-x="1503" d="M1423,648C1423,587 1415,528 1399,471C1383,414 1361,360 1332,311C1303,261 1268,215 1227,174C1186,133 1140,97 1091,68C1042,39 989,16 932,0C875,-17 815,-25 754,-25C693,-25 634,-17 577,-1C520,15 466,38 416,67C366,96 320,131 279,172C238,213 202,258 173,308C144,358 121,412 105,469C88,526 80,586 80,648C80,709 88,769 105,826C121,883 144,937 173,987C202,1037 238,1083 279,1124C320,1165 366,1200 416,1229C466,1258 520,1281 577,1297C634,1313 693,1321 754,1321C815,1321 873,1313 930,1297C986,1280 1039,1257 1089,1228C1138,1199 1184,1163 1225,1122C1266,1081 1301,1035 1330,985C1359,935 1382,882 1399,825C1415,768 1423,709 1423,648M1343,648C1343,701 1336,752 1322,802C1307,852 1287,899 1262,943C1236,987 1205,1027 1169,1064C1132,1101 1092,1132 1049,1158C1005,1184 958,1204 908,1219C858,1234 806,1241 752,1241C671,1241 595,1225 524,1194C452,1162 389,1119 335,1065C281,1010 238,947 207,876C176,804 160,728 160,648C160,567 176,490 207,419C238,347 281,284 335,230C389,176 452,133 524,102C595,71 671,55 752,55C832,55 908,71 979,102C1050,133 1113,176 1167,230C1221,284 1264,347 1296,419C1327,490 1343,567 1343,648M1011,281l-82,0l0,640l-66,-79l-51,56l117,147l82,0M624,281l-82,0l0,640l-66,-79l-51,56l117,147l82,0z"/>
<glyph unicode="&#x246B;" horiz-adv-x="1503" d="M1423,648C1423,587 1415,528 1399,471C1383,414 1361,360 1332,311C1303,261 1268,215 1227,174C1186,133 1140,97 1091,68C1042,39 989,16 932,0C875,-17 815,-25 754,-25C693,-25 634,-17 577,-1C520,15 466,38 416,67C366,96 320,131 279,172C238,213 202,258 173,308C144,358 121,412 105,469C88,526 80,586 80,648C80,709 88,769 105,826C121,883 144,937 173,987C202,1037 238,1083 279,1124C320,1165 366,1200 416,1229C466,1258 520,1281 577,1297C634,1313 693,1321 754,1321C815,1321 873,1313 930,1297C986,1280 1039,1257 1089,1228C1138,1199 1184,1163 1225,1122C1266,1081 1301,1035 1330,985C1359,935 1382,882 1399,825C1415,768 1423,709 1423,648M1343,648C1343,701 1336,752 1322,802C1307,852 1287,899 1262,943C1236,987 1205,1027 1169,1064C1132,1101 1092,1132 1049,1158C1005,1184 958,1204 908,1219C858,1234 806,1241 752,1241C671,1241 595,1225 524,1194C452,1162 389,1119 335,1065C281,1010 238,947 207,876C176,804 160,728 160,648C160,567 176,490 207,419C238,347 281,284 335,230C389,176 452,133 524,102C595,71 671,55 752,55C832,55 908,71 979,102C1050,133 1113,176 1167,230C1221,284 1264,347 1296,419C1327,490 1343,567 1343,648M1143,844C1143,780 1113,722 1053,670C1026,649 998,628 971,607C943,586 915,566 887,545C828,492 798,430 798,359l339,0l0,-78l-434,0C703,290 703,299 703,308C702,316 702,324 702,332C702,423 733,503 795,571C803,580 821,596 850,619C879,642 918,672 968,710C1030,757 1061,801 1061,844C1061,932 1015,976 923,976C850,976 794,945 755,883l-64,45C716,967 749,997 791,1020C833,1042 877,1053 923,1053C955,1053 985,1048 1012,1038C1039,1027 1062,1013 1082,994C1101,975 1116,953 1127,928C1138,902 1143,874 1143,844M564,281l-82,0l0,640l-66,-79l-51,56l117,147l82,0z"/>
<glyph unicode="&#x246C;" horiz-adv-x="1503" d="M1423,648C1423,587 1415,528 1399,471C1383,414 1361,360 1332,311C1303,261 1268,215 1227,174C1186,133 1140,97 1091,68C1042,39 989,16 932,0C875,-17 815,-25 754,-25C693,-25 634,-17 577,-1C520,15 466,38 416,67C366,96 320,131 279,172C238,213 202,258 173,308C144,358 121,412 105,469C88,526 80,586 80,648C80,709 88,769 105,826C121,883 144,937 173,987C202,1037 238,1083 279,1124C320,1165 366,1200 416,1229C466,1258 520,1281 577,1297C634,1313 693,1321 754,1321C815,1321 873,1313 930,1297C986,1280 1039,1257 1089,1228C1138,1199 1184,1163 1225,1122C1266,1081 1301,1035 1330,985C1359,935 1382,882 1399,825C1415,768 1423,709 1423,648M1343,648C1343,701 1336,752 1322,802C1307,852 1287,899 1262,943C1236,987 1205,1027 1169,1064C1132,1101 1092,1132 1049,1158C1005,1184 958,1204 908,1219C858,1234 806,1241 752,1241C671,1241 595,1225 524,1194C452,1162 389,1119 335,1065C281,1010 238,947 207,876C176,804 160,728 160,648C160,567 176,490 207,419C238,347 281,284 335,230C389,176 452,133 524,102C595,71 671,55 752,55C832,55 908,71 979,102C1050,133 1113,176 1167,230C1221,284 1264,347 1296,419C1327,490 1343,567 1343,648M1168,486C1168,455 1162,426 1150,399C1137,372 1120,348 1097,329C1074,309 1048,293 1017,282C986,271 951,265 914,265C839,265 773,285 714,326l0,82C781,365 847,343 914,343C939,343 962,347 983,354C1004,361 1022,370 1037,383C1052,396 1064,411 1073,430C1082,448 1086,468 1086,491C1086,514 1081,534 1072,553C1063,572 1050,588 1034,601C1018,614 999,625 978,633C957,640 934,644 909,644l-60,0l0,77l58,0C924,721 940,725 956,732C972,739 986,748 999,760C1012,771 1022,785 1030,800C1038,815 1042,831 1042,848C1042,868 1039,886 1032,903C1025,919 1016,933 1005,945C993,957 979,966 964,973C948,979 931,982 914,982C904,982 891,981 876,978C860,975 844,972 828,968C812,964 797,960 784,955C770,950 760,946 754,942l0,78C762,1025 773,1029 787,1034C800,1039 815,1043 830,1047C845,1051 861,1054 876,1057C891,1059 905,1060 916,1060C945,1060 972,1055 997,1044C1022,1033 1044,1019 1063,1000C1082,981 1097,959 1108,934C1119,909 1124,882 1124,853C1124,788 1096,733 1039,688C1079,669 1111,641 1134,606C1157,570 1168,530 1168,486M564,281l-82,0l0,640l-66,-79l-51,56l117,147l82,0z"/>
<glyph unicode="&#x246D;" horiz-adv-x="1503" d="M1423,648C1423,587 1415,528 1399,471C1383,414 1361,360 1332,311C1303,261 1268,215 1227,174C1186,133 1140,97 1091,68C1042,39 989,16 932,0C875,-17 815,-25 754,-25C693,-25 634,-17 577,-1C520,15 466,38 416,67C366,96 320,131 279,172C238,213 202,258 173,308C144,358 121,412 105,469C88,526 80,586 80,648C80,709 88,769 105,826C121,883 144,937 173,987C202,1037 238,1083 279,1124C320,1165 366,1200 416,1229C466,1258 520,1281 577,1297C634,1313 693,1321 754,1321C815,1321 873,1313 930,1297C986,1280 1039,1257 1089,1228C1138,1199 1184,1163 1225,1122C1266,1081 1301,1035 1330,985C1359,935 1382,882 1399,825C1415,768 1423,709 1423,648M1343,648C1343,701 1336,752 1322,802C1307,852 1287,899 1262,943C1236,987 1205,1027 1169,1064C1132,1101 1092,1132 1049,1158C1005,1184 958,1204 908,1219C858,1234 806,1241 752,1241C671,1241 595,1225 524,1194C452,1162 389,1119 335,1065C281,1010 238,947 207,876C176,804 160,728 160,648C160,567 176,490 207,419C238,347 281,284 335,230C389,176 452,133 524,102C595,71 671,55 752,55C832,55 908,71 979,102C1050,133 1113,176 1167,230C1221,284 1264,347 1296,419C1327,490 1343,567 1343,648M1184,503l-134,0l0,-222l-83,0l0,222l-327,0l0,78l310,464l100,0l0,-464l134,0M564,281l-82,0l0,640l-66,-79l-51,56l117,147l82,0M967,581l0,351l-229,-351z"/>
<glyph unicode="&#x246E;" horiz-adv-x="1503" d="M1423,648C1423,587 1415,528 1399,471C1383,414 1361,360 1332,311C1303,261 1268,215 1227,174C1186,133 1140,97 1091,68C1042,39 989,16 932,0C875,-17 815,-25 754,-25C693,-25 634,-17 577,-1C520,15 466,38 416,67C366,96 320,131 279,172C238,213 202,258 173,308C144,358 121,412 105,469C88,526 80,586 80,648C80,709 88,769 105,826C121,883 144,937 173,987C202,1037 238,1083 279,1124C320,1165 366,1200 416,1229C466,1258 520,1281 577,1297C634,1313 693,1321 754,1321C815,1321 873,1313 930,1297C986,1280 1039,1257 1089,1228C1138,1199 1184,1163 1225,1122C1266,1081 1301,1035 1330,985C1359,935 1382,882 1399,825C1415,768 1423,709 1423,648M1343,648C1343,701 1336,752 1322,802C1307,852 1287,899 1262,943C1236,987 1205,1027 1169,1064C1132,1101 1092,1132 1049,1158C1005,1184 958,1204 908,1219C858,1234 806,1241 752,1241C671,1241 595,1225 524,1194C452,1162 389,1119 335,1065C281,1010 238,947 207,876C176,804 160,728 160,648C160,567 176,490 207,419C238,347 281,284 335,230C389,176 452,133 524,102C595,71 671,55 752,55C832,55 908,71 979,102C1050,133 1113,176 1167,230C1221,284 1264,347 1296,419C1327,490 1343,567 1343,648M1142,507C1142,474 1135,442 1121,413C1106,384 1087,358 1063,336C1038,314 1010,297 978,284C945,271 911,265 876,265C842,265 810,268 781,274C751,279 723,287 696,298l0,82C748,355 803,343 862,343C891,343 917,347 942,355C966,363 987,374 1004,389C1021,404 1035,421 1045,441C1055,461 1060,483 1060,507C1060,528 1055,549 1044,569C1033,589 1019,607 1002,622C984,637 964,650 941,659C918,668 893,673 868,673l-153,0l0,380l389,0l0,-78l-307,0l0,-224l75,0C911,751 948,745 981,733C1014,720 1042,703 1066,681C1090,659 1109,633 1122,604C1135,574 1142,542 1142,507M564,281l-82,0l0,640l-66,-79l-51,56l117,147l82,0z"/>
<glyph unicode="&#x246F;" horiz-adv-x="1503" d="M1423,648C1423,587 1415,528 1399,471C1383,414 1361,360 1332,311C1303,261 1268,215 1227,174C1186,133 1140,97 1091,68C1042,39 989,16 932,0C875,-17 815,-25 754,-25C693,-25 634,-17 577,-1C520,15 466,38 416,67C366,96 320,131 279,172C238,213 202,258 173,308C144,358 121,412 105,469C88,526 80,586 80,648C80,709 88,769 105,826C121,883 144,937 173,987C202,1037 238,1083 279,1124C320,1165 366,1200 416,1229C466,1258 520,1281 577,1297C634,1313 693,1321 754,1321C815,1321 873,1313 930,1297C986,1280 1039,1257 1089,1228C1138,1199 1184,1163 1225,1122C1266,1081 1301,1035 1330,985C1359,935 1382,882 1399,825C1415,768 1423,709 1423,648M1343,648C1343,701 1336,752 1322,802C1307,852 1287,899 1262,943C1236,987 1205,1027 1169,1064C1132,1101 1092,1132 1049,1158C1005,1184 958,1204 908,1219C858,1234 806,1241 752,1241C671,1241 595,1225 524,1194C452,1162 389,1119 335,1065C281,1010 238,947 207,876C176,804 160,728 160,648C160,567 176,490 207,419C238,347 281,284 335,230C389,176 452,133 524,102C595,71 671,55 752,55C832,55 908,71 979,102C1050,133 1113,176 1167,230C1221,284 1264,347 1296,419C1327,490 1343,567 1343,648M1143,497C1143,464 1138,434 1127,406C1116,378 1100,354 1081,333C1061,312 1037,295 1010,283C983,271 952,265 919,265C882,265 848,275 817,296C785,316 757,344 734,379C711,414 692,455 679,502C666,549 659,600 659,655C659,714 667,769 682,819C697,868 719,911 748,947C777,982 811,1010 852,1030C892,1050 937,1060 986,1060C1013,1060 1045,1053 1084,1038l0,-78C1051,975 1018,982 985,982C951,982 919,974 890,959C861,943 835,922 813,896C791,869 774,839 761,804C748,769 742,733 741,695l-1,-27C794,725 856,754 927,754C959,754 988,748 1015,735C1041,722 1064,705 1083,682C1102,659 1116,632 1127,601C1138,570 1143,535 1143,497M1061,498C1061,553 1049,596 1025,628C1000,660 967,676 925,676C848,676 790,639 751,565C752,539 757,513 767,487C777,460 790,436 806,415C821,394 839,376 859,363C879,350 900,343 921,343C965,343 999,357 1024,384C1049,411 1061,449 1061,498M564,281l-82,0l0,640l-66,-79l-51,56l117,147l82,0z"/>
<glyph unicode="&#x2470;" horiz-adv-x="1503" d="M1423,648C1423,587 1415,528 1399,471C1383,414 1361,360 1332,311C1303,261 1268,215 1227,174C1186,133 1140,97 1091,68C1042,39 989,16 932,0C875,-17 815,-25 754,-25C693,-25 634,-17 577,-1C520,15 466,38 416,67C366,96 320,131 279,172C238,213 202,258 173,308C144,358 121,412 105,469C88,526 80,586 80,648C80,709 88,769 105,826C121,883 144,937 173,987C202,1037 238,1083 279,1124C320,1165 366,1200 416,1229C466,1258 520,1281 577,1297C634,1313 693,1321 754,1321C815,1321 873,1313 930,1297C986,1280 1039,1257 1089,1228C1138,1199 1184,1163 1225,1122C1266,1081 1301,1035 1330,985C1359,935 1382,882 1399,825C1415,768 1423,709 1423,648M1343,648C1343,701 1336,752 1322,802C1307,852 1287,899 1262,943C1236,987 1205,1027 1169,1064C1132,1101 1092,1132 1049,1158C1005,1184 958,1204 908,1219C858,1234 806,1241 752,1241C671,1241 595,1225 524,1194C452,1162 389,1119 335,1065C281,1010 238,947 207,876C176,804 160,728 160,648C160,567 176,490 207,419C238,347 281,284 335,230C389,176 452,133 524,102C595,71 671,55 752,55C832,55 908,71 979,102C1050,133 1113,176 1167,230C1221,284 1264,347 1296,419C1327,490 1343,567 1343,648M1142,968C1071,883 1012,808 965,745C918,682 882,624 857,571C816,488 796,406 796,327C796,318 796,309 797,302C798,295 799,288 800,281l-82,0C715,296 714,312 714,327C714,442 752,562 829,687C842,708 865,741 900,788C935,834 981,894 1039,968l-362,0l0,77l465,0M564,281l-82,0l0,640l-66,-79l-51,56l117,147l82,0z"/>
<glyph unicode="&#x2471;" horiz-adv-x="1503" d="M1423,648C1423,587 1415,528 1399,471C1383,414 1361,360 1332,311C1303,261 1268,215 1227,174C1186,133 1140,97 1091,68C1042,39 989,16 932,0C875,-17 815,-25 754,-25C693,-25 634,-17 577,-1C520,15 466,38 416,67C366,96 320,131 279,172C238,213 202,258 173,308C144,358 121,412 105,469C88,526 80,586 80,648C80,709 88,769 105,826C121,883 144,937 173,987C202,1037 238,1083 279,1124C320,1165 366,1200 416,1229C466,1258 520,1281 577,1297C634,1313 693,1321 754,1321C815,1321 873,1313 930,1297C986,1280 1039,1257 1089,1228C1138,1199 1184,1163 1225,1122C1266,1081 1301,1035 1330,985C1359,935 1382,882 1399,825C1415,768 1423,709 1423,648M1343,648C1343,701 1336,752 1322,802C1307,852 1287,899 1262,943C1236,987 1205,1027 1169,1064C1132,1101 1092,1132 1049,1158C1005,1184 958,1204 908,1219C858,1234 806,1241 752,1241C671,1241 595,1225 524,1194C452,1162 389,1119 335,1065C281,1010 238,947 207,876C176,804 160,728 160,648C160,567 176,490 207,419C238,347 281,284 335,230C389,176 452,133 524,102C595,71 671,55 752,55C832,55 908,71 979,102C1050,133 1113,176 1167,230C1221,284 1264,347 1296,419C1327,490 1343,567 1343,648M1148,479C1148,449 1142,421 1130,395C1118,369 1101,346 1080,327C1059,308 1033,293 1004,282C975,271 943,265 908,265C873,265 840,270 811,281C781,292 756,307 735,326C714,345 697,367 686,393C674,419 668,448 668,479C668,501 670,521 674,538C677,555 685,572 696,589C707,605 722,621 741,638C760,655 786,673 817,694C735,746 694,805 694,872C694,933 713,979 751,1012C789,1044 841,1060 908,1060C973,1060 1025,1044 1063,1012C1101,979 1120,933 1120,872C1120,805 1079,746 998,694C1029,673 1054,654 1074,637C1093,620 1109,604 1120,588C1131,572 1138,555 1142,538C1146,521 1148,501 1148,479M564,281l-82,0l0,640l-66,-79l-51,56l117,147l82,0M1066,479C1066,536 1013,594 908,652C803,595 750,537 750,479C750,463 754,447 763,431C772,414 783,400 798,387C813,374 830,363 849,355C868,347 887,343 908,343C929,343 949,347 968,355C987,363 1003,373 1018,386C1033,399 1044,413 1053,430C1062,446 1066,462 1066,479M1038,872C1038,887 1035,901 1028,914C1021,927 1011,939 999,949C987,959 973,967 958,973C942,979 925,982 908,982C891,982 874,979 858,973C842,967 828,959 816,949C804,939 795,927 788,914C781,901 777,887 777,872C777,862 781,851 789,838C796,825 806,811 819,798C832,785 846,772 861,760C876,748 892,738 908,730C923,738 939,748 954,760C969,772 983,785 996,798C1009,811 1019,825 1027,838C1034,851 1038,862 1038,872z"/>
<glyph unicode="&#x2472;" horiz-adv-x="1503" d="M1423,648C1423,587 1415,528 1399,471C1383,414 1361,360 1332,311C1303,261 1268,215 1227,174C1186,133 1140,97 1091,68C1042,39 989,16 932,0C875,-17 815,-25 754,-25C693,-25 634,-17 577,-1C520,15 466,38 416,67C366,96 320,131 279,172C238,213 202,258 173,308C144,358 121,412 105,469C88,526 80,586 80,648C80,709 88,769 105,826C121,883 144,937 173,987C202,1037 238,1083 279,1124C320,1165 366,1200 416,1229C466,1258 520,1281 577,1297C634,1313 693,1321 754,1321C815,1321 873,1313 930,1297C986,1280 1039,1257 1089,1228C1138,1199 1184,1163 1225,1122C1266,1081 1301,1035 1330,985C1359,935 1382,882 1399,825C1415,768 1423,709 1423,648M1343,648C1343,701 1336,752 1322,802C1307,852 1287,899 1262,943C1236,987 1205,1027 1169,1064C1132,1101 1092,1132 1049,1158C1005,1184 958,1204 908,1219C858,1234 806,1241 752,1241C671,1241 595,1225 524,1194C452,1162 389,1119 335,1065C281,1010 238,947 207,876C176,804 160,728 160,648C160,567 176,490 207,419C238,347 281,284 335,230C389,176 452,133 524,102C595,71 671,55 752,55C832,55 908,71 979,102C1050,133 1113,176 1167,230C1221,284 1264,347 1296,419C1327,490 1343,567 1343,648M1172,669C1172,610 1165,555 1150,506C1135,457 1113,414 1086,379C1058,343 1024,315 985,295C945,275 900,265 851,265C819,265 784,272 746,286l0,78C781,350 816,343 852,343C886,343 917,351 946,366C975,381 1000,401 1021,427C1042,453 1058,483 1070,518C1082,553 1089,590 1090,629l1,27C1037,600 975,572 904,572C873,572 845,578 819,591C792,603 769,620 750,642C731,664 716,690 705,720C694,750 688,783 688,818C688,851 694,883 705,912C716,941 731,967 751,989C770,1011 794,1028 821,1041C848,1054 879,1060 912,1060C949,1060 983,1050 1015,1030C1047,1009 1075,981 1098,946C1121,910 1139,868 1152,821C1165,774 1172,723 1172,669M1075,776C1075,800 1071,824 1062,849C1053,873 1040,895 1025,915C1010,935 992,951 972,964C952,976 931,982 910,982C867,982 832,967 807,937C782,906 769,866 769,817C769,765 781,724 806,694C830,664 863,649 905,649C926,649 946,653 967,660C987,667 1005,677 1021,689C1037,700 1050,714 1060,729C1070,744 1075,760 1075,776M564,281l-82,0l0,640l-66,-79l-51,56l117,147l82,0z"/>
<glyph unicode="&#x2473;" horiz-adv-x="1503" d="M1423,648C1423,587 1415,528 1399,471C1383,414 1361,360 1332,311C1303,261 1268,215 1227,174C1186,133 1140,97 1091,68C1042,39 989,16 932,0C875,-17 815,-25 754,-25C693,-25 634,-17 577,-1C520,15 466,38 416,67C366,96 320,131 279,172C238,213 202,258 173,308C144,358 121,412 105,469C88,526 80,586 80,648C80,709 88,769 105,826C121,883 144,937 173,987C202,1037 238,1083 279,1124C320,1165 366,1200 416,1229C466,1258 520,1281 577,1297C634,1313 693,1321 754,1321C815,1321 873,1313 930,1297C986,1280 1039,1257 1089,1228C1138,1199 1184,1163 1225,1122C1266,1081 1301,1035 1330,985C1359,935 1382,882 1399,825C1415,768 1423,709 1423,648M1343,648C1343,701 1336,752 1322,802C1307,852 1287,899 1262,943C1236,987 1205,1027 1169,1064C1132,1101 1092,1132 1049,1158C1005,1184 958,1204 908,1219C858,1234 806,1241 752,1241C671,1241 595,1225 524,1194C452,1162 389,1119 335,1065C281,1010 238,947 207,876C176,804 160,728 160,648C160,567 176,490 207,419C238,347 281,284 335,230C389,176 452,133 524,102C595,71 671,55 752,55C832,55 908,71 979,102C1050,133 1113,176 1167,230C1221,284 1264,347 1296,419C1327,490 1343,567 1343,648M1240,662C1240,607 1234,556 1222,508C1209,460 1192,418 1170,382C1148,346 1122,318 1092,297C1061,276 1028,265 993,265C957,265 924,276 893,297C862,318 836,346 814,383C791,419 774,461 761,509C748,557 742,608 742,662C742,716 748,767 761,816C773,864 790,906 813,943C835,979 861,1008 892,1029C923,1050 956,1060 993,1060C1028,1060 1061,1050 1092,1029C1122,1008 1148,979 1170,943C1192,907 1209,865 1222,817C1234,768 1240,717 1240,662M1164,662C1164,706 1160,747 1152,786C1144,824 1133,857 1118,886C1103,914 1085,936 1064,953C1043,969 1019,977 993,977C967,977 943,969 922,953C901,937 883,915 868,887C853,858 842,825 834,787C826,748 822,707 822,662C822,618 826,577 834,539C841,501 852,468 867,440C882,411 900,389 921,373C942,356 966,348 993,348C1019,348 1043,356 1064,373C1085,389 1103,411 1118,440C1133,468 1144,501 1152,540C1160,578 1164,619 1164,662M716,844C716,812 710,782 698,753C686,724 667,696 640,670C617,649 594,628 571,607C548,586 525,566 500,545C473,518 454,490 441,461C428,432 422,399 422,364l288,0l0,-83l-375,0C335,290 335,299 335,308C334,316 334,324 334,332C334,423 361,503 415,571C430,590 479,636 564,710C591,733 610,756 623,779C636,801 642,823 642,844C642,888 632,920 612,941C591,961 561,971 520,971C489,971 462,963 440,948C417,933 397,909 380,878l-56,50C335,947 348,965 363,981C378,996 394,1009 411,1020C428,1031 447,1039 466,1045C485,1050 505,1053 525,1053C554,1053 580,1048 603,1038C626,1027 646,1013 663,994C680,975 693,953 702,928C711,902 716,874 716,844z"/>
<glyph unicode="&#x2776;" horiz-adv-x="1503" d="M1423,648C1423,587 1415,528 1399,471C1383,414 1361,360 1332,311C1303,261 1268,215 1227,174C1186,133 1140,97 1091,68C1042,39 989,16 932,0C875,-17 815,-25 754,-25C693,-25 634,-17 577,-1C520,15 466,38 416,67C366,96 320,131 279,172C238,213 202,258 173,308C144,358 121,412 105,469C88,526 80,586 80,648C80,709 88,769 105,826C121,883 144,937 173,987C202,1037 238,1083 279,1124C320,1165 366,1200 416,1229C466,1258 520,1281 577,1297C634,1313 693,1321 754,1321C815,1321 873,1313 930,1297C986,1280 1039,1257 1089,1228C1138,1199 1184,1163 1225,1122C1266,1081 1301,1035 1330,985C1359,935 1382,882 1399,825C1415,768 1423,709 1423,648M788,1045l-82,0l-117,-147l51,-56l66,79l0,-640l82,0z"/>
<glyph unicode="&#x2777;" horiz-adv-x="1503" d="M1423,648C1423,587 1415,528 1399,471C1383,414 1361,360 1332,311C1303,261 1268,215 1227,174C1186,133 1140,97 1091,68C1042,39 989,16 932,0C875,-17 815,-25 754,-25C693,-25 634,-17 577,-1C520,15 466,38 416,67C366,96 320,131 279,172C238,213 202,258 173,308C144,358 121,412 105,469C88,526 80,586 80,648C80,709 88,769 105,826C121,883 144,937 173,987C202,1037 238,1083 279,1124C320,1165 366,1200 416,1229C466,1258 520,1281 577,1297C634,1313 693,1321 754,1321C815,1321 873,1313 930,1297C986,1280 1039,1257 1089,1228C1138,1199 1184,1163 1225,1122C1266,1081 1301,1035 1330,985C1359,935 1382,882 1399,825C1415,768 1423,709 1423,648M971,844C971,874 966,902 955,928C944,953 929,975 910,994C890,1013 867,1027 840,1038C813,1048 783,1053 751,1053C705,1053 661,1042 619,1020C577,997 544,967 519,928l64,-45C622,945 678,976 751,976C843,976 889,932 889,844C889,801 858,757 796,710C746,672 707,642 678,619C649,596 631,580 623,571C561,503 530,423 530,332C530,324 530,316 531,308C531,299 531,290 531,281l434,0l0,78l-339,0C626,430 656,492 715,545C743,566 771,586 799,607C826,628 854,649 881,670C941,722 971,780 971,844z"/>
<glyph unicode="&#x2778;" horiz-adv-x="1503" d="M1423,648C1423,587 1415,528 1399,471C1383,414 1361,360 1332,311C1303,261 1268,215 1227,174C1186,133 1140,97 1091,68C1042,39 989,16 932,0C875,-17 815,-25 754,-25C693,-25 634,-17 577,-1C520,15 466,38 416,67C366,96 320,131 279,172C238,213 202,258 173,308C144,358 121,412 105,469C88,526 80,586 80,648C80,709 88,769 105,826C121,883 144,937 173,987C202,1037 238,1083 279,1124C320,1165 366,1200 416,1229C466,1258 520,1281 577,1297C634,1313 693,1321 754,1321C815,1321 873,1313 930,1297C986,1280 1039,1257 1089,1228C1138,1199 1184,1163 1225,1122C1266,1081 1301,1035 1330,985C1359,935 1382,882 1399,825C1415,768 1423,709 1423,648M992,486C992,530 981,570 958,606C935,641 903,669 863,688C920,733 948,788 948,853C948,882 943,909 932,934C921,959 906,981 887,1000C868,1019 846,1033 821,1044C796,1055 769,1060 740,1060C729,1060 715,1059 700,1057C685,1054 669,1051 654,1047C639,1043 624,1039 611,1034C597,1029 586,1025 578,1020l0,-78C584,946 594,950 608,955C621,960 636,964 652,968C668,972 684,975 700,978C715,981 728,982 738,982C755,982 772,979 788,973C803,966 817,957 829,945C840,933 849,919 856,903C863,886 866,868 866,848C866,831 862,815 854,800C846,785 836,771 823,760C810,748 796,739 780,732C764,725 748,721 731,721l-58,0l0,-77l60,0C758,644 781,640 802,633C823,625 842,614 858,601C874,588 887,572 896,553C905,534 910,514 910,491C910,468 906,448 897,430C888,411 876,396 861,383C846,370 828,361 807,354C786,347 763,343 738,343C671,343 605,365 538,408l0,-82C597,285 663,265 738,265C775,265 810,271 841,282C872,293 898,309 921,329C944,348 961,372 974,399C986,426 992,455 992,486z"/>
<glyph unicode="&#x2779;" horiz-adv-x="1503" d="M1423,648C1423,587 1415,528 1399,471C1383,414 1361,360 1332,311C1303,261 1268,215 1227,174C1186,133 1140,97 1091,68C1042,39 989,16 932,0C875,-17 815,-25 754,-25C693,-25 634,-17 577,-1C520,15 466,38 416,67C366,96 320,131 279,172C238,213 202,258 173,308C144,358 121,412 105,469C88,526 80,586 80,648C80,709 88,769 105,826C121,883 144,937 173,987C202,1037 238,1083 279,1124C320,1165 366,1200 416,1229C466,1258 520,1281 577,1297C634,1313 693,1321 754,1321C815,1321 873,1313 930,1297C986,1280 1039,1257 1089,1228C1138,1199 1184,1163 1225,1122C1266,1081 1301,1035 1330,985C1359,935 1382,882 1399,825C1415,768 1423,709 1423,648M994,581l-134,0l0,464l-100,0l-310,-464l0,-78l327,0l0,-222l83,0l0,222l134,0M548,581l229,351l0,-351z"/>
<glyph unicode="&#x277A;" horiz-adv-x="1503" d="M1423,648C1423,587 1415,528 1399,471C1383,414 1361,360 1332,311C1303,261 1268,215 1227,174C1186,133 1140,97 1091,68C1042,39 989,16 932,0C875,-17 815,-25 754,-25C693,-25 634,-17 577,-1C520,15 466,38 416,67C366,96 320,131 279,172C238,213 202,258 173,308C144,358 121,412 105,469C88,526 80,586 80,648C80,709 88,769 105,826C121,883 144,937 173,987C202,1037 238,1083 279,1124C320,1165 366,1200 416,1229C466,1258 520,1281 577,1297C634,1313 693,1321 754,1321C815,1321 873,1313 930,1297C986,1280 1039,1257 1089,1228C1138,1199 1184,1163 1225,1122C1266,1081 1301,1035 1330,985C1359,935 1382,882 1399,825C1415,768 1423,709 1423,648M1005,507C1005,542 998,574 985,604C972,633 953,659 929,681C905,703 877,720 844,733C811,745 774,751 735,751l-75,0l0,224l307,0l0,78l-389,0l0,-380l153,0C756,673 781,668 804,659C827,650 847,637 865,622C882,607 896,589 907,569C918,549 923,528 923,507C923,483 918,461 908,441C898,421 884,404 867,389C850,374 829,363 805,355C780,347 754,343 725,343C666,343 611,355 559,380l0,-82C586,287 614,279 644,274C673,268 705,265 739,265C774,265 808,271 841,284C873,297 901,314 926,336C950,358 969,384 984,413C998,442 1005,474 1005,507z"/>
<glyph unicode="&#x277B;" horiz-adv-x="1503" d="M1423,648C1423,587 1415,528 1399,471C1383,414 1361,360 1332,311C1303,261 1268,215 1227,174C1186,133 1140,97 1091,68C1042,39 989,16 932,0C875,-17 815,-25 754,-25C693,-25 634,-17 577,-1C520,15 466,38 416,67C366,96 320,131 279,172C238,213 202,258 173,308C144,358 121,412 105,469C88,526 80,586 80,648C80,709 88,769 105,826C121,883 144,937 173,987C202,1037 238,1083 279,1124C320,1165 366,1200 416,1229C466,1258 520,1281 577,1297C634,1313 693,1321 754,1321C815,1321 873,1313 930,1297C986,1280 1039,1257 1089,1228C1138,1199 1184,1163 1225,1122C1266,1081 1301,1035 1330,985C1359,935 1382,882 1399,825C1415,768 1423,709 1423,648M977,497C977,535 972,570 961,601C950,632 936,659 917,682C898,705 875,722 849,735C822,748 793,754 761,754C690,754 628,725 574,668l1,27C576,733 582,769 595,804C608,839 625,869 647,896C669,922 695,943 724,959C753,974 785,982 819,982C852,982 885,975 918,960l0,78C879,1053 847,1060 820,1060C771,1060 726,1050 686,1030C645,1010 611,982 582,947C553,911 531,868 516,819C501,769 493,714 493,655C493,600 500,549 513,502C526,455 545,414 568,379C591,344 619,316 651,296C682,275 716,265 753,265C786,265 817,271 844,283C871,295 895,312 915,333C934,354 950,378 961,406C972,434 977,464 977,497M895,498C895,449 883,411 858,384C833,357 799,343 755,343C734,343 713,350 693,363C673,376 655,394 640,415C624,436 611,460 601,487C591,513 586,539 585,565C624,639 682,676 759,676C801,676 834,660 859,628C883,596 895,553 895,498z"/>
<glyph unicode="&#x277C;" horiz-adv-x="1503" d="M1423,648C1423,587 1415,528 1399,471C1383,414 1361,360 1332,311C1303,261 1268,215 1227,174C1186,133 1140,97 1091,68C1042,39 989,16 932,0C875,-17 815,-25 754,-25C693,-25 634,-17 577,-1C520,15 466,38 416,67C366,96 320,131 279,172C238,213 202,258 173,308C144,358 121,412 105,469C88,526 80,586 80,648C80,709 88,769 105,826C121,883 144,937 173,987C202,1037 238,1083 279,1124C320,1165 366,1200 416,1229C466,1258 520,1281 577,1297C634,1313 693,1321 754,1321C815,1321 873,1313 930,1297C986,1280 1039,1257 1089,1228C1138,1199 1184,1163 1225,1122C1266,1081 1301,1035 1330,985C1359,935 1382,882 1399,825C1415,768 1423,709 1423,648M1026,1045l-465,0l0,-77l362,0C865,894 819,834 784,788C749,741 726,708 713,687C636,562 598,442 598,327C598,312 599,296 602,281l82,0C683,288 682,295 681,302C680,309 680,318 680,327C680,406 700,488 741,571C766,624 802,682 849,745C896,808 955,883 1026,968z"/>
<glyph unicode="&#x277D;" horiz-adv-x="1503" d="M1423,648C1423,587 1415,528 1399,471C1383,414 1361,360 1332,311C1303,261 1268,215 1227,174C1186,133 1140,97 1091,68C1042,39 989,16 932,0C875,-17 815,-25 754,-25C693,-25 634,-17 577,-1C520,15 466,38 416,67C366,96 320,131 279,172C238,213 202,258 173,308C144,358 121,412 105,469C88,526 80,586 80,648C80,709 88,769 105,826C121,883 144,937 173,987C202,1037 238,1083 279,1124C320,1165 366,1200 416,1229C466,1258 520,1281 577,1297C634,1313 693,1321 754,1321C815,1321 873,1313 930,1297C986,1280 1039,1257 1089,1228C1138,1199 1184,1163 1225,1122C1266,1081 1301,1035 1330,985C1359,935 1382,882 1399,825C1415,768 1423,709 1423,648M1000,479C1000,501 998,521 994,538C990,555 983,572 972,588C961,604 945,620 926,637C906,654 881,673 850,694C931,746 972,805 972,872C972,933 953,979 915,1012C877,1044 825,1060 760,1060C693,1060 641,1044 603,1012C565,979 546,933 546,872C546,805 587,746 669,694C638,673 612,655 593,638C574,621 559,605 548,589C537,572 529,555 526,538C522,521 520,501 520,479C520,448 526,419 538,393C549,367 566,345 587,326C608,307 633,292 663,281C692,270 725,265 760,265C795,265 827,271 856,282C885,293 911,308 932,327C953,346 970,369 982,395C994,421 1000,449 1000,479M918,479C918,462 914,446 905,430C896,413 885,399 870,386C855,373 839,363 820,355C801,347 781,343 760,343C739,343 720,347 701,355C682,363 665,374 650,387C635,400 624,414 615,431C606,447 602,463 602,479C602,537 655,595 760,652C865,594 918,536 918,479M890,872C890,862 886,851 879,838C871,825 861,811 848,798C835,785 821,772 806,760C791,748 775,738 760,730C744,738 728,748 713,760C698,772 684,785 671,798C658,811 648,825 641,838C633,851 629,862 629,872C629,887 633,901 640,914C647,927 656,939 668,949C680,959 694,967 710,973C726,979 743,982 760,982C777,982 794,979 810,973C825,967 839,959 851,949C863,939 873,927 880,914C887,901 890,887 890,872z"/>
<glyph unicode="&#x277E;" horiz-adv-x="1503" d="M1423,648C1423,587 1415,528 1399,471C1383,414 1361,360 1332,311C1303,261 1268,215 1227,174C1186,133 1140,97 1091,68C1042,39 989,16 932,0C875,-17 815,-25 754,-25C693,-25 634,-17 577,-1C520,15 466,38 416,67C366,96 320,131 279,172C238,213 202,258 173,308C144,358 121,412 105,469C88,526 80,586 80,648C80,709 88,769 105,826C121,883 144,937 173,987C202,1037 238,1083 279,1124C320,1165 366,1200 416,1229C466,1258 520,1281 577,1297C634,1313 693,1321 754,1321C815,1321 873,1313 930,1297C986,1280 1039,1257 1089,1228C1138,1199 1184,1163 1225,1122C1266,1081 1301,1035 1330,985C1359,935 1382,882 1399,825C1415,768 1423,709 1423,648M999,669C999,723 992,774 979,821C966,868 948,910 925,946C902,981 874,1009 842,1030C810,1050 776,1060 739,1060C706,1060 675,1054 648,1041C621,1028 597,1011 578,989C558,967 543,941 532,912C521,883 515,851 515,818C515,783 521,750 532,720C543,690 558,664 577,642C596,620 619,603 646,591C672,578 700,572 731,572C802,572 864,600 918,656l-1,-27C916,590 909,553 897,518C885,483 869,453 848,427C827,401 802,381 773,366C744,351 713,343 679,343C643,343 608,350 573,364l0,-78C611,272 646,265 678,265C727,265 772,275 812,295C851,315 885,343 913,379C940,414 962,457 977,506C992,555 999,610 999,669M902,776C902,760 897,744 887,729C877,714 864,700 848,689C832,677 814,667 794,660C773,653 753,649 732,649C690,649 657,664 633,694C608,724 596,765 596,817C596,866 609,906 634,937C659,967 694,982 737,982C758,982 779,976 799,964C819,951 837,935 852,915C867,895 880,873 889,849C898,824 902,800 902,776z"/>
<glyph unicode="&#x277F;" horiz-adv-x="1503" d="M1423,648C1423,587 1415,528 1399,471C1383,414 1361,360 1332,311C1303,261 1268,215 1227,174C1186,133 1140,97 1091,68C1042,39 989,16 932,0C875,-17 815,-25 754,-25C693,-25 634,-17 577,-1C520,15 466,38 416,67C366,96 320,131 279,172C238,213 202,258 173,308C144,358 121,412 105,469C88,526 80,586 80,648C80,709 88,769 105,826C121,883 144,937 173,987C202,1037 238,1083 279,1124C320,1165 366,1200 416,1229C466,1258 520,1281 577,1297C634,1313 693,1321 754,1321C815,1321 873,1313 930,1297C986,1280 1039,1257 1089,1228C1138,1199 1184,1163 1225,1122C1266,1081 1301,1035 1330,985C1359,935 1382,882 1399,825C1415,768 1423,709 1423,648M1200,662C1200,717 1194,768 1182,817C1169,865 1152,907 1130,943C1108,979 1082,1008 1052,1029C1021,1050 988,1060 953,1060C916,1060 883,1050 852,1029C821,1008 795,979 773,943C750,906 733,864 721,816C708,767 702,716 702,662C702,608 708,557 721,509C734,461 751,419 774,383C796,346 822,318 853,297C884,276 917,265 953,265C988,265 1021,276 1052,297C1082,318 1108,346 1130,382C1152,418 1169,460 1182,508C1194,556 1200,607 1200,662M1124,662C1124,619 1120,578 1112,540C1104,501 1093,468 1078,440C1063,411 1045,389 1024,373C1003,356 979,348 953,348C926,348 902,356 881,373C860,389 842,411 827,440C812,468 801,501 794,539C786,577 782,618 782,662C782,707 786,748 794,787C802,825 813,858 828,887C843,915 861,937 882,953C903,969 927,977 953,977C979,977 1003,969 1024,953C1045,936 1063,914 1078,886C1093,857 1104,824 1112,786C1120,747 1124,706 1124,662M564,1045l-82,0l-117,-147l51,-56l66,79l0,-640l82,0z"/>
<glyph unicode="&#x3000;" horiz-adv-x="1024"/>
<glyph unicode="&#x3002;" horiz-adv-x="1400" d="M626,190C626,161 620,133 609,108C598,82 582,59 563,40C544,21 521,5 496,-6C470,-17 442,-23 413,-23C384,-23 356,-17 330,-6C304,5 281,20 262,39C243,58 228,81 217,107C206,133 200,161 200,190C200,219 206,247 217,273C228,298 244,321 263,340C282,359 305,375 331,386C356,397 384,403 413,403C442,403 469,397 495,386C521,375 544,359 563,340C582,321 598,298 609,272C620,246 626,219 626,190M567,190C567,211 563,231 555,250C547,269 536,285 522,299C508,313 492,324 473,332C454,340 434,344 413,344C392,344 372,340 353,332C334,324 318,313 304,299C290,285 279,269 271,250C263,231 259,211 259,190C259,168 263,148 271,129C279,110 290,94 304,81C317,67 333,56 352,48C371,40 391,36 413,36C434,36 454,40 473,48C492,56 508,67 522,81C536,95 547,111 555,130C563,149 567,169 567,190z"/>
<glyph unicode="&#x30FB;" horiz-adv-x="1400" d="M880,715C880,690 875,666 866,644C857,622 844,603 827,587C810,571 791,558 769,549C747,540 723,535 698,535C673,535 650,540 629,549C607,558 588,571 572,588C555,604 542,623 533,645C524,666 519,690 519,715C519,740 524,763 533,785C542,807 555,826 572,843C588,859 607,872 629,881C650,890 673,895 698,895C723,895 746,890 769,881C791,871 810,858 827,842C843,825 856,806 866,785C875,763 880,740 880,715z"/>
<glyph unicode="&#x3008;" horiz-adv-x="575" d="M126,749l377,-798l-72,-41l-391,839l424,842l72,-41z"/>
<glyph unicode="&#x3009;" horiz-adv-x="575" d="M114,-73l-74,33l377,798l-377,793l74,41l391,-826z"/>
<glyph unicode="&#x300A;" horiz-adv-x="855" d="M126,748l377,-798l-72,-41l-391,839l424,842l72,-41M402,748l377,-798l-72,-41l-391,839l424,842l72,-41z"/>
<glyph unicode="&#x300B;" horiz-adv-x="855" d="M114,-74l-74,33l377,798l-377,793l74,41l391,-826M392,-74l-74,33l377,798l-377,793l74,41l391,-826z"/>
<glyph unicode="&#x300C;" horiz-adv-x="560" d="M527,1395l-408,0l0,-1595l-79,0l0,1675l487,0z"/>
<glyph unicode="&#x300D;" horiz-adv-x="590" d="M527,-200l-487,0l0,80l407,0l0,1595l80,0z"/>
<glyph unicode="&#x300E;" horiz-adv-x="590" d="M552,1127l-270,0l0,-1428l-242,0l0,1676l512,0M122,1295l0,-1516l80,0l0,1428l270,0l0,88z"/>
<glyph unicode="&#x300F;" horiz-adv-x="590" d="M544,-200l-504,0l0,247l264,0l0,1428l240,0M384,1395l0,-1427l-264,0l0,-88l344,0l0,1515z"/>
<glyph unicode="&#x3010;" horiz-adv-x="840" d="M777,-204l-737,0l0,1734l743,0C642,1378 536,1229 465,1083C394,937 359,793 359,650C359,385 498,100 777,-204z"/>
<glyph unicode="&#x3011;" horiz-adv-x="840" d="M759,1530l0,-1734l-727,0C292,98 428,384 439,654C439,659 439,665 440,670C440,675 440,680 440,685C440,946 307,1227 40,1530z"/>
<glyph unicode="&#x3014;" horiz-adv-x="440" d="M120,1246l0,-1010l281,-286l-64,-41l-297,313l0,1038l314,330l55,-49z"/>
<glyph unicode="&#x3015;" horiz-adv-x="440" d="M392,244l-305,-327l-55,49l280,303l0,991l-272,281l55,49l297,-305z"/>
<glyph unicode="&#x3016;" horiz-adv-x="925" d="M888,1531C812,1463 744,1391 683,1316C622,1240 570,1164 528,1089C485,1014 453,940 430,868C407,795 395,728 395,666C395,605 404,539 423,469C441,399 470,327 511,253C551,178 603,102 666,25C729,-52 806,-128 896,-203l-856,0l0,1734M120,1452l0,-1575l567,0C658,-94 628,-61 599,-24C569,13 540,53 513,96C486,139 460,184 437,231C413,278 392,325 375,374C357,422 343,470 333,519C322,567 317,613 317,658C317,777 349,903 413,1037C476,1170 570,1309 695,1452z"/>
<glyph unicode="&#x3017;" horiz-adv-x="925" d="M882,-189l-834,0C122,-121 188,-49 247,27C306,102 356,178 397,254C438,330 469,404 491,476C513,548 524,614 524,674C524,730 516,792 499,860C482,927 455,998 417,1072C379,1146 329,1222 268,1300C206,1378 130,1455 40,1531l842,0M241,1452C272,1423 303,1390 333,1352C363,1314 392,1273 419,1230C446,1186 470,1140 493,1092C516,1044 535,996 552,948C568,899 581,851 590,804C599,756 604,711 604,668C604,554 574,432 515,301C455,170 364,33 241,-109l559,0l0,1561z"/>
<glyph unicode="&#x3018;" horiz-adv-x="440" d="M272,1331l0,-1179l129,-201l-64,-41l-297,463l0,738l314,480l55,-49M120,1097l0,-710l72,-111l0,932z"/>
<glyph unicode="&#x3019;" horiz-adv-x="440" d="M408,1110l0,-738l-297,-463l-64,41l129,200l0,1180l-137,211l55,49M328,1096l-72,111l0,-933l72,112z"/>
<glyph unicode="&#x301A;" horiz-adv-x="580" d="M527,1510l-229,0l0,-1583l229,0l0,-80l-487,0l0,1743l487,0M119,1510l0,-1583l100,0l0,1583z"/>
<glyph unicode="&#x301B;" horiz-adv-x="580" d="M526,1590l0,-1743l-487,0l0,80l229,0l0,1583l-229,0l0,80M447,1510l-100,0l0,-1583l100,0z"/>
<glyph unicode="&#x301C;" horiz-adv-x="1154" d="M1049,1037C1040,1012 1027,985 1012,955C996,924 975,895 950,867C917,836 884,811 849,793C814,775 776,766 734,766C688,766 646,773 607,787C568,800 533,815 500,831C466,848 433,863 402,877C371,891 339,898 306,898C285,898 264,894 245,885C226,876 207,863 190,846C173,829 156,810 141,787C126,764 111,739 98,711l-58,25C49,763 64,793 84,826C103,859 127,890 156,919C185,948 217,972 253,992C289,1011 328,1021 371,1021C420,1021 463,1014 501,1001C539,987 574,972 607,956C625,947 642,939 657,931C672,923 688,916 703,910C718,904 734,899 749,896C764,892 781,890 799,890C822,890 842,894 860,902C878,910 895,922 910,937C925,952 939,970 952,991C965,1012 977,1035 988,1061z"/>
<glyph unicode="&#x301D;" horiz-adv-x="740" d="M260,1479C271,1448 314,1282 389,982l-31,-14C320,1035 287,1093 260,1142C232,1191 208,1232 189,1267C169,1302 153,1330 141,1353C128,1376 119,1394 112,1409C105,1423 100,1434 98,1442C95,1450 94,1457 94,1462C94,1474 97,1484 103,1493C109,1502 117,1509 127,1515C136,1520 147,1524 158,1527C169,1530 180,1531 191,1531C208,1531 223,1526 235,1517C246,1508 255,1495 260,1479M591,1479C602,1448 645,1282 720,982l-31,-14C651,1035 618,1093 591,1142C563,1191 539,1232 520,1267C500,1302 484,1330 472,1353C459,1376 450,1394 443,1409C436,1423 431,1434 429,1442C426,1450 425,1457 425,1462C425,1474 428,1484 434,1493C440,1502 448,1509 458,1515C467,1520 478,1524 489,1527C500,1530 511,1531 522,1531C539,1531 554,1526 566,1517C577,1508 586,1495 591,1479z"/>
<glyph unicode="&#x301E;" horiz-adv-x="740" d="M123,1000l-31,6C140,1141 177,1246 203,1321C228,1396 243,1443 247,1460C252,1481 263,1498 278,1511C293,1524 312,1530 333,1530C343,1530 353,1528 362,1525C371,1521 380,1516 387,1510C394,1503 400,1495 405,1486C409,1477 411,1466 411,1455C411,1448 410,1441 407,1434C404,1426 400,1416 393,1403C386,1390 375,1373 362,1353C349,1333 331,1307 310,1276C289,1245 263,1207 232,1162C201,1117 165,1063 123,1000M420,1000l-31,6C437,1141 474,1246 500,1321C525,1396 540,1443 544,1460C549,1481 560,1498 575,1511C590,1524 609,1530 630,1530C640,1530 650,1528 659,1525C668,1521 677,1516 684,1510C691,1503 697,1495 702,1486C706,1477 708,1466 708,1455C708,1448 707,1441 704,1434C701,1426 697,1416 690,1403C683,1390 672,1373 659,1353C646,1333 628,1307 607,1276C586,1245 560,1207 529,1162C498,1117 462,1063 420,1000z"/>
<glyph unicode="&#x301F;" horiz-adv-x="740" d="M88,-36l-31,6C105,105 142,210 168,285C193,360 208,407 212,424C217,445 228,462 243,475C258,488 277,494 298,494C308,494 318,492 327,489C336,485 345,480 352,474C359,467 365,459 370,450C374,441 376,430 376,419C376,412 375,405 372,398C369,390 365,380 358,367C351,354 340,337 327,317C314,297 296,271 275,240C254,209 228,171 197,126C166,81 130,27 88,-36M385,-36l-31,6C402,105 439,210 465,285C490,360 505,407 509,424C514,445 525,462 540,475C555,488 574,494 595,494C605,494 615,492 624,489C633,485 642,480 649,474C656,467 662,459 667,450C671,441 673,430 673,419C673,412 672,405 669,398C666,390 662,380 655,367C648,354 637,337 624,317C611,297 593,271 572,240C551,209 525,171 494,126C463,81 427,27 385,-36z"/>
<glyph unicode="&#xA000;" horiz-adv-x="1400" d="M1205,1475l0,-932C1205,459 1196,381 1179,308C1161,235 1135,172 1101,119C1067,65 1025,23 976,-8C926,-39 869,-55 805,-55C745,-55 691,-41 644,-14C597,13 556,51 522,100C488,148 461,205 442,271C422,337 410,408 406,485l-211,0l0,80l210,0l0,910l80,0l0,-300l640,0l0,300M705,485l-218,0C491,422 501,362 517,306C532,250 553,201 580,160C607,118 639,85 677,61C714,37 757,25 805,25C856,25 901,39 941,67C981,94 1015,132 1042,179C1069,226 1089,281 1104,344C1118,407 1125,473 1125,543l0,552l-640,0l0,-530l220,0z"/>
<glyph unicode="&#xA001;" horiz-adv-x="1400" d="M1199,1475l0,-932C1199,459 1190,381 1173,308C1155,235 1129,172 1095,119C1061,65 1019,23 970,-8C920,-39 863,-55 799,-55C725,-55 661,-35 607,6C552,47 508,102 474,172C433,165 390,159 345,156C299,152 251,150 200,150l0,80C289,230 370,236 443,248C414,336 399,434 399,543l0,215C368,761 336,764 303,766C270,768 235,769 200,769l0,80C236,849 271,848 304,846C337,844 368,841 399,838l0,637l80,0l0,-300l640,0l0,300M835,498C835,419 811,355 762,305C713,254 644,216 555,191C582,140 616,99 657,70C698,40 745,25 799,25C850,25 895,39 935,67C975,94 1009,132 1036,179C1063,226 1083,281 1098,344C1112,407 1119,473 1119,543l0,552l-640,0l0,-270C535,814 585,800 629,781C673,762 710,740 741,713C771,686 794,654 811,619C827,583 835,543 835,498M755,502C755,535 748,565 735,592C722,618 703,641 679,661C655,680 626,697 592,711C558,724 520,735 479,744l0,-201C479,441 493,349 522,266C557,276 589,288 618,303C647,317 671,334 692,353C712,372 728,394 739,419C750,444 755,471 755,502M947,1658l-30,-68C881,1618 842,1638 801,1650C759,1662 720,1668 684,1668C647,1668 611,1662 575,1650C539,1638 503,1618 467,1590l-30,68C522,1718 605,1748 684,1748C772,1748 860,1718 947,1658z"/>
<glyph unicode="&#xA002;" horiz-adv-x="1400" d="M1199,1475l0,-932C1199,459 1190,381 1173,308C1155,235 1129,172 1095,119C1061,65 1019,23 970,-8C920,-39 863,-55 799,-55C725,-55 661,-35 607,6C552,47 508,102 474,172C433,165 390,159 345,156C299,152 251,150 200,150l0,80C289,230 370,236 443,248C414,336 399,434 399,543l0,215C368,761 336,764 303,766C270,768 235,769 200,769l0,80C236,849 271,848 304,846C337,844 368,841 399,838l0,637l80,0l0,-300l640,0l0,300M835,498C835,419 811,355 762,305C713,254 644,216 555,191C582,140 616,99 657,70C698,40 745,25 799,25C850,25 895,39 935,67C975,94 1009,132 1036,179C1063,226 1083,281 1098,344C1112,407 1119,473 1119,543l0,552l-640,0l0,-270C535,814 585,800 629,781C673,762 710,740 741,713C771,686 794,654 811,619C827,583 835,543 835,498M755,502C755,535 748,565 735,592C722,618 703,641 679,661C655,680 626,697 592,711C558,724 520,735 479,744l0,-201C479,441 493,349 522,266C557,276 589,288 618,303C647,317 671,334 692,353C712,372 728,394 739,419C750,444 755,471 755,502z"/>
<glyph unicode="&#xA003;" horiz-adv-x="1400" d="M1322,1257l-33,-80l-319,207l0,-1384C860,0 763,9 679,26C595,43 523,68 462,102C417,70 368,44 313,24C258,4 199,-9 136,-15l-10,80C182,70 232,80 277,93C322,106 362,123 397,144C343,186 303,236 276,293C249,350 235,414 235,487C235,628 281,742 372,827C337,847 299,864 258,877C217,890 173,900 126,905l10,80C195,980 250,968 301,950C352,932 399,909 442,881C549,950 699,991 890,1003l0,527l20,0M890,913C733,905 608,876 514,827C567,781 608,729 637,670C666,611 681,549 681,485C681,426 668,368 643,313C617,258 581,207 535,162C627,119 745,94 890,88M601,485C601,540 587,593 560,644C532,695 493,740 443,780C400,745 368,705 347,658C326,611 315,559 315,500C315,368 368,267 473,197C517,236 549,281 570,331C591,380 601,432 601,485z"/>
<glyph unicode="&#xA004;" horiz-adv-x="1400" d="M1220,1475C1213,1392 1198,1318 1177,1252C1155,1185 1127,1127 1092,1076C1103,1026 1111,973 1116,917C1121,860 1123,800 1124,736C1124,611 1114,499 1094,401C1074,303 1046,220 1009,153C972,86 927,34 875,-1C822,-37 764,-55 700,-55C611,-55 534,-21 469,46C404,113 354,209 321,336l-140,0l0,80l122,0C285,510 276,617 276,736C276,797 279,856 284,911C289,966 296,1017 305,1065C274,1114 249,1172 228,1239C207,1306 191,1385 180,1475l80,0C267,1411 276,1354 288,1305C300,1256 315,1212 332,1174C367,1289 416,1378 479,1439C542,1500 615,1530 700,1530C783,1530 856,1501 918,1442C979,1383 1028,1297 1063,1186C1082,1225 1099,1268 1112,1316C1125,1363 1134,1416 1140,1475M1044,736C1044,782 1042,827 1039,870C1036,913 1031,955 1025,995C981,952 932,920 878,898C823,876 764,865 700,865C633,865 572,874 517,893C462,911 414,941 372,982C367,943 363,904 360,863C357,822 356,780 356,736C356,619 366,513 385,416l146,0l0,-80l-126,0C419,289 436,246 455,208C474,169 495,137 520,110C545,83 572,62 602,47C632,32 665,25 700,25C757,25 806,43 849,80C892,117 928,167 957,231C986,294 1007,369 1022,456C1037,543 1044,636 1044,736M700,1450C661,1450 625,1441 593,1423C560,1405 531,1380 505,1348C479,1315 457,1276 438,1230C419,1184 403,1133 390,1077C429,1028 474,993 527,974C579,955 637,945 700,945C759,945 814,957 867,981C919,1005 965,1043 1006,1094C993,1147 976,1196 957,1240C938,1284 915,1322 890,1353C865,1384 836,1408 805,1425C773,1442 738,1450 700,1450z"/>
<glyph unicode="&#xA005;" horiz-adv-x="1400" d="M1172,1298l-30,-79l-402,195l0,-320C879,1089 985,1056 1057,997C1129,937 1165,854 1165,749C1165,643 1129,561 1058,502C987,443 881,411 740,406l0,-461l-20,0l-492,232l30,79l402,-195l0,345C519,411 413,444 342,503C271,562 235,644 235,750C235,856 271,939 342,998C413,1057 519,1089 660,1094l0,436l20,0M1085,749C1085,790 1077,828 1062,861C1046,894 1022,922 990,945C958,968 918,985 870,997C821,1009 765,1015 700,1015C570,1015 473,992 410,945C347,898 315,833 315,750C315,667 347,602 410,555C473,508 570,485 700,485C830,485 927,509 990,556C1053,603 1085,667 1085,749M955,1658l-30,-68C889,1618 850,1638 809,1650C767,1662 728,1668 692,1668C655,1668 619,1662 583,1650C547,1638 511,1618 475,1590l-30,68C530,1718 613,1748 692,1748C780,1748 868,1718 955,1658z"/>
<glyph unicode="&#xA006;" horiz-adv-x="1400" d="M1172,1298l-30,-79l-402,195l0,-320C879,1089 985,1056 1057,997C1129,937 1165,854 1165,749C1165,643 1129,561 1058,502C987,443 881,411 740,406l0,-461l-20,0l-492,232l30,79l402,-195l0,345C519,411 413,444 342,503C271,562 235,644 235,750C235,856 271,939 342,998C413,1057 519,1089 660,1094l0,436l20,0M1085,749C1085,790 1077,828 1062,861C1046,894 1022,922 990,945C958,968 918,985 870,997C821,1009 765,1015 700,1015C570,1015 473,992 410,945C347,898 315,833 315,750C315,667 347,602 410,555C473,508 570,485 700,485C830,485 927,509 990,556C1053,603 1085,667 1085,749z"/>
<glyph unicode="&#xA007;" horiz-adv-x="1400" d="M881,771C881,604 870,462 848,346C875,328 903,312 932,298C960,284 988,272 1015,263C1042,253 1067,245 1092,240C1116,234 1138,230 1158,228l0,169l80,0l0,-399l-80,0l0,143C1101,146 1045,159 989,179C932,198 879,224 828,257C799,152 760,73 709,22C658,-29 595,-55 522,-55C404,-55 315,13 254,148C193,283 163,491 163,771C163,911 171,1029 186,1126C201,1223 224,1301 254,1361C284,1420 321,1463 366,1490C411,1517 463,1530 522,1530C561,1530 597,1524 630,1513C663,1502 692,1484 719,1459C745,1434 768,1401 789,1362C809,1323 826,1275 839,1220C888,1251 940,1275 995,1294C1050,1313 1104,1325 1158,1330l0,143l80,0l0,-399l-80,0l0,169C1139,1241 1117,1237 1094,1232C1070,1226 1045,1218 1019,1209C992,1200 965,1188 938,1175C911,1161 884,1145 857,1128C864,1079 870,1025 875,966C879,907 881,842 881,771M539,734C539,778 545,821 556,862C567,903 582,941 602,978C622,1014 646,1048 674,1080C701,1112 732,1141 765,1168C755,1212 743,1251 728,1286C713,1321 696,1350 676,1375C656,1399 633,1418 608,1431C583,1444 554,1450 522,1450C471,1450 427,1433 392,1400C356,1367 327,1320 305,1261C283,1201 267,1129 258,1046C248,963 243,871 243,771C243,656 248,552 258,460C267,368 283,290 305,226C327,161 356,112 392,77C427,42 471,25 522,25C583,25 633,49 672,98C711,146 740,215 761,305C728,331 699,360 672,392C645,423 621,457 602,493C582,529 567,567 556,608C545,648 539,690 539,734M801,771C801,882 795,983 783,1072C760,1051 738,1029 718,1005C698,980 681,954 666,926C651,897 640,867 632,836C623,804 619,770 619,734C619,699 623,665 631,634C639,602 650,572 665,544C679,516 696,490 715,466C734,442 755,420 778,400C786,453 792,510 796,572C799,634 801,700 801,771z"/>
<glyph unicode="&#xA008;" horiz-adv-x="1400" d="M1164,1530l0,-596l-20,0l-365,229l0,-1163l-80,0l0,518l-463,496l47,63l416,-448l0,667l20,0l365,-235l0,469z"/>
<glyph unicode="&#xA009;" horiz-adv-x="1400" d="M1148,1475l0,-1475l-80,0l0,1067l-322,298l0,-1420l-20,0l-530,385l41,68l429,-310l0,588l-424,301l41,68l383,-272l0,757l20,0l382,-353l0,298M956,1658l-30,-68C890,1618 851,1638 810,1650C768,1662 729,1668 693,1668C656,1668 620,1662 584,1650C548,1638 512,1618 476,1590l-30,68C531,1718 614,1748 693,1748C781,1748 869,1718 956,1658z"/>
<glyph unicode="&#xA00A;" horiz-adv-x="1400" d="M1148,1475l0,-1475l-80,0l0,1067l-322,298l0,-1420l-20,0l-530,385l41,68l429,-310l0,588l-424,301l41,68l383,-272l0,757l20,0l382,-353l0,298z"/>
<glyph unicode="&#xA00B;" horiz-adv-x="1400" d="M1212,1523C1130,1444 1070,1370 1031,1301C992,1232 973,1169 973,1112C973,1045 993,974 1032,899C1071,823 1131,744 1212,661l-47,-66C1118,640 1078,684 1044,725C1010,766 982,808 960,850C937,891 921,934 910,979C899,1023 893,1071 893,1122C893,1129 893,1135 894,1142C894,1148 894,1155 895,1162l-219,203l0,-1420l-20,0l-530,385l41,68l429,-310l0,588l-424,301l41,68l383,-272l0,757l20,0l300,-278C937,1311 969,1368 1012,1424C1055,1480 1106,1535 1165,1589z"/>
<glyph unicode="&#xA00C;" horiz-adv-x="1400" d="M1124,1475l0,-1475l-80,0l0,742l-688,0l0,-742l-80,0l0,1475l80,0l0,-654l688,0l0,654M955,1658l-30,-68C889,1618 850,1638 809,1650C767,1662 728,1668 692,1668C655,1668 619,1662 583,1650C547,1638 511,1618 475,1590l-30,68C530,1718 613,1748 692,1748C780,1748 868,1718 955,1658M740,500l0,-300l-80,0l0,300M740,1330l0,-300l-80,0l0,300z"/>
<glyph unicode="&#xA00D;" horiz-adv-x="1400" d="M1124,1475l0,-1475l-80,0l0,742l-688,0l0,-742l-80,0l0,1475l80,0l0,-654l688,0l0,654M740,500l0,-300l-80,0l0,300M740,1330l0,-300l-80,0l0,300z"/>
<glyph unicode="&#xA00E;" horiz-adv-x="1400" d="M1180,1210C1180,1161 1176,1119 1169,1084C1161,1049 1150,1018 1137,993C1124,967 1108,945 1091,927C1073,909 1054,892 1034,877C1034,714 1027,573 1014,456C1001,338 980,241 953,166C925,90 890,34 848,-1C806,-37 756,-55 699,-55C642,-55 592,-37 550,-1C508,35 473,91 446,167C419,242 398,339 385,456C372,573 365,714 365,877C345,892 326,909 309,927C291,945 275,967 262,993C249,1018 238,1049 231,1084C223,1119 219,1161 219,1210C219,1257 224,1300 235,1339C245,1378 259,1412 278,1441C296,1469 318,1491 344,1507C370,1522 399,1530 431,1530C464,1530 493,1523 520,1510C547,1497 570,1477 589,1450C608,1423 622,1390 633,1350C643,1310 648,1263 648,1210C648,1108 631,1029 597,972C562,915 512,883 445,877C445,754 449,641 458,537C466,433 480,343 500,267C519,191 545,132 578,89C611,46 651,25 699,25C748,25 788,46 821,89C854,132 880,191 900,267C919,342 933,432 942,536C950,640 954,754 954,877C887,883 837,915 803,972C768,1029 751,1108 751,1210C751,1263 756,1310 767,1350C777,1390 792,1423 811,1450C830,1477 852,1497 879,1510C906,1523 935,1530 968,1530C1000,1530 1029,1522 1055,1507C1081,1491 1103,1469 1122,1441C1140,1412 1154,1378 1165,1339C1175,1300 1180,1257 1180,1210M1100,1210C1099,1285 1087,1342 1062,1383C1037,1424 1003,1446 962,1450C921,1445 889,1422 866,1383C843,1344 831,1286 831,1210C831,1129 842,1067 865,1024C888,981 922,958 968,955C1009,958 1041,981 1065,1023C1088,1064 1100,1127 1100,1210M568,1210C568,1286 557,1344 534,1383C511,1422 478,1445 437,1450C394,1446 361,1423 336,1381C311,1339 299,1279 299,1201C299,1120 311,1060 335,1020C359,980 391,958 431,955C477,958 511,981 534,1024C557,1067 568,1129 568,1210z"/>
<glyph unicode="&#xA00F;" horiz-adv-x="1400" d="M1165,1184C1165,1078 1129,996 1058,937C987,878 881,846 740,841l0,-128l-44,0C651,713 610,710 572,703C534,696 501,687 474,675C447,663 425,649 410,633C394,616 386,599 386,580C386,537 420,502 487,476C554,450 649,433 771,426l0,-63C635,352 535,331 472,300C408,269 376,227 376,175C376,125 398,88 443,63C487,38 553,25 640,25C674,26 711,30 752,36C793,42 837,49 884,58l16,-76C858,-27 814,-35 768,-42C721,-49 678,-54 638,-55C528,-55 444,-37 385,-2C326,33 296,91 296,173C296,274 369,347 515,394C447,410 395,432 360,460C324,488 306,528 306,580C306,643 337,692 398,728C459,763 546,786 660,795l0,46C519,846 413,879 342,938C271,997 235,1079 235,1185C235,1296 274,1382 353,1441C431,1500 547,1530 700,1530C853,1530 969,1500 1048,1441C1126,1381 1165,1295 1165,1184M315,1185C315,1106 343,1044 400,998C456,951 543,925 660,920l0,529C543,1444 456,1418 400,1372C343,1326 315,1264 315,1185M1085,1184C1085,1263 1057,1325 1001,1372C944,1418 857,1444 740,1449l0,-529C857,925 943,950 1000,997C1057,1044 1085,1106 1085,1184z"/>
<glyph unicode="&#xA010;" horiz-adv-x="1400" d="M1273,771C1273,491 1243,283 1182,148C1121,13 1032,-55 914,-55C796,-55 707,13 646,148C585,283 555,491 555,771C555,824 556,874 558,921C560,967 563,1011 568,1052l-139,122l0,-1059l-20,0l-283,272l47,64l176,-177l0,1061l20,0l212,-194C593,1211 609,1271 629,1320C648,1369 672,1410 700,1441C728,1472 760,1494 796,1509C831,1523 871,1530 914,1530C973,1530 1025,1517 1070,1490C1115,1463 1152,1420 1182,1361C1212,1301 1235,1223 1250,1126C1265,1029 1273,911 1273,771M1193,771C1193,871 1188,963 1179,1046C1169,1129 1153,1201 1131,1261C1109,1320 1080,1367 1045,1400C1009,1433 965,1450 914,1450C863,1450 819,1433 784,1400C748,1367 719,1320 697,1261C675,1201 659,1129 650,1046C640,963 635,871 635,771C635,656 640,552 650,460C659,368 675,290 697,226C719,161 748,112 784,77C819,42 863,25 914,25C965,25 1009,42 1045,77C1080,112 1109,161 1131,226C1153,290 1169,368 1179,460C1188,552 1193,656 1193,771M962,888l0,-300l-80,0l0,300M960,1658l-30,-68C894,1618 855,1638 814,1650C772,1662 733,1668 697,1668C660,1668 624,1662 588,1650C552,1638 516,1618 480,1590l-30,68C535,1718 618,1748 697,1748C785,1748 873,1718 960,1658z"/>
<glyph unicode="&#xA011;" horiz-adv-x="1400" d="M1273,771C1273,491 1243,283 1182,148C1121,13 1032,-55 914,-55C796,-55 707,13 646,148C585,283 555,491 555,771C555,824 556,874 558,921C560,967 563,1011 568,1052l-139,122l0,-1059l-20,0l-283,272l47,64l176,-177l0,1061l20,0l212,-194C593,1211 609,1271 629,1320C648,1369 672,1410 700,1441C728,1472 760,1494 796,1509C831,1523 871,1530 914,1530C973,1530 1025,1517 1070,1490C1115,1463 1152,1420 1182,1361C1212,1301 1235,1223 1250,1126C1265,1029 1273,911 1273,771M1193,771C1193,871 1188,963 1179,1046C1169,1129 1153,1201 1131,1261C1109,1320 1080,1367 1045,1400C1009,1433 965,1450 914,1450C863,1450 819,1433 784,1400C748,1367 719,1320 697,1261C675,1201 659,1129 650,1046C640,963 635,871 635,771C635,656 640,552 650,460C659,368 675,290 697,226C719,161 748,112 784,77C819,42 863,25 914,25C965,25 1009,42 1045,77C1080,112 1109,161 1131,226C1153,290 1169,368 1179,460C1188,552 1193,656 1193,771M962,888l0,-300l-80,0l0,300z"/>
<glyph unicode="&#xA012;" horiz-adv-x="1400" d="M1273,771C1273,491 1243,283 1182,148C1121,13 1032,-55 914,-55C796,-55 707,13 646,148C585,283 555,491 555,771C555,824 556,874 558,921C560,967 563,1011 568,1052l-139,122l0,-1059l-20,0l-283,272l47,64l176,-177l0,1061l20,0l212,-194C593,1211 609,1271 629,1320C648,1369 672,1410 700,1441C728,1472 760,1494 796,1509C831,1523 871,1530 914,1530C973,1530 1025,1517 1070,1490C1115,1463 1152,1420 1182,1361C1212,1301 1235,1223 1250,1126C1265,1029 1273,911 1273,771M1193,771C1193,871 1188,963 1179,1046C1169,1129 1153,1201 1131,1261C1109,1320 1080,1367 1045,1400C1009,1433 965,1450 914,1450C863,1450 819,1433 784,1400C748,1367 719,1320 697,1261C675,1201 659,1129 650,1046C640,963 635,871 635,771C635,656 640,552 650,460C659,368 675,290 697,226C719,161 748,112 784,77C819,42 863,25 914,25C965,25 1009,42 1045,77C1080,112 1109,161 1131,226C1153,290 1169,368 1179,460C1188,552 1193,656 1193,771z"/>
<glyph unicode="&#xA013;" horiz-adv-x="1400" d="M1297,1293l-39,-69l-303,177l0,-1456l-20,0l-425,256l40,65l325,-195l0,741l-357,0C604,742 647,665 647,580C647,498 614,434 549,387C484,340 383,311 246,300l0,80C288,385 328,393 367,402C406,411 440,424 470,440C499,455 523,475 541,499C558,522 567,551 567,584C567,606 562,629 553,654C543,678 529,701 511,723C493,745 471,765 445,783C419,800 390,813 358,822l0,60C417,905 464,933 499,967C534,1001 551,1043 551,1094C551,1126 545,1155 534,1180C523,1205 505,1227 481,1246C456,1265 425,1280 386,1293C347,1306 301,1316 246,1324l16,80C387,1389 479,1355 540,1304C601,1252 631,1181 631,1092C631,1067 628,1044 622,1024C615,1003 607,985 597,969C586,952 574,938 561,925C547,912 533,901 518,892l357,0l0,638l20,0M973,1658l-30,-68C907,1618 868,1638 827,1650C785,1662 746,1668 710,1668C673,1668 637,1662 601,1650C565,1638 529,1618 493,1590l-30,68C548,1718 631,1748 710,1748C798,1748 886,1718 973,1658z"/>
<glyph unicode="&#xA014;" horiz-adv-x="1400" d="M1247,1293l-39,-69l-303,177l0,-1456l-20,0l-425,256l40,65l325,-195l0,741l-357,0C554,742 597,665 597,580C597,498 564,434 499,387C434,340 333,311 196,300l0,80C238,385 278,393 317,402C356,411 390,424 420,440C449,455 473,475 491,499C508,522 517,551 517,584C517,606 512,629 503,654C493,678 479,701 461,723C443,745 421,765 395,783C369,800 340,813 308,822l0,60C367,905 414,933 449,967C484,1001 501,1043 501,1094C501,1126 495,1155 484,1180C473,1205 455,1227 431,1246C406,1265 375,1280 336,1293C297,1306 251,1316 196,1324l16,80C337,1389 429,1355 490,1304C551,1252 581,1181 581,1092C581,1067 578,1044 572,1024C565,1003 557,985 547,969C536,952 524,938 511,925C497,912 483,901 468,892l357,0l0,638l20,0z"/>
<glyph unicode="&#xA015;" horiz-adv-x="1400" d="M455,650l0,-538l-80,0l0,538M1025,650l0,-538l-80,0l0,538M1188,1475C1188,1381 1186,1296 1181,1219C1176,1142 1164,1077 1146,1022C1128,967 1102,925 1067,895C1032,865 984,850 924,850C893,850 865,855 841,866C817,876 796,891 778,910C760,929 745,951 732,978C719,1005 708,1035 699,1068C690,1035 680,1005 667,978C654,951 639,929 621,910C603,891 582,876 558,866C534,855 507,850 476,850C416,850 369,865 334,895C299,925 272,967 254,1022C236,1077 225,1142 220,1219C215,1296 212,1381 212,1475l80,0C292,1379 295,1297 300,1228C305,1159 314,1102 328,1058C341,1014 360,982 384,961C408,940 439,930 476,930C513,930 543,940 566,960C589,979 608,1011 622,1054C636,1097 646,1154 651,1223C656,1292 659,1376 660,1475l80,0C740,1379 743,1297 748,1228C753,1159 762,1102 776,1058C789,1014 808,982 832,961C856,940 887,930 924,930C961,930 992,940 1016,961C1040,982 1059,1014 1073,1058C1086,1102 1096,1159 1101,1228C1106,1297 1108,1379 1108,1475z"/>
<glyph unicode="&#xA016;" horiz-adv-x="1400" d="M1296,360l-49,-49l-295,350C948,548 935,447 914,358C892,269 863,194 826,133C789,72 746,25 696,-7C645,-39 590,-55 529,-55C465,-55 407,-37 355,-1C302,34 258,86 221,153C184,220 155,303 135,401C115,499 105,611 105,736C105,861 115,972 136,1071C156,1169 185,1252 222,1320C259,1388 303,1440 355,1476C407,1512 465,1530 529,1530C587,1530 640,1515 689,1486C738,1456 780,1413 816,1356C852,1299 881,1229 904,1147C927,1064 941,971 948,866l262,316l56,-54l-306,-363M529,360l335,405l-305,363l56,54l253,-305C862,960 850,1036 833,1106C815,1176 792,1237 764,1288C735,1339 701,1378 662,1407C623,1436 578,1450 529,1450C472,1450 423,1432 380,1395C337,1358 302,1307 273,1243C244,1179 222,1104 207,1017C192,930 185,836 185,736C185,636 192,543 207,456C222,369 244,294 273,231C302,167 337,117 380,80C423,43 472,25 529,25C582,25 629,41 670,73C711,105 745,149 774,206C803,263 825,330 842,407C858,484 868,568 871,659l-293,-348z"/>
<glyph unicode="&#xA017;" horiz-adv-x="1400" d="M1116,1405C807,1265 631,1062 588,795l512,0l0,-80l-512,0C599,549 651,412 744,305C837,197 971,116 1147,61l-31,-76C743,112 541,355 508,715l-176,0l0,-715l-80,0l0,1475l80,0l0,-680l176,0C559,1101 750,1331 1083,1485M957,1658l-30,-68C891,1618 852,1638 811,1650C769,1662 730,1668 694,1668C657,1668 621,1662 585,1650C549,1638 513,1618 477,1590l-30,68C532,1718 615,1748 694,1748C782,1748 870,1718 957,1658z"/>
<glyph unicode="&#xA018;" horiz-adv-x="1400" d="M1116,1405C807,1265 631,1062 588,795l512,0l0,-80l-512,0C599,549 651,412 744,305C837,197 971,116 1147,61l-31,-76C743,112 541,355 508,715l-176,0l0,-715l-80,0l0,1475l80,0l0,-680l176,0C559,1101 750,1331 1083,1485z"/>
<glyph unicode="&#xA019;" horiz-adv-x="1400" d="M1012,1530l0,-482l-703,277l0,-737l174,0C544,809 747,931 1091,956l0,-80C808,850 633,754 565,588l606,0l0,-80l-606,0C600,318 775,211 1091,188l0,-80C726,133 524,267 483,508l-174,0l0,-508l-80,0l0,1435l16,0l687,-270l0,365z"/>
<glyph unicode="&#xA01A;" horiz-adv-x="1400" d="M773,789C799,918 840,1038 896,1150C951,1261 1022,1365 1109,1460l66,-47C1088,1313 1017,1212 964,1109C911,1006 874,900 853,789l256,0l0,-80l-256,0C860,466 967,247 1175,53l-49,-59C1013,95 927,204 869,323C810,442 778,570 773,709l-110,0C662,593 658,491 650,404C642,316 629,243 612,184C594,125 571,80 544,51C517,21 483,6 444,6C365,6 308,67 275,188C242,309 225,489 225,726C225,845 229,949 237,1039C245,1129 258,1204 275,1265C292,1326 315,1371 343,1402C370,1433 404,1448 444,1448C482,1448 515,1434 542,1406C569,1378 591,1336 608,1281C625,1226 638,1157 647,1075C656,992 661,897 662,789M583,726C583,811 580,892 575,970C570,1047 562,1116 551,1175C540,1234 525,1281 508,1316C490,1351 469,1368 444,1368C419,1368 398,1351 381,1316C363,1281 349,1234 338,1175C327,1116 318,1047 313,970C308,892 305,811 305,726C305,629 308,541 313,462C318,383 327,316 338,261C349,205 363,162 381,132C398,101 419,86 444,86C469,86 490,101 508,132C525,162 540,205 551,261C562,316 570,383 575,462C580,541 583,629 583,726z"/>
<glyph unicode="&#xA01B;" horiz-adv-x="1400" d="M1176,736C1176,611 1165,499 1144,401C1122,303 1090,220 1049,153C1008,86 957,34 897,-1C837,-37 769,-55 692,-55C615,-55 547,-37 487,-1C427,34 376,86 335,153C294,220 262,303 241,401C219,499 208,611 208,736C208,861 219,972 241,1071C262,1169 294,1252 336,1320C377,1388 428,1440 488,1476C548,1512 616,1530 692,1530C777,1530 852,1508 916,1464C980,1419 1033,1355 1075,1271l152,207l66,-47l-183,-245C1131,1125 1148,1058 1159,983C1170,908 1175,825 1176,736M692,1450C623,1450 563,1432 512,1395C461,1358 420,1307 387,1243C354,1179 329,1104 313,1017C296,930 288,836 288,736C288,651 294,572 305,498C316,424 334,357 357,296l662,900C986,1274 943,1336 889,1382C834,1427 769,1450 692,1450M1096,736C1096,805 1092,870 1085,932C1077,994 1065,1052 1050,1106l-660,-884C424,160 466,112 516,77C565,42 624,25 692,25C761,25 821,43 872,80C923,117 965,167 998,231C1031,294 1055,369 1072,456C1088,543 1096,636 1096,736M996,1658l-30,-68C930,1618 891,1638 850,1650C808,1662 769,1668 733,1668C696,1668 660,1662 624,1650C588,1638 552,1618 516,1590l-30,68C571,1718 654,1748 733,1748C821,1748 909,1718 996,1658z"/>
<glyph unicode="&#xA01C;" horiz-adv-x="1400" d="M1126,736C1126,611 1115,499 1094,401C1072,303 1040,220 999,153C958,86 907,34 847,-1C787,-37 719,-55 642,-55C565,-55 497,-37 437,-1C377,34 326,86 285,153C244,220 212,303 191,401C169,499 158,611 158,736C158,861 169,972 191,1071C212,1169 244,1252 286,1320C327,1388 378,1440 438,1476C498,1512 566,1530 642,1530C727,1530 802,1508 866,1464C930,1419 983,1355 1025,1271l152,207l66,-47l-183,-245C1081,1125 1098,1058 1109,983C1120,908 1125,825 1126,736M642,1450C573,1450 513,1432 462,1395C411,1358 370,1307 337,1243C304,1179 279,1104 263,1017C246,930 238,836 238,736C238,651 244,572 255,498C266,424 284,357 307,296l662,900C936,1274 893,1336 839,1382C784,1427 719,1450 642,1450M1046,736C1046,805 1042,870 1035,932C1027,994 1015,1052 1000,1106l-660,-884C374,160 416,112 466,77C515,42 574,25 642,25C711,25 771,43 822,80C873,117 915,167 948,231C981,294 1005,369 1022,456C1038,543 1046,636 1046,736z"/>
<glyph unicode="&#xA01D;" horiz-adv-x="1400" d="M1212,1081C1212,1010 1193,948 1154,894C1115,840 1059,794 987,756C1062,725 1120,680 1159,620C1198,560 1217,490 1217,409C1217,336 1197,265 1156,196C1115,127 1054,63 973,4l-49,64C997,124 1051,179 1086,234C1120,288 1137,346 1137,409C1137,450 1130,487 1115,521C1100,555 1080,585 1053,611C1026,636 993,657 956,673C919,689 877,700 832,706C831,571 825,456 813,360C801,264 782,185 756,124C730,62 697,17 656,-12C615,-41 566,-55 508,-55C449,-55 399,-40 358,-10C317,20 283,67 258,131C232,194 213,276 202,376C190,476 184,596 184,736C184,876 190,996 202,1097C213,1197 232,1279 258,1343C284,1407 318,1454 359,1485C400,1515 449,1530 508,1530C565,1530 613,1516 654,1488C694,1459 727,1415 753,1355C779,1294 798,1217 811,1124C824,1030 831,918 832,787C877,797 919,811 956,828C993,845 1024,866 1050,891C1076,916 1096,944 1111,976C1125,1008 1132,1043 1132,1081C1132,1130 1115,1181 1081,1235C1047,1288 995,1340 924,1390l47,68C1046,1403 1105,1345 1148,1282C1191,1219 1212,1152 1212,1081M752,736C752,836 749,930 743,1017C737,1104 725,1179 708,1243C690,1307 665,1358 633,1395C601,1432 559,1450 508,1450C457,1450 415,1432 383,1395C351,1358 326,1307 309,1243C291,1179 279,1104 273,1017C267,930 264,836 264,736C264,621 267,519 273,431C279,342 291,268 309,208C326,148 351,103 383,72C415,41 457,25 508,25C559,25 601,41 633,72C665,103 690,148 708,208C725,268 737,342 743,431C749,519 752,621 752,736z"/>
<glyph unicode="&#xA01E;" horiz-adv-x="1400" d="M1012,295C1012,240 1005,190 991,147C977,104 957,67 930,37C903,7 871,-16 832,-31C793,-47 749,-55 700,-55C651,-55 607,-47 569,-31C530,-16 498,7 472,37C446,67 426,104 413,147C399,190 392,240 392,295C392,405 419,491 472,553C525,614 602,645 702,645C751,645 794,637 833,621C872,605 904,582 931,552C957,522 977,485 991,442C1005,399 1012,350 1012,295M932,295C932,334 927,371 917,404C906,437 891,465 871,489C851,513 827,532 799,545C770,558 738,565 702,565C661,565 625,558 596,545C567,532 543,513 525,489C506,465 493,437 485,404C476,371 472,334 472,295C472,256 476,221 484,188C492,155 505,126 523,102C541,78 565,59 594,46C623,32 659,25 702,25C738,25 770,32 799,45C827,58 851,77 871,101C890,124 905,153 916,186C927,219 932,255 932,295M1091,1475l0,-875l-80,0l0,417l-622,0l0,-417l-80,0l0,874l80,0l0,-377l622,0l0,378z"/>
<glyph unicode="&#xA01F;" horiz-adv-x="1400" d="M1097,1475l0,-875l-80,0l0,417l-622,0l0,-417l-80,0l0,874l80,0l0,-377l622,0l0,378M1219,460C1211,385 1201,317 1188,254C1175,191 1159,136 1139,91C1118,45 1093,9 1062,-16C1031,-42 992,-55 947,-55C886,-55 836,-34 795,9C754,52 722,121 697,216C687,168 674,127 658,93C641,59 623,31 602,9C581,-13 558,-29 534,-39C509,-50 484,-55 458,-55C418,-55 384,-46 355,-29C326,-12 300,17 279,57C258,97 239,150 224,216C209,281 194,363 181,460l80,0C271,384 282,319 293,264C304,209 318,163 333,128C348,93 365,67 386,50C407,33 432,25 461,25C487,25 511,33 532,49C553,65 573,91 590,126C607,161 621,206 634,261C646,316 656,382 664,460l76,0C748,387 757,324 768,270C779,215 792,170 809,134C825,97 845,70 869,52C893,34 922,25 957,25C984,25 1007,37 1028,61C1048,85 1065,117 1080,158C1095,198 1107,244 1117,297C1126,349 1134,403 1139,460M954,1658l-30,-68C888,1618 849,1638 808,1650C766,1662 727,1668 691,1668C654,1668 618,1662 582,1650C546,1638 510,1618 474,1590l-30,68C529,1718 612,1748 691,1748C779,1748 867,1718 954,1658z"/>
<glyph unicode="&#xA020;" horiz-adv-x="1400" d="M1097,1475l0,-875l-80,0l0,417l-622,0l0,-417l-80,0l0,874l80,0l0,-377l622,0l0,378M1219,460C1211,385 1201,317 1188,254C1175,191 1159,136 1139,91C1118,45 1093,9 1062,-16C1031,-42 992,-55 947,-55C886,-55 836,-34 795,9C754,52 722,121 697,216C687,168 674,127 658,93C641,59 623,31 602,9C581,-13 558,-29 534,-39C509,-50 484,-55 458,-55C418,-55 384,-46 355,-29C326,-12 300,17 279,57C258,97 239,150 224,216C209,281 194,363 181,460l80,0C271,384 282,319 293,264C304,209 318,163 333,128C348,93 365,67 386,50C407,33 432,25 461,25C487,25 511,33 532,49C553,65 573,91 590,126C607,161 621,206 634,261C646,316 656,382 664,460l76,0C748,387 757,324 768,270C779,215 792,170 809,134C825,97 845,70 869,52C893,34 922,25 957,25C984,25 1007,37 1028,61C1048,85 1065,117 1080,158C1095,198 1107,244 1117,297C1126,349 1134,403 1139,460z"/>
<glyph unicode="&#xA021;" horiz-adv-x="1400" d="M1091,1475l0,-875l-80,0l0,417l-622,0l0,-417l-80,0l0,874l80,0l0,-377l622,0l0,378M582,451l-305,-492l-63,45l305,496M881,500l305,-496l-63,-45l-305,492z"/>
<glyph unicode="&#xA022;" horiz-adv-x="1400" d="M1124,1110l0,-780C1124,277 1113,239 1091,214C1068,189 1036,176 995,176C985,176 976,176 969,177C962,178 954,179 946,182C938,184 929,187 918,192C907,197 893,203 876,210l-407,181l0,-391l-80,0l0,508l20,0l492,-223C914,279 928,273 943,268C958,263 970,260 979,260C1002,260 1018,267 1028,280C1037,293 1043,315 1044,347l0,763C1044,1159 1039,1204 1028,1246C1017,1287 1001,1323 978,1354C955,1384 925,1408 890,1425C854,1442 811,1450 760,1450C717,1450 676,1444 638,1433C600,1422 564,1404 529,1381C494,1357 461,1327 429,1291C397,1254 365,1211 334,1161l-58,47C304,1258 335,1303 370,1343C404,1382 441,1416 482,1444C523,1471 566,1493 613,1508C659,1523 708,1530 760,1530C815,1530 865,1522 910,1506C955,1489 993,1464 1025,1430C1056,1396 1081,1353 1098,1300C1115,1247 1124,1183 1124,1110M866,1139l0,-80l-150,0l0,-400l150,0l0,-80l-380,0l0,80l150,0l0,400l-150,0l0,80M953,1658l-30,-68C887,1618 848,1638 807,1650C765,1662 726,1668 690,1668C653,1668 617,1662 581,1650C545,1638 509,1618 473,1590l-30,68C528,1718 611,1748 690,1748C778,1748 866,1718 953,1658z"/>
<glyph unicode="&#xA023;" horiz-adv-x="1400" d="M1124,1110l0,-780C1124,277 1113,239 1091,214C1068,189 1036,176 995,176C985,176 976,176 969,177C962,178 954,179 946,182C938,184 929,187 918,192C907,197 893,203 876,210l-407,181l0,-391l-80,0l0,508l20,0l492,-223C914,279 928,273 943,268C958,263 970,260 979,260C1002,260 1018,267 1028,280C1037,293 1043,315 1044,347l0,763C1044,1159 1039,1204 1028,1246C1017,1287 1001,1323 978,1354C955,1384 925,1408 890,1425C854,1442 811,1450 760,1450C717,1450 676,1444 638,1433C600,1422 564,1404 529,1381C494,1357 461,1327 429,1291C397,1254 365,1211 334,1161l-58,47C304,1258 335,1303 370,1343C404,1382 441,1416 482,1444C523,1471 566,1493 613,1508C659,1523 708,1530 760,1530C815,1530 865,1522 910,1506C955,1489 993,1464 1025,1430C1056,1396 1081,1353 1098,1300C1115,1247 1124,1183 1124,1110M866,1139l0,-80l-150,0l0,-400l150,0l0,-80l-380,0l0,80l150,0l0,400l-150,0l0,80z"/>
<glyph unicode="&#xA024;" horiz-adv-x="1400" d="M1100,1475l0,-80l-360,0l0,-1315l360,0l0,-80l-800,0l0,80l360,0l0,1315l-360,0l0,80z"/>
<glyph unicode="&#xA025;" horiz-adv-x="1400" d="M1156,1400C1087,1387 1029,1370 981,1351C932,1332 893,1309 862,1283C831,1257 808,1228 794,1195C779,1162 772,1125 772,1085C772,952 894,855 1139,794l0,-63C895,704 773,585 773,373C773,308 805,251 868,201C931,150 1027,107 1156,71l-17,-76C1038,19 951,54 879,99C806,144 749,199 707,266C626,305 547,358 468,425l-177,-208l-47,65l177,207C370,572 343,658 341,749C343,837 370,926 421,1017l-177,193l47,63l177,-192C527,1144 614,1204 728,1259C821,1373 958,1447 1139,1480M963,778C929,788 896,803 863,822C830,841 802,864 777,891C752,918 731,947 716,979C701,1010 693,1043 693,1077C693,1092 694,1107 696,1120C698,1133 702,1147 707,1161C676,1148 645,1130 614,1107C582,1083 550,1053 517,1017l110,-112l-47,-64l-112,113C453,919 441,887 433,857C425,826 421,797 421,769C421,678 442,605 484,552l113,146l47,-49l-127,-160C584,425 643,383 693,362C693,366 693,370 693,374C692,378 692,382 692,386C692,574 782,705 963,778z"/>
<glyph unicode="&#xA026;" horiz-adv-x="1400" d="M1184,736C1184,611 1173,499 1152,401C1130,303 1098,220 1057,153C1016,86 965,34 905,-1C845,-37 777,-55 700,-55C623,-55 555,-37 495,-1C435,34 384,86 343,153C302,220 270,303 249,401C227,499 216,611 216,736C216,861 227,972 249,1071C270,1169 302,1252 344,1320C385,1388 436,1440 496,1476C556,1512 624,1530 700,1530C777,1530 845,1512 905,1476C964,1440 1015,1388 1056,1320C1097,1252 1129,1169 1151,1071C1173,972 1184,861 1184,736M1104,736C1104,836 1096,930 1080,1017C1063,1104 1039,1179 1006,1243C973,1307 931,1358 880,1395C829,1432 769,1450 700,1450C631,1450 571,1432 520,1395C469,1358 428,1307 395,1243C362,1179 337,1104 321,1017C304,930 296,836 296,736C296,636 304,543 321,456C337,369 362,294 395,231C428,167 469,117 520,80C571,43 631,25 700,25C769,25 829,43 880,80C931,117 973,167 1006,231C1039,294 1063,369 1080,456C1096,543 1104,636 1104,736M930,1155l0,-80l-180,0l0,-675l180,0l0,-80l-440,0l0,80l180,0l0,675l-180,0l0,80M953,1658l-30,-68C887,1618 848,1638 807,1650C765,1662 726,1668 690,1668C653,1668 617,1662 581,1650C545,1638 509,1618 473,1590l-30,68C528,1718 611,1748 690,1748C778,1748 866,1718 953,1658z"/>
<glyph unicode="&#xA027;" horiz-adv-x="1400" d="M1184,736C1184,611 1173,499 1152,401C1130,303 1098,220 1057,153C1016,86 965,34 905,-1C845,-37 777,-55 700,-55C623,-55 555,-37 495,-1C435,34 384,86 343,153C302,220 270,303 249,401C227,499 216,611 216,736C216,861 227,972 249,1071C270,1169 302,1252 344,1320C385,1388 436,1440 496,1476C556,1512 624,1530 700,1530C777,1530 845,1512 905,1476C964,1440 1015,1388 1056,1320C1097,1252 1129,1169 1151,1071C1173,972 1184,861 1184,736M1104,736C1104,836 1096,930 1080,1017C1063,1104 1039,1179 1006,1243C973,1307 931,1358 880,1395C829,1432 769,1450 700,1450C631,1450 571,1432 520,1395C469,1358 428,1307 395,1243C362,1179 337,1104 321,1017C304,930 296,836 296,736C296,636 304,543 321,456C337,369 362,294 395,231C428,167 469,117 520,80C571,43 631,25 700,25C769,25 829,43 880,80C931,117 973,167 1006,231C1039,294 1063,369 1080,456C1096,543 1104,636 1104,736M930,1155l0,-80l-180,0l0,-675l180,0l0,-80l-440,0l0,80l180,0l0,675l-180,0l0,80z"/>
<glyph unicode="&#xA028;" horiz-adv-x="1400" d="M1140,1475l0,-80l-400,0l0,-452l400,0l0,-80l-880,0l0,80l400,0l0,452l-400,0l0,80M1140,612l0,-80l-400,0l0,-452l400,0l0,-80l-880,0l0,80l400,0l0,452l-400,0l0,80z"/>
</font>
</svg>
